<svg width="229" height="230" viewBox="0 0 229 230" fill="none" xmlns="http://www.w3.org/2000/svg">
<g filter="url(#filter0_i_10_95)">
<rect x="40" y="17" width="149" height="72" rx="20" fill="url(#paint0_linear_10_95)"/>
</g>
<g filter="url(#filter1_bdi_10_95)">
<rect x="40" y="50" width="149" height="130" rx="20" fill="url(#paint1_linear_10_95)" fill-opacity="0.5" shape-rendering="crispEdges"/>
</g>
<g filter="url(#filter2_d_10_95)">
<rect x="140" width="12" height="32" rx="6" fill="#FFEBEB"/>
<rect x="77" width="12" height="32" rx="6" fill="#FFEBEB"/>
</g>
<path d="M101.986 76.5653C101.918 75.8778 101.625 75.3437 101.108 74.9631C100.591 74.5824 99.8892 74.392 99.0028 74.392C98.4006 74.392 97.892 74.4773 97.4773 74.6477C97.0625 74.8125 96.7443 75.0426 96.5227 75.3381C96.3068 75.6335 96.1989 75.9688 96.1989 76.3438C96.1875 76.6562 96.2528 76.929 96.3949 77.1619C96.5426 77.3949 96.7443 77.5966 97 77.767C97.2557 77.9318 97.5511 78.0767 97.8864 78.2017C98.2216 78.321 98.5795 78.4233 98.9602 78.5085L100.528 78.8835C101.29 79.054 101.989 79.2812 102.625 79.5653C103.261 79.8494 103.813 80.1989 104.278 80.6136C104.744 81.0284 105.105 81.517 105.361 82.0795C105.622 82.642 105.756 83.2869 105.761 84.0142C105.756 85.0824 105.483 86.0085 104.943 86.7926C104.409 87.571 103.636 88.1761 102.625 88.608C101.619 89.0341 100.406 89.2472 98.9858 89.2472C97.5767 89.2472 96.3494 89.0312 95.304 88.5994C94.2642 88.1676 93.4517 87.5284 92.8665 86.6818C92.2869 85.8295 91.983 84.7756 91.9545 83.5199H95.5256C95.5653 84.1051 95.733 84.5937 96.0284 84.9858C96.3295 85.3722 96.7301 85.6648 97.2301 85.8636C97.7358 86.0568 98.3068 86.1534 98.9432 86.1534C99.5682 86.1534 100.111 86.0625 100.571 85.8807C101.037 85.6989 101.398 85.446 101.653 85.1222C101.909 84.7983 102.037 84.4261 102.037 84.0057C102.037 83.6136 101.92 83.2841 101.688 83.017C101.46 82.75 101.125 82.5227 100.682 82.3352C100.244 82.1477 99.7074 81.9773 99.071 81.8239L97.1705 81.3466C95.6989 80.9886 94.5369 80.429 93.6847 79.6676C92.8324 78.9062 92.4091 77.8807 92.4148 76.5909C92.4091 75.5341 92.6903 74.6108 93.2585 73.821C93.8324 73.0312 94.6193 72.4148 95.6193 71.9716C96.6193 71.5284 97.7557 71.3068 99.0284 71.3068C100.324 71.3068 101.455 71.5284 102.42 71.9716C103.392 72.4148 104.148 73.0312 104.688 73.821C105.227 74.6108 105.506 75.5256 105.523 76.5653H101.986ZM116.57 83.4261V75.9091H120.201V89H116.715V86.6222H116.579C116.283 87.3892 115.792 88.0057 115.104 88.4716C114.423 88.9375 113.59 89.1705 112.607 89.1705C111.732 89.1705 110.962 88.9716 110.298 88.5739C109.633 88.1761 109.113 87.6108 108.738 86.8778C108.369 86.1449 108.181 85.267 108.175 84.2443V75.9091H111.806V83.5966C111.812 84.3693 112.019 84.9801 112.428 85.429C112.837 85.8778 113.386 86.1023 114.073 86.1023C114.511 86.1023 114.92 86.0028 115.3 85.804C115.681 85.5994 115.988 85.2983 116.221 84.9006C116.46 84.5028 116.576 84.0114 116.57 83.4261ZM126.736 81.4318V89H123.105V75.9091H126.565V78.2188H126.719C127.009 77.4574 127.494 76.8551 128.176 76.4119C128.858 75.9631 129.685 75.7386 130.656 75.7386C131.565 75.7386 132.358 75.9375 133.034 76.3352C133.71 76.733 134.236 77.3011 134.611 78.0398C134.986 78.7727 135.173 79.6477 135.173 80.6648V89H131.543V81.3125C131.548 80.5114 131.344 79.8864 130.929 79.4375C130.514 78.983 129.943 78.7557 129.216 78.7557C128.727 78.7557 128.295 78.8608 127.92 79.071C127.551 79.2812 127.261 79.5881 127.051 79.9915C126.847 80.3892 126.741 80.8693 126.736 81.4318Z" fill="#E10000"/>
<path d="M113.987 158C110.111 158 106.662 157.358 103.641 156.075C100.637 154.775 98.2794 153.004 96.5677 150.762C94.8559 148.521 94 145.98 94 143.14C94 140.95 94.4867 138.939 95.46 137.108C96.4502 135.26 97.7927 133.729 99.4877 132.514C101.183 131.282 103.079 130.495 105.177 130.153V129.794C102.425 129.229 100.193 127.869 98.4808 125.713C96.769 123.54 95.9132 121.016 95.9132 118.142C95.9132 115.421 96.6935 113 98.2542 110.878C99.815 108.74 101.955 107.063 104.673 105.848C107.409 104.616 110.514 104 113.987 104C117.461 104 120.558 104.616 123.276 105.848C126.012 107.08 128.16 108.765 129.721 110.904C131.281 113.026 132.07 115.438 132.087 118.142C132.07 121.033 131.197 123.557 129.469 125.713C127.74 127.869 125.525 129.229 122.823 129.794V130.153C124.887 130.495 126.759 131.282 128.437 132.514C130.132 133.729 131.474 135.26 132.464 137.108C133.471 138.939 133.983 140.95 134 143.14C133.983 145.98 133.119 148.521 131.407 150.762C129.695 153.004 127.329 154.775 124.308 156.075C121.304 157.358 117.864 158 113.987 158ZM113.987 149.838C115.716 149.838 117.226 149.522 118.519 148.889C119.811 148.239 120.818 147.349 121.539 146.22C122.278 145.073 122.647 143.756 122.647 142.267C122.647 140.744 122.269 139.401 121.514 138.238C120.759 137.057 119.735 136.133 118.443 135.466C117.151 134.781 115.666 134.439 113.987 134.439C112.326 134.439 110.841 134.781 109.532 135.466C108.223 136.133 107.191 137.057 106.435 138.238C105.697 139.401 105.328 140.744 105.328 142.267C105.328 143.756 105.689 145.073 106.41 146.22C107.132 147.349 108.147 148.239 109.456 148.889C110.765 149.522 112.276 149.838 113.987 149.838ZM113.987 126.355C115.431 126.355 116.714 126.055 117.839 125.456C118.963 124.857 119.844 124.028 120.482 122.967C121.12 121.906 121.439 120.683 121.439 119.297C121.439 117.928 121.12 116.73 120.482 115.703C119.844 114.66 118.972 113.847 117.864 113.265C116.756 112.666 115.464 112.367 113.987 112.367C112.527 112.367 111.235 112.666 110.111 113.265C108.986 113.847 108.105 114.66 107.468 115.703C106.847 116.73 106.536 117.928 106.536 119.297C106.536 120.683 106.855 121.906 107.493 122.967C108.13 124.028 109.012 124.857 110.136 125.456C111.26 126.055 112.544 126.355 113.987 126.355Z" fill="#4C2523"/>
<defs>
<filter id="filter0_i_10_95" x="40" y="17" width="149" height="76" filterUnits="userSpaceOnUse" color-interpolation-filters="sRGB">
<feFlood flood-opacity="0" result="BackgroundImageFix"/>
<feBlend mode="normal" in="SourceGraphic" in2="BackgroundImageFix" result="shape"/>
<feColorMatrix in="SourceAlpha" type="matrix" values="0 0 0 0 0 0 0 0 0 0 0 0 0 0 0 0 0 0 127 0" result="hardAlpha"/>
<feOffset dy="4"/>
<feGaussianBlur stdDeviation="2"/>
<feComposite in2="hardAlpha" operator="arithmetic" k2="-1" k3="1"/>
<feColorMatrix type="matrix" values="0 0 0 0 1 0 0 0 0 0.940417 0 0 0 0 0.404167 0 0 0 0.25 0"/>
<feBlend mode="normal" in2="shape" result="effect1_innerShadow_10_95"/>
</filter>
<filter id="filter1_bdi_10_95" x="0" y="20" width="229" height="210" filterUnits="userSpaceOnUse" color-interpolation-filters="sRGB">
<feFlood flood-opacity="0" result="BackgroundImageFix"/>
<feGaussianBlur in="BackgroundImageFix" stdDeviation="10"/>
<feComposite in2="SourceAlpha" operator="in" result="effect1_backgroundBlur_10_95"/>
<feColorMatrix in="SourceAlpha" type="matrix" values="0 0 0 0 0 0 0 0 0 0 0 0 0 0 0 0 0 0 127 0" result="hardAlpha"/>
<feOffset dy="10"/>
<feGaussianBlur stdDeviation="20"/>
<feComposite in2="hardAlpha" operator="out"/>
<feColorMatrix type="matrix" values="0 0 0 0 0 0 0 0 0 0 0 0 0 0 0 0 0 0 0.1 0"/>
<feBlend mode="normal" in2="effect1_backgroundBlur_10_95" result="effect2_dropShadow_10_95"/>
<feBlend mode="normal" in="SourceGraphic" in2="effect2_dropShadow_10_95" result="shape"/>
<feColorMatrix in="SourceAlpha" type="matrix" values="0 0 0 0 0 0 0 0 0 0 0 0 0 0 0 0 0 0 127 0" result="hardAlpha"/>
<feOffset dy="4"/>
<feGaussianBlur stdDeviation="2"/>
<feComposite in2="hardAlpha" operator="arithmetic" k2="-1" k3="1"/>
<feColorMatrix type="matrix" values="0 0 0 0 1 0 0 0 0 1 0 0 0 0 1 0 0 0 0.5 0"/>
<feBlend mode="normal" in2="shape" result="effect3_innerShadow_10_95"/>
</filter>
<filter id="filter2_d_10_95" x="73" y="0" width="83" height="40" filterUnits="userSpaceOnUse" color-interpolation-filters="sRGB">
<feFlood flood-opacity="0" result="BackgroundImageFix"/>
<feColorMatrix in="SourceAlpha" type="matrix" values="0 0 0 0 0 0 0 0 0 0 0 0 0 0 0 0 0 0 127 0" result="hardAlpha"/>
<feOffset dy="4"/>
<feGaussianBlur stdDeviation="2"/>
<feComposite in2="hardAlpha" operator="out"/>
<feColorMatrix type="matrix" values="0 0 0 0 0 0 0 0 0 0 0 0 0 0 0 0 0 0 0.25 0"/>
<feBlend mode="normal" in2="BackgroundImageFix" result="effect1_dropShadow_10_95"/>
<feBlend mode="normal" in="SourceGraphic" in2="effect1_dropShadow_10_95" result="shape"/>
</filter>
<linearGradient id="paint0_linear_10_95" x1="79.5" y1="17" x2="114" y2="86.5" gradientUnits="userSpaceOnUse">
<stop stop-color="#FF7B24"/>
<stop offset="1" stop-color="#F1004F"/>
</linearGradient>
<linearGradient id="paint1_linear_10_95" x1="114.5" y1="50" x2="114.5" y2="180" gradientUnits="userSpaceOnUse">
<stop stop-color="white"/>
<stop offset="1" stop-color="white"/>
</linearGradient>
</defs>
</svg>
