<svg width="234" height="244" viewBox="0 0 234 244" fill="none" xmlns="http://www.w3.org/2000/svg">
<g filter="url(#filter0_d_10_107)">
<rect x="60" y="40" width="114" height="124" rx="24" fill="url(#paint0_linear_10_107)"/>
</g>
<g filter="url(#filter1_bi_10_107)">
<path d="M12 83C12 71.9543 20.9543 63 32 63H115C126.046 63 135 71.9543 135 83V180.398C135 195.323 119.242 204.99 105.937 198.226L83.8461 186.997C78.2729 184.164 71.6954 184.1 66.0682 186.824L40.715 199.098C27.4334 205.528 12 195.853 12 181.097V83Z" fill="url(#paint1_linear_10_107)" fill-opacity="0.5"/>
</g>
<g filter="url(#filter2_d_10_107)">
<path d="M56.6397 118.813C55.3141 118.813 54.2094 118.37 53.3256 117.485C52.4419 116.599 52 115.492 52 114.164C52 112.836 52.4419 111.757 53.3256 110.927C54.2094 110.097 55.3141 109.681 56.6397 109.681H90.3603C91.6859 109.681 92.7906 110.124 93.6744 111.01C94.5581 111.84 95 112.919 95 114.247C95 115.575 94.5581 116.682 93.6744 117.568C92.7906 118.398 91.6859 118.813 90.3603 118.813H56.6397ZM73.3757 135C71.8292 135 70.5311 134.502 69.4817 133.506C68.4875 132.51 67.9904 131.237 67.9904 129.687V97.3127C67.9904 95.7632 68.5151 94.4903 69.5645 93.4942C70.614 92.4981 71.912 92 73.4586 92C75.0604 92 76.3308 92.4981 77.2698 93.4942C78.264 94.4903 78.7611 95.7632 78.7611 97.3127V129.687C78.7611 131.237 78.264 132.51 77.2698 133.506C76.2755 134.502 74.9775 135 73.3757 135Z" fill="url(#paint2_linear_10_107)"/>
</g>
<defs>
<filter id="filter0_d_10_107" x="0" y="0" width="234" height="244" filterUnits="userSpaceOnUse" color-interpolation-filters="sRGB">
<feFlood flood-opacity="0" result="BackgroundImageFix"/>
<feColorMatrix in="SourceAlpha" type="matrix" values="0 0 0 0 0 0 0 0 0 0 0 0 0 0 0 0 0 0 127 0" result="hardAlpha"/>
<feOffset dy="20"/>
<feGaussianBlur stdDeviation="30"/>
<feComposite in2="hardAlpha" operator="out"/>
<feColorMatrix type="matrix" values="0 0 0 0 0.968627 0 0 0 0 0.415686 0 0 0 0 0.00392157 0 0 0 0.5 0"/>
<feBlend mode="normal" in2="BackgroundImageFix" result="effect1_dropShadow_10_107"/>
<feBlend mode="normal" in="SourceGraphic" in2="effect1_dropShadow_10_107" result="shape"/>
</filter>
<filter id="filter1_bi_10_107" x="-8" y="43" width="163" height="178.122" filterUnits="userSpaceOnUse" color-interpolation-filters="sRGB">
<feFlood flood-opacity="0" result="BackgroundImageFix"/>
<feGaussianBlur in="BackgroundImageFix" stdDeviation="10"/>
<feComposite in2="SourceAlpha" operator="in" result="effect1_backgroundBlur_10_107"/>
<feBlend mode="normal" in="SourceGraphic" in2="effect1_backgroundBlur_10_107" result="shape"/>
<feColorMatrix in="SourceAlpha" type="matrix" values="0 0 0 0 0 0 0 0 0 0 0 0 0 0 0 0 0 0 127 0" result="hardAlpha"/>
<feOffset dy="4"/>
<feGaussianBlur stdDeviation="2"/>
<feComposite in2="hardAlpha" operator="arithmetic" k2="-1" k3="1"/>
<feColorMatrix type="matrix" values="0 0 0 0 1 0 0 0 0 0.92025 0 0 0 0 0.6375 0 0 0 0.25 0"/>
<feBlend mode="normal" in2="shape" result="effect2_innerShadow_10_107"/>
</filter>
<filter id="filter2_d_10_107" x="48" y="92" width="51" height="51" filterUnits="userSpaceOnUse" color-interpolation-filters="sRGB">
<feFlood flood-opacity="0" result="BackgroundImageFix"/>
<feColorMatrix in="SourceAlpha" type="matrix" values="0 0 0 0 0 0 0 0 0 0 0 0 0 0 0 0 0 0 127 0" result="hardAlpha"/>
<feOffset dy="4"/>
<feGaussianBlur stdDeviation="2"/>
<feComposite in2="hardAlpha" operator="out"/>
<feColorMatrix type="matrix" values="0 0 0 0 0 0 0 0 0 0 0 0 0 0 0 0 0 0 0.1 0"/>
<feBlend mode="normal" in2="BackgroundImageFix" result="effect1_dropShadow_10_107"/>
<feBlend mode="normal" in="SourceGraphic" in2="effect1_dropShadow_10_107" result="shape"/>
</filter>
<linearGradient id="paint0_linear_10_107" x1="117" y1="40" x2="117" y2="164" gradientUnits="userSpaceOnUse">
<stop stop-color="#FC8700"/>
<stop offset="1" stop-color="#EF4101"/>
</linearGradient>
<linearGradient id="paint1_linear_10_107" x1="73.5" y1="63" x2="73.5" y2="213" gradientUnits="userSpaceOnUse">
<stop stop-color="#FFB648"/>
<stop offset="1" stop-color="#F7D047"/>
</linearGradient>
<linearGradient id="paint2_linear_10_107" x1="73.5" y1="92" x2="73.5" y2="135" gradientUnits="userSpaceOnUse">
<stop stop-color="white"/>
<stop offset="1" stop-color="#F8F8F8"/>
</linearGradient>
</defs>
</svg>
