<?xml version="1.0" encoding="UTF-8" standalone="no"?><!DOCTYPE svg PUBLIC "-//W3C//DTD SVG 1.1//EN" "http://www.w3.org/Graphics/SVG/1.1/DTD/svg11.dtd"><svg width="100%" height="100%" viewBox="0 0 443 273" version="1.1" xmlns="http://www.w3.org/2000/svg" xmlns:xlink="http://www.w3.org/1999/xlink" xml:space="preserve" xmlns:serif="http://www.serif.com/" style="fill-rule:evenodd;clip-rule:evenodd;stroke-linejoin:round;stroke-miterlimit:2;"><g transform="matrix(1,0,0,1,-151.401892,-2985.990651)"><g transform="matrix(0.9375,0,0,7.924769,-10.646099,1857.071874)"><g transform="matrix(1.030321,-0.03266,0.276074,0.121887,-1015.603956,-279.654587)"><g><path d="M204.19762,3744.27659c-2.35906,-4.45051 -7.65571,-7.00977 -12.45286,-5.18281c-7.01335,2.67103 -14.63091,15.98821 -15.56479,17.62085c-0.15568,0.2847 -1.69616,3.10192 -2.31401,3.33113l-0.57356,-0.01064l-0.20173,-0.26043c-0.20075,-0.59637 2.17697,-5.39999 2.40152,-5.85362c2.93175,-5.92289 10.12195,-20.6145 5.56745,-35.48856c-2.67751,-8.74397 -8.89771,-8.47138 -14.78208,-6.11356l-0.42748,0.18777c-0.93281,0.4097 -5.84421,2.56683 -9.07137,8.93841c-2.92859,5.61895 -5.53813,23.44834 -5.42594,31.04644c-0.48895,10.41 0.42236,16.24581 0.64025,17.64112c0.82372,5.16167 2.09554,8.44896 2.3685,9.15448c2.67833,6.92268 8.78517,13.07432 20.26892,8.99131c6.54435,-2.32671 16.3934,-9.30372 23.31332,-17.49799c3.84951,-4.66111 5.35246,-7.89758 5.70152,-8.64923c3.76804,-7.89113 2.23859,-13.39185 1.92468,-14.52085c-0.5244,-1.88606 -1.22656,-3.08493 -1.37232,-3.3338Z"/><path d="M254.04215,3704.3571c-0.29359,-0.48405 -2.78864,-4.59776 -5.39948,-4.57421c-2.70715,-0.15785 -4.84008,0.65962 -5.23588,0.81132l-2.45371,1.20113c-0.68964,0.38461 -6.09285,3.39791 -8.34506,5.27132l-0.70327,0.39926c-0.07472,0.02889 -0.70342,0.27196 -0.96681,-0.26089l-0.18394,-0.30889c-0.06162,-0.27025 -0.02589,-0.15695 0.72731,-1.29746c0.87114,-0.94581 0.92071,-0.68949 12.24867,-10.40767c0.59203,-0.49464 4.64043,-3.87713 3.56097,-8.96185c-0.04504,-0.21213 -0.25903,-1.22008 -1.10233,-2.47641c-3.36073,-3.90673 -10.00068,-1.07428 -10.79702,-0.73458c-11.8991,5.07594 -20.09342,13.10899 -21.08686,14.0565c-7.27826,6.71292 -7.76247,31.59628 -7.81741,34.41942c-0.03048,1.14029 -0.18346,6.86307 0.3543,14.25435c0.62362,8.29055 1.92466,12.79892 2.2365,13.87951c0.91048,3.15486 1.77874,4.3425 2.019,4.67114c3.93803,4.99669 9.0306,5.8786 9.94788,6.03745c3.59866,1.08904 8.55723,-0.1989 9.27611,-0.38562c7.15237,-1.85763 15.91125,-7.20356 21.45059,-13.6606c2.75189,-3.14074 4.00571,-6.3701 4.24219,-6.97919c1.99529,-4.94732 1.27879,-8.26304 1.12603,-8.96995c-0.08883,-0.41111 -0.53224,-2.46313 -2.31093,-4.7223c-3.72217,-4.93277 -12.26745,-2.31522 -13.29592,-2.00018c-3.83487,1.17473 -6.55101,2.77483 -7.08367,3.08863l-0.30723,0.09599c-0.73164,0.22871 -0.95566,-0.37041 -0.98604,-0.45168l-0.05559,-0.23625c-0.04925,-0.20936 -0.02248,-0.12318 0.83068,-1.15361c1.43458,-1.04102 14.09578,-10.22875 17.17051,-14.00242c3.13784,-3.7154 3.92458,-7.42028 4.07574,-8.13211c0.08886,-0.41845 0.57017,-2.68495 0.04157,-5.34712c-0.37465,-1.88684 -1.03158,-2.89904 -1.17693,-3.123Z"/><path d="M309.35819,3653.41722c-10.29388,6.88205 -14.18757,33.75513 -9.88378,64.95244c0.21018,1.26914 -0.26345,1.52159 -0.37834,1.58283l-0.20586,0.04718c-0.51493,0.11808 -0.87603,-0.88125 -0.91247,-0.98212c-0.91013,-2.1868 -19.67283,-53.24835 -37.20986,-46.05206c-3.88211,1.59305 -6.35817,5.50245 -6.74807,6.11805c-0.27568,0.41303 -1.82396,2.73271 -1.49257,6.02512l0.61375,5.23661c0.13162,0.65077 0.62764,3.10322 2.26975,7.98296c3.52426,10.55602 11.77571,23.72815 12.99806,25.67944c9.28381,15.13517 17.27732,21.8491 19.129,23.40437c1.15367,0.98742 9.83754,8.41987 17.49747,7.35824l0.91495,-0.12613c14.65672,-3.45936 18.29571,-33.94919 18.67848,-36.59929c1.50906,-10.80853 1.81243,-19.99322 1.87005,-21.7377c0.07534,-2.15908 0.54503,-15.61972 -1.00444,-26.98618c-0.76994,-5.648 -2.14718,-9.66872 -2.42613,-10.48308c-3.24846,-9.60102 -9.85512,-7.20468 -10.81832,-6.85531l-2.89166,1.43465Z"/><path d="M379.30094,3669.19058c-0.25067,-0.69879 -2.52496,-7.03887 -5.08159,-7.76491c-2.64298,-0.99838 -4.76372,-0.51399 -5.16813,-0.42162l-2.46376,0.91243c-0.7036,0.32432 -6.11022,2.8165 -8.44574,4.73886l-0.70956,0.34118c-0.70266,0.16888 -0.90533,-0.54075 -0.92997,-0.62703l-0.16216,-0.4698c-0.04509,-0.38492 -0.01555,-0.22208 0.78376,-1.5475c0.86205,-0.9828 0.93226,-0.76237 12.53647,-10.48203c2.94275,-2.38217 4.33466,-7.54505 3.98837,-10.77923c-0.03075,-0.28714 -0.17712,-1.65423 -0.91374,-3.49227c-2.97203,-5.8453 -9.52337,-3.93907 -10.36886,-3.69306c-12.40048,3.60835 -21.28923,12.6567 -21.31797,12.68399c-7.67604,7.00616 -9.69042,40.53696 -9.90749,44.15031c-0.10299,1.57564 -0.61266,9.37349 -0.55514,19.72975c0.01131,1.54824 0.08426,11.53919 1.30028,19.30984c0.68391,4.36998 1.46141,6.11654 1.6835,6.61544c3.50646,7.32338 8.49669,9.65906 9.5031,10.13011c3.50378,2.21843 8.56081,1.90566 9.31961,1.85872c7.21015,-0.44582 16.35182,-4.61943 22.32221,-11.59885c0.48569,-0.55413 2.92299,-3.33488 4.58851,-7.98631c2.22291,-5.98137 1.64274,-10.72273 1.52851,-11.65625c-0.07122,-0.5821 -0.42295,-3.4568 -2.09739,-7.02411c-2.08685,-4.62376 -6.56897,-7.35842 -13.12143,-6.47457c-3.85787,0.52045 -6.64216,1.94984 -7.1769,2.22436l-0.30953,0.04451c-0.73728,0.10621 -0.9328,-0.79701 -0.95501,-0.89959l-0.04317,-0.34013c-0.03809,-0.30032 0.01678,-0.21786 0.88138,-1.34822c9.49107,-6.58085 10.70652,-5.02369 17.65422,-14.30959c0.53495,-0.68579 3.26247,-4.18233 4.38041,-9.95046c0.11094,-0.57238 0.67804,-3.49832 0.27496,-7.28276c-0.2852,-2.67776 -0.88323,-4.23988 -1.01773,-4.59122Z"/><path d="M437.9059,3697.70543c-2.11042,-10.35936 -7.31505,-16.74459 -11.5328,-16.46778c-7.61962,0.50023 -16.18386,19.6536 -17.06901,21.47311c-0.17236,0.37145 -2.01426,4.34089 -2.6565,4.37533l-0.55534,-0.35078l-0.163,-0.56281c-0.1138,-1.08099 2.76689,-8.01938 3.04971,-8.70057c3.16936,-7.63393 12.08163,-29.57907 9.72449,-57.4655c-0.41206,-4.8751 -1.46931,-18.06607 -12.70465,-16.28581l-0.42089,0.08955c-5.86205,1.24977 -9.29483,8.1522 -9.7707,9.10906c-4.01672,7.86888 -8.74799,34.80163 -9.75564,48.14804c-1.97359,17.71563 -1.96178,28.11436 -1.95899,30.56454c0.02739,9.07993 0.75111,14.80879 0.91268,16.08771c0.57602,4.55927 2.73134,22.85539 18.5036,23.22912c6.59438,0.15637 17.38912,-3.76814 25.41835,-12.85677c0.64875,-0.75568 4.31202,-5.02273 6.6027,-10.55431c0.73698,-1.73083 4.5378,-10.65718 3.38318,-23.27039c-0.32501,-3.5507 -0.88983,-6.04377 -1.00717,-6.56173Z"/><path d="M493.20027,3711.49739l-1.49763,-16.93486l-0.54323,-9.59889c-0.10965,-1.65675 -0.2605,-3.93611 -1.53042,-20.69823c-0.99127,-13.08479 -1.88021,-19.76369 -2.10796,-21.47485c-0.16535,-1.24229 -1.31769,-9.89995 -3.77467,-15.20405c-3.19213,-6.91981 -8.14116,-10.49364 -11.63011,-10.29752c-16.7161,0.94007 -12.72045,45.07027 -12.18713,52.25083l0.56901,7.58165c0.77931,7.7237 1.826,14.24942 2.02382,15.48282c1.59392,9.93723 2.55205,14.53292 2.81391,15.78893c1.79661,7.97421 10.18259,46.87266 34.60871,51.42291c1.4697,0.27381 12.80592,2.95897 18.67766,-12.44733c2.2917,-6.01297 8.70818,-22.84857 6.49384,-80.17351l-0.10025,-2.10476c-0.2706,-5.71407 -1.72627,-43.72654 -18.75988,-47.48641c-0.8383,-0.03093 -6.36916,-0.23501 -9.6411,4.12343c-6.07814,7.97213 -5.06035,35.50811 -4.9453,38.62088c0.48393,12.80503 0.66702,12.70287 2.85172,43.97356l0.37343,6.7167c0.26957,3.76212 -0.15148,3.70972 -0.44521,3.67316c-0.86665,-0.10783 -1.21551,-2.94065 -1.24923,-3.21447Z"/><path d="M550.32027,3693.9373c2.98922,15.16987 9.92198,21.35338 14.12891,22.50573c5.37241,1.47174 8.76521,-4.02127 9.20001,-4.72522c3.27131,-5.05808 4.36114,-16.10603 4.50343,-17.54839c0.11015,-1.07141 0.63534,-6.17966 0.45206,-13.45558c-0.02069,-0.82151 -0.12595,-5.00137 -1.06817,-10.21648c-6.38974,-33.88111 -23.75684,-50.72496 -34.66056,-52.3053c-8.04168,-1.16526 -10.00932,5.88031 -10.42565,7.31266c-3.4622,12.70997 -3.7119,42.03866 -3.74313,45.70735c-0.17104,20.1114 0.84553,37.89562 1.03362,41.18618c0.83446,14.59705 2.04128,24.39386 2.30151,26.50638c0.08119,0.62099 2.8281,26.14553 10.85597,30.43656l1.50815,0.55736c7.32247,1.96306 7.29094,-21.65416 7.2883,-23.63264c0.0326,-16.00632 -2.04398,-41.5495 -3.31119,-50.07741l-0.33681,-2.99174c-0.00842,-0.19032 -0.0801,-1.81114 0.61278,-2.30117l0.40121,-0.15699c0.60305,0.13014 1.20202,2.92977 1.25956,3.1987Zm-1.75294,-50.84825c0.02967,-0.0936 0.31953,-1.00807 0.81137,-0.92101l0.53105,0.30677c10.13778,11.62991 11.8708,33.73603 12.11321,36.82807c0.00642,0.19 0.0829,2.45439 -0.74335,2.25705l-0.10339,-0.02468c-0.77572,-0.18503 -0.98605,-2.21882 -1.00768,-2.42801c-0.23267,-2.8024 -1.87607,-22.59691 -11.10841,-33.34912c-0.54812,-0.91135 -0.56954,-1.6741 -0.57384,-1.82726l0.08105,-0.8418Z"/><path d="M604.34998,3654.23203c0.00203,-2.3137 0.02191,-24.91791 -3.43746,-28.71625c-0.18968,-0.25629 -1.14059,-1.54115 -3.29058,-2.24885c-0.42616,-0.14026 -3.40833,-1.12176 -5.5937,0.4018c-6.3974,3.71144 -6.13288,60.19458 -6.39844,67.27923c-0.0287,8.83181 -0.53602,8.68508 -0.6517,17.53058l-0.04171,11.90528c0.05519,1.73884 0.60157,18.95368 6.07697,20.88013c12.74953,3.33986 13.29087,-79.98824 13.33663,-87.03191Zm-18.81192,128.79904c0.26117,0.63057 2.10637,5.08571 5.68068,6.3652l0.97093,0.21162c3.82252,0.51391 5.85826,-5.80417 5.62863,-12.57666c-0.02966,-0.8749 -0.20709,-6.10835 -2.219,-10.71514c-0.25511,-0.48479 -2.29948,-4.36969 -4.50015,-5.1614c-4.11421,-1.48002 -6.11227,6.29679 -6.30017,7.02813c-1.00808,3.92289 -0.86621,7.13475 -0.83866,7.75843c0.02564,0.58049 0.15874,3.59333 1.57774,7.08981Z"/></g></g></g></g></svg>