<?xml version="1.0" encoding="UTF-8" standalone="no"?><!DOCTYPE svg PUBLIC "-//W3C//DTD SVG 1.1//EN" "http://www.w3.org/Graphics/SVG/1.1/DTD/svg11.dtd"><svg width="100%" height="100%" viewBox="0 0 463 232" version="1.1" xmlns="http://www.w3.org/2000/svg" xmlns:xlink="http://www.w3.org/1999/xlink" xml:space="preserve" xmlns:serif="http://www.serif.com/" style="fill-rule:evenodd;clip-rule:evenodd;stroke-linejoin:round;stroke-miterlimit:2;"><g transform="matrix(1,0,0,1,-788.956007,-2264.767759)"><g transform="matrix(0.9375,0,0,7.924769,0,462.238669)"><g transform="matrix(1.030321,-0.03266,0.276074,0.121887,15.959491,13.404408)"><g transform="matrix(1,0,0,1,-47.81195,157.663601)"><path d="M397.02724,1833.31942c-1.14807,-1.07783 -8.90848,-8.3635 -19.14108,-4.59192c-3.68691,1.35897 -6.02018,3.73995 -6.45055,4.17911c-8.5732,8.76718 -2.08583,30.65963 -0.80352,36.21713c0.02669,0.09993 0.25374,0.95016 -0.48421,1.19878c-0.79759,0.26872 -0.65041,-0.00515 -1.09864,-0.6627c-0.50505,-0.71945 -8.42755,-23.21019 -21.27726,-22.0664c-0.2522,0.01321 -1.28673,0.06742 -3.06359,0.76141c-2.44969,0.95679 -5.7305,3.86372 -6.18001,4.262c-8.14358,9.27187 -0.90545,25.27018 -0.81545,28.77938c-0.00936,0.5566 -0.49432,0.73769 -0.56558,0.7643l-0.62076,-0.09956l-0.60648,-1.09897c-1.90083,-5.62096 -1.19104,-5.65241 -3.16196,-11.39169c-0.25708,-0.74858 -3.4724,-11.4274 -12.28316,-12.42245c-0.60489,-0.06046 -4.44876,-0.4447 -7.55383,0.82536c-11.0721,4.52885 -4.07059,22.42434 -3.35706,24.24807l1.68167,3.99455c0.33799,0.76011 1.69392,3.80944 5.17139,9.02119c3.9924,5.98358 7.62779,9.83106 8.37063,10.61724c4.49843,4.76096 8.83353,7.42606 9.68766,7.95116c7.95999,4.89366 14.44495,4.44527 18.15869,3.18165l2.39514,-1.01255c17.79344,-8.09719 1.28746,-31.96362 -3.0162,-38.79519c-0.4229,-0.88558 -0.77583,-0.89404 -0.01249,-1.5685l0.28412,-0.21426c0.605,-0.21675 1.27367,0.8698 1.34347,0.98323c1.08293,1.81615 8.67036,14.54072 15.90079,21.11352c2.11153,1.91948 10.98286,10.01313 22.37721,6.95042c0.65728,-0.17666 3.75767,-1.00997 7.74411,-3.52244c7.92408,-5.0987 8.99066,-17.05538 9.18249,-18.84326c0.19023,-1.98844 1.10792,-11.58073 -1.57848,-24.91908l-1.37037,-6.16282c-0.19833,-0.80207 -0.94334,-3.815 -3.57431,-9.68957c-0.31315,-0.69914 -2.33998,-5.22435 -5.28238,-7.98711Z"/><path d="M464.43664,1831.20355c-0.26668,-0.52199 -2.50969,-4.91249 -5.20069,-5.16133c-2.76372,-0.44029 -4.99273,0.16321 -5.41112,0.27649l-2.5865,0.9607c-0.72866,0.31753 -6.39701,2.78767 -8.85902,4.49797l-0.74288,0.33582c-0.07974,0.02242 -0.73476,0.20661 -0.9706,-0.36054l-0.16873,-0.3319c-0.04646,-0.28154 -0.01505,-0.16474 0.82219,-1.24499c0.94683,-0.87245 0.97511,-0.68528 13.16317,-9.25957c3.49803,-2.39067 4.47182,-6.63156 4.14521,-8.57744c-0.03665,-0.21833 -0.20843,-1.2415 -1.02434,-2.57074c-3.30947,-4.22223 -10.29279,-2.08852 -11.15779,-1.82423c-6.40078,1.95579 -14.59572,5.71668 -22.30171,11.96645c-7.4642,5.84003 -9.63754,31.60583 -9.87861,34.46381c-0.10756,1.17507 -0.64486,7.04501 -0.66206,14.73491c0.00017,1.15129 0.00125,8.6145 1.13822,14.3461c0.64468,3.24979 1.40133,4.49002 1.61383,4.83835c3.45235,5.21737 8.40937,6.36458 9.29662,6.56992c3.4223,1.2527 8.45264,0.27237 9.173,0.13199c7.20884,-1.40476 16.44896,-6.07794 22.6011,-11.99365c3.07623,-2.89935 4.65565,-5.97195 4.95625,-6.55675c2.51208,-4.73758 2.13021,-8.08024 2.04818,-8.79825c-0.04756,-0.41633 -0.28486,-2.49353 -1.85039,-4.90028c-3.28266,-5.28385 -12.10822,-3.36624 -13.16631,-3.13634c-3.96106,0.86071 -6.8223,2.25557 -7.38354,2.52917l-0.31672,0.07159c-0.75405,0.1706 -0.92881,-0.45809 -0.95229,-0.54257l-0.036,-0.24501c-0.03202,-0.21791 -0.01227,-0.12763 0.93163,-1.10252c9.8925,-6.05382 10.75763,-4.70655 18.48839,-12.65682c3.49519,-3.46867 4.58732,-7.11137 4.79799,-7.81403c0.12411,-0.41397 0.79554,-2.65347 0.46049,-5.38252c-0.23769,-1.93586 -0.83589,-3.02509 -0.96698,-3.26379Z"/><path d="M556.72857,1834.35709l0.3228,-0.02511c0.71792,-0.05565 0.86853,1.10327 0.88409,1.22299c0.57425,2.76264 4.19641,20.1883 10.38307,33.70818c2.11643,4.83519 4.73579,8.16774 5.24273,8.8127c0.6307,0.78109 5.08212,6.2939 10.68511,6.58113l2.46529,-0.09314c10.63548,-1.69635 11.98427,-16.10136 12.1451,-17.81899l0.25073,-3.97565c0.42751,-12.16507 -3.15436,-33.18536 -9.82418,-52.18364c-0.64707,-1.98648 -4.88664,-15.00172 -12.59768,-22.87579c-1.0602,-1.03384 -8.30932,-8.10271 -17.25725,-6.69492l-2.11661,0.4589c-17.58258,5.17858 -18.24746,30.52044 -17.51854,50.20984c0.00429,0.11579 0.03746,1.01218 -0.60157,1.31749l-0.21571,0.02396c-0.50262,0.05592 -0.76889,-0.90355 -0.79627,-1.00223c-1.27009,-6.21292 -7.98121,-45.0987 -29.0567,-41.43265l-1.11916,0.25918c-10.82272,2.51457 -14.13968,14.50903 -14.41697,15.37705c-0.65053,2.03659 -3.42016,10.70734 -2.64478,26.59333c1.41438,15.72046 2.25198,51.2443 20.77204,53.04094l3.28598,0.09532c3.18542,-0.19448 5.07525,-1.68541 5.4386,-1.97207c4.79027,-3.61432 4.43609,-13.09561 4.39144,-14.2908c-0.03418,-0.91501 -0.20802,-5.56847 -1.17939,-11.38465c-1.24036,-8.6791 -3.10937,-14.62664 -3.49906,-15.86669l-0.13738,-0.58041c-0.03797,-0.74298 0.39941,-1.18233 0.47534,-1.25861l0.31432,-0.19045c0.51585,-0.06636 0.88054,0.9767 0.91804,1.08398c1.67461,5.56487 7.27736,34.98662 18.44999,39.29897c0.34102,0.13567 1.86867,0.74343 4.53394,0.69998c5.19979,-0.08468 8.20442,-3.18826 8.73292,-3.73417c2.09336,-2.29489 2.88741,-6.59955 3.0008,-7.21426c0.21843,-1.2922 1.15958,-6.85988 1.08736,-16.34547c-0.01102,-1.44658 -0.08181,-10.73456 -1.30225,-18.03583l-0.11971,-0.63367c-0.00205,-0.10638 -0.01905,-0.9866 0.62349,-1.17475Z"/><path d="M667.1177,1849.88697l2.07425,-10.27825c0.19787,-1.14028 1.18879,-6.85061 1.59215,-14.37862c0.11483,-2.14366 0.83004,-15.49527 -2.44336,-26.72266c-0.76146,-2.56878 -7.35673,-24.81797 -22.5214,-24.78756c-4.66804,0.00947 -8.13642,2.47947 -8.73641,2.90675c-6.05143,4.46916 -26.27246,19.40299 -35.18286,87.20584c-0.11745,0.94684 -2.47442,15.89156 0.79593,19.70893c0.24287,0.26186 1.42068,1.53175 4.09998,1.76658c0.40036,0.0351 2.17962,0.19107 4.98603,-0.61449c14.78549,-4.82713 21.20435,-37.53894 25.22266,-52.7294c0.02329,-0.09917 0.25759,-1.09681 0.68594,-1.07281l0.31436,0.20314c0.524,0.33899 0.48881,1.21372 0.48427,1.32661l-0.13697,0.73359c-0.80354,3.12457 -6.36401,24.74662 -7.54717,39.61546c-0.0006,0.00848 -1.18733,9.29967 0.73515,12.62223c1.91388,3.30725 6.10056,3.89832 6.71943,3.98569c0.6152,0.08686 3.99451,0.564 7.73458,-0.70163c9.34711,-3.47279 17.797,-22.37017 21.12342,-38.7894Zm-21.25353,-56.78868c-4.77353,3.28778 -7.04602,9.68726 -7.39344,10.66561c-1.50047,5.33489 -1.97943,9.48566 -2.07599,10.32244c-0.0184,0.14673 -0.20441,1.6297 -0.90933,1.60939l-0.32508,-0.00927c-0.97428,-0.02746 -0.93886,-1.50448 -0.93521,-1.65663l0.00861,-0.36138c0.59959,-4.46805 2.45352,-17.62228 10.66915,-23.54152l0.66334,-0.31591c0.70995,0.00916 0.95268,0.88274 0.98256,0.99027l0.10177,0.82168c-0.01086,1.02277 -0.67086,1.40791 -0.78637,1.47532Z"/><path d="M705.51477,1893.64477c1.58592,1.81976 3.66583,3.0364 5.62257,3.55736c8.1289,2.1644 12.612,-7.20985 13.14931,-8.33338c2.61881,-5.3831 3.43846,-11.79297 3.57381,-12.85148c0.16583,-1.29708 0.93607,-7.32178 -0.4232,-16.33994c-2.20623,-15.14565 -10.17662,-22.92437 -17.02965,-24.2683l-1.37914,-0.26836c-0.9541,-0.18421 -0.84067,-1.63369 -0.82836,-1.79108c0.00981,-0.12538 0.11002,-1.4061 0.95998,-1.24487c16.45806,0.29246 26.16468,-23.41218 26.92224,-35.28303l0.09768,-3.33825c-0.00012,-0.49255 -0.00067,-2.86601 -1.42417,-5.98996c-1.65147,-3.29656 -4.40051,-3.82289 -4.89299,-3.91718c-5.31633,-1.01772 -11.35435,4.13839 -12.14946,4.81737c-9.31856,9.54254 -16.11287,26.14439 -17.12326,28.61328c-0.07204,0.14096 -0.83723,1.63824 -1.18513,1.58458l-0.30997,-0.24437c-0.06922,-0.05451 -0.41331,-0.32547 -0.36907,-1.03762l0.93111,-2.78644c0.84958,-2.28183 8.69997,-23.36656 8.91749,-29.09999c0.01605,-0.42337 1.04188,-8.17997 -6.81019,-9.13021c-17.56253,-2.12493 -23.53259,39.59831 -28.10929,58.81762c-0.65266,2.79734 -4.41754,18.93391 -6.39114,35.33245l-0.74357,5.5745c-0.08662,0.86868 -0.66557,6.67452 0.15685,10.91117c0.95832,4.93614 4.09825,7.83919 7.25209,9.19278l2.7638,0.93065c0.43665,0.09112 2.7385,0.57146 5.53545,-0.66873c6.21536,-2.86756 9.3263,-14.96263 9.70679,-16.44195c2.92267,-11.25454 5.70238,-37.842 6.04838,-41.15145c0.01028,-0.13279 0.12341,-1.5937 0.75891,-1.48188c0.63704,0.11211 0.53797,1.38101 0.52802,1.50848l-0.4302,5.37327c-0.18113,2.20672 -1.57889,19.23573 -0.91519,27.66166c0.15428,2.41255 0.66954,13.80624 7.58949,21.79333Z"/><path d="M789.84932,1839.43791c-0.07954,-0.93461 -0.76418,-8.97913 -3.09882,-11.30795c-2.33205,-2.64795 -4.4395,-3.37468 -4.89609,-3.53213l-2.58658,-0.48385c-0.73594,-0.06624 -6.46457,-0.5819 -9.23423,0.19982l-0.76293,-0.03758c-0.71631,-0.22424 -0.74925,-1.12598 -0.75349,-1.24212l-0.04908,-0.61683c0.04526,-0.46259 0.13003,-0.34632 1.10879,-1.25068c2.16485,-1.18088 2.2516,-0.90707 14.45778,-3.77865c3.06729,-0.6465 5.79581,-4.71749 6.18066,-8.55129c0.03183,-0.31713 0.17574,-1.75087 -0.16158,-3.98077c-1.6568,-7.36063 -8.30991,-9.56646 -9.34416,-9.90937c-6.96802,-2.31001 -14.64736,-3.27859 -23.28533,-0.42493c-8.44578,2.53089 -18.63262,40.99664 -19.63397,44.77775c-0.503,1.86411 -2.62117,9.71407 -5.77349,23.43399c-0.41955,1.83826 -3.26249,14.29468 -4.53547,23.12856c-0.76382,5.29932 -0.63182,7.37939 -0.59107,8.02156c0.10488,1.19673 0.80851,9.22585 5.29199,14.05312c2.3768,3.32558 7.30826,4.93277 8.03499,5.16961c7.00144,2.28194 17.54005,2.08712 25.523,-2.02c0.65968,-0.32899 4.03055,-2.01005 7.1152,-5.85508c4.09518,-4.97436 4.99287,-10.22617 5.15906,-11.19844c0.11302,-0.66133 0.64743,-3.78847 0.08372,-8.38601c-0.15045,-1.36783 -1.111,-10.10106 -10.71226,-13.45818c-3.85363,-1.34734 -6.88084,-1.11288 -7.48379,-1.06619l-0.30837,-0.1026c-0.73365,-0.24382 -0.66986,-1.35926 -0.66241,-1.48946l0.05314,-0.40663c0.04718,-0.36157 0.10336,-0.25952 1.21562,-1.08724c12.0806,-2.99619 12.78677,-1.16297 20.74255,-6.8553c0.71794,-0.486 4.2369,-2.86813 6.73893,-8.4871c0.26019,-0.58432 1.52634,-3.4278 2.05069,-7.72789c0.37088,-3.0419 0.16195,-5.08808 0.11702,-5.52815Z"/></g></g></g></g></svg>