<?xml version="1.0" encoding="UTF-8" standalone="no"?><!DOCTYPE svg PUBLIC "-//W3C//DTD SVG 1.1//EN" "http://www.w3.org/Graphics/SVG/1.1/DTD/svg11.dtd"><svg width="100%" height="100%" viewBox="0 0 494 367" version="1.1" xmlns="http://www.w3.org/2000/svg" xmlns:xlink="http://www.w3.org/1999/xlink" xml:space="preserve" xmlns:serif="http://www.serif.com/" style="fill-rule:evenodd;clip-rule:evenodd;stroke-linejoin:round;stroke-miterlimit:2;"><g transform="matrix(1,0,0,1,-133.089417,-1581.034511)"><g transform="matrix(0.9375,0,0,7.924769,0,462.238669)"><g transform="matrix(1.798005,-0.056994,0.481774,0.212704,-989.487818,-96.654406)"><g><g><path d="M326.52693,1318.74367c0.04269,-0.22701 0.31075,-1.65227 0.03225,-2.88715c-0.80836,-3.58431 -5.71446,-3.63608 -5.77459,-3.63967c-3.74234,-0.22331 -9.36438,1.04509 -15.27478,3.39618c-11.295,4.49304 -21.05528,11.86399 -19.05778,17.04751c1.45042,3.76384 4.98623,4.35766 8.68126,2.89923c3.79995,-1.49983 6.0994,-4.29146 6.51053,-4.79059c0.06258,-0.12001 0.18176,-0.23185 0.30772,-0.28068c0.15923,-0.06173 0.47588,0.06746 0.54185,0.275l0.01054,0.21146c0.46695,5.02168 1.71802,8.88668 2.34916,10.82434c0.36624,1.12439 0.40859,1.08881 0.7753,2.20072c1.32598,3.5215 4.18534,6.72232 8.21421,5.81415c5.89593,-1.89754 4.7155,-6.51387 3.47431,-11.64294c-0.12491,-0.64976 -0.4498,-1.85746 -0.49297,-2.01794c-0.93314,-3.46876 -2.3354,-6.86494 -3.91023,-9.64612l-0.10585,-0.18186c-0.10967,-0.40104 0.29994,-0.55245 0.3502,-0.57102c0.08132,-0.03006 0.13324,-0.03447 0.21809,-0.02532c0.54071,-0.00898 4.37947,-0.04108 7.52658,-1.14581c0.59281,-0.20809 4.89469,-1.61032 5.6242,-5.83946Z" style="fill-rule:nonzero;"/><path d="M354.01117,1298.47057c-0.18777,0.03112 -1.56145,0.25876 -2.32303,0.51387c-6.05214,2.02732 -8.34035,8.32846 -8.02731,18.23183c0.00036,0.06167 0.00325,0.54919 -0.38537,0.66765c-0.36258,0.11053 -0.43736,-0.36487 -0.4449,-0.41284c-0.06758,-0.5381 -0.50465,-4.01811 -0.87102,-6.72289l-0.16914,-0.98789c-0.44064,-2.54891 -1.14121,-5.6507 -5.84192,-4.79556c-0.08411,0.01905 -0.76973,0.17437 -1.04288,0.2729c-2.18523,0.78828 -3.45517,2.67531 -3.66647,2.98928c-1.63652,2.43177 -1.79496,4.97544 -1.82346,5.43302c-0.57217,4.08484 -0.23542,9.97415 -0.49437,13.97939c-0.01714,0.53114 -0.16932,3.21917 -0.19569,3.85685c-0.21634,3.33437 0.10708,5.89615 0.45891,7.35846c0.10648,0.44257 0.39925,2.43357 2.09028,3.80517c1.43187,1.06126 3.14626,1.39555 4.98352,0.93459c2.89613,-0.7266 5.61738,-3.36896 6.48452,-6.54658c1.04989,-3.02605 0.94512,-7.26463 0.9044,-8.98001c-0.00743,-0.25077 -0.1332,-1.46587 0.37503,-1.60303l0.10127,-0.02732c0.06047,-0.00463 0.46917,-0.03591 0.5559,0.51544c0.06651,0.42278 0.00719,1.21656 -0.00069,1.32202c-0.02799,1.28093 0.13171,3.36426 0.30637,4.38413c0.07854,0.45858 0.41194,1.83066 0.45047,1.98921c0.10969,0.3971 0.941,3.40668 2.93695,4.23002c0.24512,0.14053 1.34429,0.77071 3.51668,0.32719c0.25973,-0.05303 1.63215,-0.32339 2.86196,-1.23428c5.71052,-4.36177 3.52116,-15.98445 4.6993,-29.94685c0.19278,-2.28468 0.01431,-3.81792 -0.02406,-4.1475c-0.33647,-2.89041 -1.72972,-5.79777 -5.41527,-5.40628Z" style="fill-rule:nonzero;"/><path d="M386.31641,1303.25723c-0.09973,-0.27337 -0.91933,-2.69081 -2.25829,-2.89468c-0.2024,-0.04642 -1.29873,-0.29784 -2.59552,0.02501c-0.43026,0.10712 -1.17685,0.41284 -1.2772,0.45393c-2.13776,0.90306 -4.00275,1.90767 -4.42328,2.19616c-0.12677,0.08697 -0.21619,0.12238 -0.36877,0.16172c-0.22724,0.05859 -0.37862,0.02468 -0.44732,-0.21699l-0.0661,-0.18178c-0.00982,-0.1496 0.03577,-0.13364 0.44623,-0.64573c1.95033,-1.76586 4.82647,-3.33872 6.69729,-4.62668c1.80746,-1.20893 2.45919,-3.27106 2.39409,-4.42137c-0.0368,-0.65011 -0.31057,-1.24763 -0.35707,-1.34913c-0.9453,-1.5522 -3.22373,-1.67209 -5.22236,-1.10295c-4.17076,1.18771 -7.6993,3.00881 -11.22599,5.73658c-2.61833,1.95565 -4.81636,8.75292 -6.15941,18.07086c-0.32445,2.15529 -0.64999,4.98993 -0.84315,7.98404c-0.30149,4.83058 -0.00719,7.00758 0.08592,7.78063c0.02585,0.21462 0.2108,1.75027 0.63313,2.62692c1.14552,2.18106 2.80286,3.2592 4.2875,3.72624c1.56921,0.72848 3.58999,0.45508 4.40229,0.33449c3.53985,-0.52548 7.96056,-2.61648 11.13398,-5.68191c0.99091,-0.93808 1.88061,-2.10231 2.55465,-3.39464c1.33283,-2.48309 1.26613,-4.25161 1.24634,-4.72221c-0.05741,-1.36541 -0.62664,-2.5173 -0.72639,-2.71916c-0.86736,-1.84575 -2.96292,-2.66708 -6.19078,-2.05965c-1.92391,0.36206 -3.34227,1.04337 -3.61648,1.17509l-0.15381,0.03007c-0.09014,0.01764 -0.35802,0.11807 -0.43626,-0.32309l-0.0087,-0.13469c-0.00764,-0.11838 0.02989,-0.1026 0.48351,-0.5751c2.80928,-1.72 6.50698,-3.5229 9.29668,-6.41419c1.19403,-1.19531 2.09895,-2.67717 2.59879,-4.13925c0.5464,-1.59828 0.44334,-2.82101 0.44054,-2.91093c-0.00451,-0.14527 -0.03274,-1.05462 -0.32403,-1.78763Z" style="fill-rule:nonzero;"/><path d="M432.68293,1314.5075c0.21135,-0.54794 1.47484,-3.82354 1.68808,-7.14441c0.05215,-0.8122 0.51091,-6.39405 -3.22876,-6.95954c-0.21389,-0.04373 -1.17558,-0.24035 -2.72758,-0.08762c-6.92151,0.68114 -12.60967,7.54776 -15.37078,11.25172c-0.26335,0.34504 -0.65811,0.63236 -0.74023,0.6408c-0.161,0.01655 -0.27243,-0.07721 -0.3567,-0.2043c-0.04571,-0.06893 -0.0827,-0.14408 -0.11186,-0.22147c-0.01983,-0.05264 -0.03389,-0.16531 -0.03389,-0.16531c0.02316,-0.9581 2.67296,-4.03941 3.841,-5.39679c3.611,-4.20442 7.67853,-8.06694 11.16108,-11.58545c1.88602,-1.79856 3.49387,-4.83005 3.73657,-5.28764c0.19147,-0.36101 1.55412,-2.93014 1.6543,-4.8327c0.00271,-0.05152 0.02298,-0.43641 -0.02033,-0.64456c-0.16439,-2.50449 -1.52574,-4.21458 -5.668,-3.50831c-15.04495,2.56527 -26.85794,25.01425 -27.52614,40.90437c-0.04649,0.66097 -0.03696,1.64634 -0.03558,1.78953c0.0147,1.51995 0.15486,5.92644 2.58457,8.43545c2.02794,2.16166 4.95698,2.40867 6.87523,2.34377c8.58488,-0.29043 19.35221,-7.28286 24.279,-19.32753Z" style="fill-rule:nonzero;"/><path d="M440.1535,1282.45754c-1.12803,3.256 -2.19065,9.23382 -2.33506,10.0462c-1.353,7.52712 -2.54269,17.63263 -2.92425,23.49338c-0.04347,0.66771 -0.38539,4.93036 -0.18101,9.13129c0.03984,1.09875 0.19109,6.24127 2.15273,7.80339c0.10422,0.08811 1.71911,1.52329 3.35447,1.62439c2.15447,0.13321 3.02303,-2.28106 3.38167,-3.40237c0.76457,-2.39059 0.94073,-5.46522 1.00683,-6.27658c0.02351,-0.28858 0.17808,-2.18605 0.24406,-3.611c0.08301,-2.75483 0.0164,-7.05929 -0.1615,-9.9801c-0.01001,-0.1644 -0.10433,-1.71286 0.42139,-2.01528l0.10357,-0.00119c0.20744,-0.00234 0.42217,0.83511 0.44235,0.91378c0.67547,6.73738 1.82011,19.70115 4.92214,22.63968c0.8356,0.79278 1.75033,1.1455 2.46941,1.21519c2.66819,0.25862 4.68844,-2.35179 5.0486,-5.75151l0.0842,-0.79601c0.24557,-11.25459 -5.58494,-20.30589 -8.22464,-24.51719c-0.0304,-0.06391 -0.30901,-0.64964 -0.2929,-0.83481c0.00417,-0.04791 0.02441,-0.28056 0.20612,-0.56474c0.01717,-0.03756 0.17248,-0.37739 0.34743,-0.38176c0.14573,-0.00364 0.21772,0.19656 0.34249,0.27194c1.11933,1.50826 3.76284,5.34769 6.38037,5.39134c2.53202,0.04223 4.19508,-3.27258 5.39654,-6.8981c0.93258,-2.48078 1.38443,-4.65858 1.55022,-6.2204c0.02051,-0.19325 0.00441,-0.16946 0.15162,-2.42451c0.11044,-2.46968 -0.83111,-6.78305 -3.00391,-9.61931c-3.25748,-4.15881 -8.49878,-5.60097 -12.68882,-5.14504c-6.15699,0.66997 -7.78483,4.83662 -8.19409,5.90931Zm14.19083,10.93748l-0.22094,0.09938c-0.23283,0.0091 -0.47874,-0.49955 -0.50968,-0.7926c-0.16242,-0.85664 -0.56324,-2.54232 -1.70914,-4.04054c-1.66132,-2.19453 -3.4977,-2.1776 -4.30922,-2.10971l-0.26959,0.02267c-0.20219,0.01709 -0.45922,-0.28384 -0.42653,-0.69194c0.03142,-0.39234 0.34517,-0.75048 0.54463,-0.76816l0.27033,-0.02385c1.00722,-0.08845 3.09495,-0.14826 4.94121,2.33289c1.40981,1.87949 1.88007,4.01097 2.01965,4.69367c0.00867,0.04243 0.07285,0.35633 0.05587,0.53844c-0.0062,0.06649 -0.04596,0.49305 -0.38658,0.73976Z" style="fill-rule:nonzero;"/><path d="M490.51308,1295.0308c-0.03542,-0.51017 -0.23968,-4.18722 -1.42478,-5.01308c-0.23327,-0.19486 -1.15165,-0.9508 -2.41841,-1.02563c-0.42737,-0.02524 -1.19375,0.10062 -1.29652,0.1175c-2.02765,0.36788 -4.07214,1.00913 -4.64819,1.30803c-0.13568,0.0704 -0.22659,0.08648 -0.38277,0.0801c-0.38629,-0.01577 -0.36152,-0.39459 -0.36266,-0.4925l-0.01661,-0.28618c0.02815,-0.21983 0.06979,-0.18057 0.57418,-0.73624c2.24431,-1.70783 5.29832,-2.73223 7.35009,-3.75103c1.97399,-0.93549 3.08209,-3.47879 3.31555,-5.03058c0.13198,-0.87724 0.03719,-1.76768 0.02093,-1.92046c-0.49288,-2.57158 -2.73775,-3.4079 -4.47403,-3.45023c-4.2023,-0.10243 -7.87372,0.85136 -11.83742,3.09168c-4.91792,2.64346 -9.88272,21.42349 -10.40531,23.33745c-1.39463,5.02109 -2.46364,9.83404 -2.83922,11.54551c-1.57862,7.24266 -1.86254,10.35888 -1.97149,11.38276c-0.0332,0.31202 -0.27399,2.57499 -0.1173,3.9205c0.20647,1.45759 0.78504,4.54499 3.02789,6.46037c1.23703,1.40222 3.17292,1.74215 4.10508,1.87395c3.44073,0.48651 8.32631,-0.58455 12.251,-3.66293c1.8167,-1.39233 2.95582,-3.14776 3.32001,-3.72639c1.94428,-3.01712 2.27592,-5.63293 2.34602,-6.13386c0.27132,-1.93893 0.00141,-3.79165 -0.04608,-4.11764c-0.44094,-3.33876 -2.58695,-4.97616 -5.38889,-5.28246c-0.29631,-0.03239 -1.91308,-0.20912 -3.71156,0.32628l-0.15311,-0.01507c-0.28432,-0.02791 -0.35653,-0.19734 -0.3346,-0.63841l0.02461,-0.1999c0.02161,-0.17552 0.06631,-0.15044 0.59792,-0.65327c3.10469,-1.44016 7.00274,-2.62356 10.30569,-5.71004c1.18763,-1.06593 2.4684,-2.73874 3.39874,-4.93398c0.89029,-2.10072 1.06135,-3.84533 1.08137,-3.98856c0.02965,-0.21217 0.21195,-1.51691 0.10987,-2.67569Z" style="fill-rule:nonzero;"/><path d="M538.9769,1288.88492c-0.08715,-0.80641 -0.75051,-8.76243 -5.88846,-9.9488c-1.0422,-0.24064 -2.35314,-0.17845 -3.60249,0.37592c-5.63359,2.5088 -8.16174,16.89126 -10.54459,29.55945c-0.01437,0.0835 -0.17225,1.00116 -0.52676,0.91877c-0.25302,-0.0588 -0.23572,-1.00459 -0.23408,-1.09408c0.04426,-3.72718 3.50636,-23.89116 -1.75946,-27.70368c-0.50242,-0.40717 -1.25462,-0.51978 -1.37113,-0.53723c-1.69066,-0.2531 -3.38431,0.8233 -3.54739,0.89998c-6.18343,4.24975 -6.98796,19.09504 -8.70772,24.8771c-0.01594,0.04975 -0.16862,0.52638 -0.44161,0.48112c-0.15529,-0.02574 -0.19637,-0.24315 -0.20632,-0.36642c-0.03625,-0.44923 0.08001,-1.20753 0.09596,-1.31151c0.036,-0.2348 1.12751,-5.3437 2.17012,-11.93657c1.04461,-6.60541 1.16944,-12.12006 -1.03383,-14.71598c-0.11013,-0.12556 -1.43675,-1.72417 -3.11031,-1.85937c-3.71596,-0.30019 -6.63523,6.24002 -8.35206,18.32962c-0.05008,0.35265 0.00049,0.35414 -0.57106,4.41556c-0.5194,4.3433 -0.74906,9.941 -0.7846,10.80712c-0.05818,1.41811 -0.30798,7.52637 -0.01347,13.42377c0.05478,1.09685 0.29839,6.03567 1.40286,10.45361c0.33095,1.32378 1.8351,7.529 6.21654,8.59819c0.33434,0.08159 1.1333,0.15643 1.23234,0.16571c7.97937,0.74082 9.21642,-13.28432 10.08518,-34.2662c0.0117,-0.12438 0.12095,-1.28537 0.45225,-1.49472l0.17086,-0.07984c0.2938,0.05701 0.23283,1.39347 0.22724,1.51597c-0.41382,7.96104 -0.79517,18.54521 0.07486,25.95994c0.66777,5.69085 2.17543,11.61128 6.93987,13.09096c0.95459,0.29647 2.36979,0.48446 4.10734,0.19914c4.42442,-0.78841 7.41285,-7.55272 8.8989,-11.40444c2.53891,-6.71557 4.6327,-15.45138 6.07366,-22.97781c0.00246,-0.01287 0.53921,-2.78562 1.11959,-6.09663c0.66127,-3.78821 1.19032,-9.31505 1.24251,-9.84085c0.07611,-0.76679 0.53408,-5.20993 0.18526,-8.43781Z" style="fill-rule:nonzero;"/><path d="M553.52074,1295.78615c1.54532,-6.81155 2.22367,-10.71972 1.06319,-12.03755c-0.4305,-0.63189 -1.33532,-0.94203 -1.46931,-0.98795c-1.01888,-0.34922 -2.19222,-0.35457 -2.92199,-0.06316c-3.8716,1.26987 -8.29859,22.82009 -9.97901,29.11585c-0.27346,1.20236 -1.47056,5.22448 -2.12447,7.91761c-0.11098,0.42801 -0.83874,3.23465 -1.25875,5.38188c-0.37093,1.89631 -1.61875,8.5699 0.9237,9.48961c0.20683,0.05641 2.66004,1.41715 7.34903,-11.13851c4.07089,-10.90059 8.01641,-25.96034 8.41761,-27.67777Zm-23.57195,56.70598c0.27836,1.39471 1.27192,2.37885 2.11203,2.68518c0.13794,0.0503 0.32727,0.1198 0.48526,0.1179c2.33289,0.40809 4.05431,-2.57468 4.64721,-4.92158c0.07902,-0.31279 0.71565,-2.29771 0.12933,-4.63297c-0.01459,-0.04102 -0.61295,-1.91703 -1.75081,-2.33658c-1.93363,-0.71297 -3.91175,2.55602 -4.12046,2.90093c-0.99922,1.65121 -1.33121,2.97625 -1.40003,3.25093c-0.25275,1.00872 -0.26998,2.05095 -0.10254,2.93619Z" style="fill-rule:nonzero;"/></g></g></g></g></g></svg>