<?xml version="1.0" encoding="UTF-8" standalone="no"?><!DOCTYPE svg PUBLIC "-//W3C//DTD SVG 1.1//EN" "http://www.w3.org/Graphics/SVG/1.1/DTD/svg11.dtd"><svg width="100%" height="100%" viewBox="0 0 1095 210" version="1.1" xmlns="http://www.w3.org/2000/svg" xmlns:xlink="http://www.w3.org/1999/xlink" xml:space="preserve" xmlns:serif="http://www.serif.com/" style="fill-rule:evenodd;clip-rule:evenodd;stroke-linejoin:round;stroke-miterlimit:2;"><g id="Hero---CTA---Text" serif:id="Hero / CTA / Text"><path d="M65.091,125.223c-5.65,-2.534 -12.532,-3.337 -17.419,0.227c-1.551,1.131 -2.975,2.764 -3.925,4.882c-4.019,8.99 6.106,22.874 10.908,29.948c0.226,0.31 0.509,0.698 -0.034,1.094c-0.543,0.396 -0.882,-0.069 -1.13,-0.246c-1.921,-1.332 -14.462,-16.9 -24.664,-13.619c-0.79,0.22 -1.545,0.651 -2.321,1.217c-2.405,1.753 -3.474,4.197 -3.848,4.826c-4.187,10.063 6.067,20.051 7.845,24.933c0.092,0.289 -0.027,0.614 -0.26,0.784c-0.155,0.113 -0.367,0.149 -0.558,0.05c-0.191,-0.099 -0.495,-0.352 -0.834,-0.818c-0.283,-0.388 -2.193,-3.985 -5.983,-9.182c-3.394,-4.654 -8.192,-9.116 -13.958,-8.713c-2.576,0.215 -4.601,0.86 -6.075,1.935c-5.662,4.129 -2.05,13.971 3.946,22.193c0.283,0.388 1.152,1.417 2.51,3.279c1.435,1.805 3.669,4.216 6.855,7.12c3.187,2.904 6.55,5.56 10.11,7.836c3.56,2.275 7.148,3.936 10.685,5.04c7.075,2.207 12.96,1.48 17.072,-1.518c0.621,-0.453 1.185,-0.983 1.826,-1.569c12.753,-11.676 -6.097,-26.446 -14.434,-33.317c-0.474,-0.486 -0.855,-0.684 -0.482,-1.312c0.078,-0.057 0.099,-0.191 0.176,-0.247c0.31,-0.226 0.826,-0.008 1.433,0.499c5.391,4.623 12.668,10.366 20.133,13.596c7.464,3.23 15.286,4.18 21.879,-0.628c1.939,-1.414 3.751,-3.329 5.434,-5.745c3.389,-4.966 3.232,-11.862 0.985,-19.016c-2.324,-7.097 -6.193,-13.544 -9.643,-18.275c-0.622,-0.853 -1.584,-2.172 -3.132,-4.132c-1.492,-1.883 -3.576,-3.927 -6.099,-6.246c-2.523,-2.319 -4.882,-3.925 -7.001,-4.875Z" style="fill-rule:nonzero;"/><path d="M128.807,107.948c-2.138,-1.806 -4.001,-2.673 -5.584,-2.386c-1.628,0.202 -3.122,0.66 -4.483,1.372c-0.595,0.312 -1.316,0.798 -1.952,1.239c-2.924,2.073 -5.589,4.227 -6.431,5.102c-0.211,0.219 -0.381,0.308 -0.551,0.397c-0.425,0.223 -0.64,0.227 -0.903,-0.069c-0.045,-0.085 -0.174,-0.126 -0.219,-0.211c-0.178,-0.34 0.203,-0.648 0.409,-1.081c2.511,-3.482 5.937,-6.252 8.926,-9.443c2.527,-2.624 2.211,-5.71 1.41,-7.24c-0.356,-0.68 -0.883,-1.272 -1.494,-1.818c-2.786,-2.009 -6.852,-1.288 -9.828,0.271c-6.463,3.385 -11.157,7.252 -15.899,13.095c-3.612,4.276 -2.949,16.716 -0.751,28.569c0.721,4.066 1.652,7.913 2.664,11.501c2.069,7.261 3.713,10.193 4.292,11.298c0.891,1.701 1.773,2.972 2.604,3.73c2.924,2.479 6.297,3.746 10.03,3.633c2.624,0.251 5.313,-0.615 8.29,-2.174c6.463,-3.385 12.862,-10.204 16.515,-16.885c1.288,-2.3 2.062,-4.547 2.45,-6.702c0.822,-4.224 -0.162,-6.309 -0.607,-7.16c-0.624,-1.191 -1.543,-2.118 -2.847,-2.952c-3.175,-2.13 -7.957,-0.709 -12.039,1.429c-2.296,1.203 -4.289,2.571 -5.726,3.758c-0.085,0.045 -0.17,0.089 -0.255,0.134c-0.17,0.089 -0.551,0.397 -0.948,-0.154c-0.045,-0.085 -0.045,-0.085 -0.089,-0.17c-0.178,-0.34 0.247,-0.563 0.539,-1.041c4.511,-4.422 9.46,-8.422 12.753,-13.723c1.377,-2.13 2.151,-4.377 2.195,-6.568c0.045,-2.191 -0.664,-3.337 -0.887,-3.762c-0.356,-0.68 -0.842,-1.401 -1.583,-1.988Z" style="fill-rule:nonzero;"/><path d="M160.659,78.089c-1.199,2.513 -1.644,9.156 -1.465,16.896c0.326,11.897 2.397,26.211 5.443,34.194c0.034,0.09 0.432,0.863 1.014,2.387c0.582,1.525 1.578,2.789 2.988,3.792c3.261,2.352 7.058,2.342 11.095,0.802c13.364,-5.099 28.138,-26.97 29.468,-42.068c0.492,-6.25 -0.762,-11.423 -2.028,-14.741c-0.479,-1.256 -1.185,-2.836 -2.241,-4.796c-1.056,-1.96 -2.809,-3.86 -5.257,-5.7c-2.449,-1.84 -5.354,-2.992 -8.806,-3.422c-5.037,-0.544 -11.538,0.19 -17.638,2.517c-5.471,2.088 -10.318,5.273 -12.571,10.139Zm19.61,27.967c-1.58,-7.103 0.501,-14.576 5.629,-19.718c0.145,-0.158 0.325,-0.227 0.504,-0.295c0.09,-0.034 0.538,-0.205 0.978,0.14c0.158,0.145 0.192,0.235 0.261,0.414c0.137,0.359 0.06,0.696 -0.32,1.047c-4.949,5.073 -6.599,11.251 -5.211,18.12c0.081,0.483 -0.119,0.765 -0.478,0.902c-0.09,0.034 -0.179,0.068 -0.269,0.103c-0.572,0.116 -0.854,-0.085 -0.991,-0.444c-0.034,-0.09 -0.068,-0.179 -0.103,-0.269Z" style="fill-rule:nonzero;"/><path d="M255.753,61.752c-1.766,-2.172 -3.435,-3.369 -5.045,-3.38c-1.637,-0.103 -3.19,0.069 -4.66,0.517c-0.643,0.196 -1.441,0.54 -2.148,0.855c-3.258,1.495 -6.276,3.117 -7.266,3.82c-0.248,0.176 -0.431,0.232 -0.615,0.288c-0.459,0.14 -0.671,0.104 -0.875,-0.235c-0.028,-0.092 -0.148,-0.156 -0.176,-0.248c-0.112,-0.367 0.319,-0.599 0.603,-0.987c3.113,-2.956 6.994,-5.042 10.523,-7.623c2.97,-2.11 3.232,-5.2 2.729,-6.853c-0.224,-0.735 -0.631,-1.413 -1.131,-2.064c-2.365,-2.491 -6.494,-2.537 -9.708,-1.557c-6.979,2.127 -12.309,5.056 -18.053,9.918c-4.343,3.532 -5.999,15.879 -6.039,27.934c-0.046,4.129 0.155,8.082 0.484,11.795c0.686,7.519 1.757,10.705 2.121,11.899c0.56,1.837 1.191,3.25 1.866,4.148c2.413,2.978 5.492,4.849 9.182,5.431c2.532,0.734 5.335,0.381 8.549,-0.598c6.979,-2.127 14.532,-7.64 19.361,-13.528c1.692,-2.021 2.869,-4.086 3.651,-6.131c1.592,-3.998 1.012,-6.23 0.732,-7.148c-0.392,-1.286 -1.123,-2.367 -2.249,-3.429c-2.724,-2.682 -7.688,-2.173 -12.095,-0.83c-2.479,0.756 -4.691,1.731 -6.324,2.63c-0.092,0.028 -0.184,0.056 -0.275,0.084c-0.184,0.056 -0.615,0.288 -0.903,-0.327c-0.028,-0.092 -0.028,-0.092 -0.056,-0.184c-0.112,-0.367 0.347,-0.507 0.722,-0.923c5.254,-3.508 10.859,-6.521 15.077,-11.119c1.748,-1.837 2.925,-3.902 3.376,-6.047c0.45,-2.144 -0.033,-3.402 -0.173,-3.861c-0.224,-0.735 -0.568,-1.533 -1.187,-2.248Z" style="fill-rule:nonzero;"/><path d="M322.287,49.193c-0.038,-0.583 -0.077,-1.165 -0.23,-1.82c-0.549,-2.336 -2.489,-5.135 -5.896,-7.884c-3.501,-2.727 -7.827,-4.768 -11.163,-5.956c-6.722,-2.167 -12.373,-2.713 -17.139,-1.593c-2.897,0.681 -5.525,2.088 -7.697,4.176c-5.19,4.77 -6.77,12.735 -5.386,18.622c0.044,0.187 0.11,0.467 0.154,0.654c3.801,12.814 17.998,18.254 20.873,19.156c0.324,0.121 0.462,0.286 0.484,0.379c0.044,0.187 0.066,0.28 -0.006,0.396c-0.071,0.115 -0.143,0.231 -0.33,0.275c-0.093,0.022 -0.605,-0.055 -0.907,-0.083c-7.778,-1.623 -15.328,-11.091 -25.795,-8.631c-1.028,0.242 -2.127,0.599 -3.183,1.143c-3.92,2.203 -5.592,6.837 -5.549,10.377c-0.011,0.792 0.165,1.539 0.318,2.193c0.769,3.271 3.511,6.965 8.589,10.111c5.007,3.261 11.24,5.445 16.511,6.474c5.04,0.886 10.933,0.783 16.54,-0.535c10.093,-2.372 18.774,-8.653 16.996,-19.576c-0.066,-0.28 -0.11,-0.467 -0.176,-0.748c-1.01,-4.299 -5.396,-8.692 -11.469,-12.294c-5.864,-3.552 -12.51,-6.231 -16.72,-8.2c-0.44,-0.192 -0.693,-0.429 -0.736,-0.616c-0.066,-0.28 0.198,-0.835 0.572,-0.923c0.187,-0.044 0.396,0.006 0.627,0.149c4.672,2.255 12.163,6.017 17.655,6.304c1.418,0.16 2.77,0.039 4.172,-0.29c5.607,-1.318 9.071,-5.88 8.891,-11.261Z" style="fill-rule:nonzero;"/><path d="M353.773,54.713c-0.19,-1.039 -0.702,-4.361 -0.979,-5.872c-0.537,-2.927 -1.333,-7.271 -3.334,-12.858c-2.957,-8.144 -7.923,-15.53 -15.571,-14.127c-1.228,0.225 -2.42,0.639 -3.673,1.259c-6.676,2.981 -4.767,10.732 -3.646,31.217c0.661,11.591 1.28,17.626 1.99,21.498c0.277,1.511 0.683,3.193 1.236,5.141c1.122,3.991 3.746,7.121 8.177,7.87c2.422,0.434 4.457,0.354 6.251,0.025c15.108,-2.77 10.64,-28.205 9.549,-34.154Z" style="fill-rule:nonzero;"/><path d="M407.283,63.497c0.013,0.095 0.025,0.19 0.051,0.381c0.648,4.853 4.118,6.908 7.925,6.4c3.426,-0.457 7.13,-3.179 8.817,-7.957c0.85,-2.341 1.154,-4.416 1.008,-6.236c-0.146,-1.821 -0.286,-2.867 -0.311,-3.058c-0.432,-3.235 -1.676,-6.75 -3.662,-10.746c-4.125,-7.682 -9.214,-13.879 -18.539,-12.634c-9.135,1.22 -17.114,9.645 -20.5,17.652c-0.247,0.324 -0.317,0.527 -0.507,0.552c-0.095,0.013 -0.285,0.038 -0.393,-0.044c-0.203,-0.07 -0.311,-0.152 -0.336,-0.343c-0.038,-0.285 0.089,-0.787 0.285,-1.491c0.85,-2.341 2.27,-4.758 3.837,-6.808c3.92,-5.463 12.54,-9.81 14.627,-13.769c0.843,-1.662 1.129,-3.153 0.951,-4.485c-0.114,-0.856 -0.502,-3.032 -3.471,-4.96c-2.969,-1.928 -7.416,-2.593 -10.557,-2.174c-9.896,1.321 -17.343,6.48 -22.309,13.535c-2.531,3.534 -4.332,7.455 -5.619,11.597c-2.454,8.463 -2.148,15.105 -1.564,19.482c0.508,3.806 1.511,9.871 6.061,15.656c4.549,5.785 11.294,9.146 20.143,7.965c2.189,-0.292 4.352,-0.775 6.667,-1.568c18.904,-6.398 15.698,-19.529 13.811,-35.839l-0.216,-1.618c-0.064,-0.476 0.089,-0.787 0.564,-0.85c0.476,-0.064 0.799,0.184 0.863,0.66l2.376,20.7Z" style="fill-rule:nonzero;"/><path d="M456.336,53.263c5.431,9.556 12.452,19.874 24.81,19.07c6.418,-0.417 12.854,-3.529 17.135,-8.714c4.997,-6.001 5.884,-13.081 5.466,-19.5c-0.012,-0.192 -0.081,-1.245 -0.199,-3.066c-0.214,-1.814 -0.766,-4.376 -1.642,-7.493c-0.876,-3.118 -1.715,-5.661 -2.427,-7.731c-2.321,-6.102 -9.352,-25.463 -20.61,-25.5c-0.575,0.037 -1.06,-0.027 -1.635,0.01c-3.066,0.199 -5.506,1.128 -7.329,2.689c-3.651,3.027 -4.298,7.879 -4.011,12.286c0.118,1.82 0.692,6.208 2.559,12.725c1.867,6.517 4.283,12.613 5.395,16.389c0.139,0.664 0.266,1.137 -0.206,1.264c-0.096,0.006 -0.096,0.006 -0.192,0.012c-0.287,0.019 -0.606,-0.442 -0.727,-0.819c-3.986,-10.997 -9.341,-28.253 -22.381,-32.023c-2.349,-0.617 -4.481,-0.863 -6.397,-0.738c-7.951,0.517 -12.834,6.799 -15.268,15.231c-2.53,8.438 -1.967,15.617 -1.749,18.969c0.206,3.161 0.717,6.591 1.445,10.392c0.818,3.699 2.21,7.36 4.069,10.799c1.859,3.439 4.129,5.792 6.802,6.965c2.668,1.077 5.387,1.478 8.07,1.303c4.119,-0.268 7.768,-1.852 9.42,-4.557c1.121,-1.997 0.798,-3.996 0.78,-4.284c-0.187,-2.874 -1.1,-6.566 -2.518,-10.611c-2.117,-5.923 -4.91,-11.898 -6.055,-14.71c-0.006,-0.096 -0.114,-0.281 -0.121,-0.377c-0.006,-0.096 -0.121,-0.377 0.531,-0.708c0.096,-0.006 0.192,-0.012 0.192,-0.012c0.287,-0.019 0.587,0.154 0.804,0.525c2.088,4.001 3.709,8.225 5.989,12.213Z" style="fill-rule:nonzero;"/><path d="M589.232,46.975c1.677,-2.951 2.391,-5.724 2.422,-7.74c0.022,-1.44 0.009,-6.913 -6.6,-7.973c-1.627,-0.313 -3.354,-0.435 -4.986,-0.46c-10.271,-0.156 -19.458,4.218 -27.622,10.719c-0.486,0.377 -1.162,0.654 -1.354,0.652c-0.288,-0.004 -0.478,-0.103 -0.668,-0.298c-0.284,-0.292 -0.281,-0.484 -0.281,-0.484c0.01,-0.672 1.278,-1.997 6.904,-5.752c6.596,-4.413 12.788,-7.583 19.666,-11.607c2.227,-1.214 4.564,-3.387 6.327,-5.665c1.763,-2.278 2.563,-4.378 2.584,-5.818c0.004,-0.288 0.009,-0.576 -0.083,-0.865c-0.692,-5.003 -5.279,-6.417 -10.175,-6.491c-22.653,-0.343 -47.32,24.438 -49.185,46.204c-0.109,0.862 -0.121,1.63 -0.132,2.398c-0.076,4.991 1.294,9.621 4.512,12.742c3.216,3.217 7.803,4.631 13.178,4.712c15.934,0.241 37.616,-11.336 45.493,-24.274Z" style="fill-rule:nonzero;"/><path d="M597.965,66.961c5.333,4.723 11.033,7.066 16.777,7.487c9.287,0.681 18.932,-3.521 26.817,-9.969c3.994,-3.269 7.441,-6.962 10.445,-11.17c5.912,-8.422 7.985,-15.682 8.378,-21.044c0.105,-1.436 -0.027,-3.564 -0.214,-6.272c-0.282,-2.716 -1.809,-5.523 -4.58,-8.422c-6.799,-7.044 -13.872,-10.354 -20.765,-10.86c-9.67,-0.709 -18.872,4.006 -26.231,11.167c-3.735,3.673 -6.923,7.77 -9.565,12.293c-5.298,9.237 -6.268,15.904 -6.556,19.83c-0.176,2.394 -0.092,5.191 0.449,8.311c0.438,3.209 2.157,6.03 5.045,8.648Zm38.484,-37.798c0.294,-0.075 0.589,-0.149 0.78,-0.135c0.287,0.021 0.472,0.131 0.642,0.432c0.089,0.103 0.075,0.294 0.068,0.39c-0.021,0.287 -0.241,0.656 -0.645,0.915c-9.44,4.024 -15.242,12.262 -18.98,21.228c-0.227,0.465 -0.535,0.731 -0.918,0.703c-0.096,-0.007 -0.096,-0.007 -0.191,-0.014c-0.376,-0.124 -0.546,-0.425 -0.518,-0.808c0.007,-0.096 0.021,-0.287 0.131,-0.472c3.698,-9.74 10.103,-18.318 19.631,-22.24Z" style="fill-rule:nonzero;"/><path d="M663.608,72.149c5.036,5.038 10.583,7.724 16.291,8.494c9.228,1.245 19.111,-2.363 27.374,-8.32c4.185,-3.02 7.851,-6.497 11.105,-10.514c6.413,-8.047 8.923,-15.167 9.642,-20.495c0.192,-1.427 0.189,-3.559 0.168,-6.274c-0.116,-2.728 -1.47,-5.623 -4.06,-8.685c-6.358,-7.445 -13.216,-11.179 -20.066,-12.103c-9.609,-1.296 -19.08,2.851 -26.862,9.551c-3.951,3.439 -7.383,7.335 -10.295,11.689c-5.85,8.898 -7.224,15.494 -7.75,19.394c-0.321,2.378 -0.407,5.176 -0.057,8.323c0.243,3.229 1.786,6.15 4.51,8.939Zm40.711,-35.388c0.298,-0.057 0.596,-0.113 0.787,-0.088c0.285,0.038 0.463,0.159 0.615,0.47c0.082,0.108 0.057,0.298 0.044,0.393c-0.038,0.285 -0.28,0.64 -0.699,0.874c-9.667,3.443 -15.959,11.312 -20.235,20.035c-0.254,0.45 -0.578,0.697 -0.959,0.646c-0.095,-0.013 -0.095,-0.013 -0.19,-0.026c-0.368,-0.146 -0.52,-0.458 -0.468,-0.838c0.013,-0.095 0.038,-0.285 0.159,-0.463c4.284,-9.497 11.198,-17.67 20.947,-21.005Z" style="fill-rule:nonzero;"/><path d="M775.724,66.617c-0.145,-4.329 -3.133,-8.619 -7.658,-9.489c-6.222,-1.197 -14.453,3.477 -19.196,6.28c-2.774,1.715 -2.944,1.584 -3.227,1.53c-0.189,-0.036 -0.359,-0.167 -0.435,-0.279c-0.076,-0.112 -0.058,-0.207 -0.04,-0.301c0.091,-0.471 0.896,-1.099 4.38,-3.459c9.33,-6.32 16.509,-13.151 18.739,-24.746c1.251,-6.505 -0.721,-10.99 -7.926,-12.669c-0.094,-0.018 -0.283,-0.054 -0.377,-0.073c-2.357,-0.453 -5.765,-0.522 -10.167,2.541c-4.833,3.274 -14.489,16.374 -17.63,22.027c-2.382,3.745 -5.544,9.003 -7.763,14.442c-2.237,5.533 -2.593,8.397 -2.629,8.586c-1.523,7.919 0.772,15.301 11.33,17.332c6.882,1.324 17.64,-0.224 26.745,-3.85c3.078,-1.265 5.892,-2.679 8.289,-4.467c4.775,-3.481 6.781,-7.299 7.361,-10.315c0.181,-0.943 0.286,-1.998 0.203,-3.089Z" style="fill-rule:nonzero;"/><path d="M866.531,76.968c0.25,-0.527 0.501,-1.055 0.685,-1.701c0.659,-2.308 0.329,-5.697 -1.307,-9.758c-1.728,-4.088 -4.511,-7.977 -6.845,-10.641c-4.814,-5.169 -9.482,-8.399 -14.19,-9.743c-2.862,-0.817 -5.842,-0.87 -8.756,-0.104c-6.857,1.636 -12.118,7.821 -13.778,13.637c-0.053,0.185 -0.132,0.462 -0.185,0.646c-2.926,13.042 6.821,24.711 8.891,26.9c0.224,0.264 0.264,0.475 0.237,0.567c-0.053,0.185 -0.079,0.277 -0.198,0.343c-0.119,0.066 -0.237,0.132 -0.422,0.079c-0.092,-0.026 -0.501,-0.343 -0.752,-0.514c-6.001,-5.208 -7.98,-17.155 -18.319,-20.107c-1.015,-0.29 -2.149,-0.514 -3.336,-0.553c-4.497,0.014 -8.215,3.245 -9.902,6.357c-0.396,0.686 -0.606,1.424 -0.791,2.07c-0.923,3.231 -0.329,7.793 2.573,13.015c2.783,5.287 7.162,10.232 11.263,13.699c3.97,3.23 9.165,6.012 14.704,7.594c9.969,2.847 20.611,1.593 24.381,-8.812c0.079,-0.277 0.132,-0.462 0.211,-0.738c1.213,-4.246 -0.476,-10.22 -4.024,-16.325c-3.39,-5.96 -7.887,-11.537 -10.604,-15.308c-0.29,-0.382 -0.396,-0.712 -0.343,-0.897c0.079,-0.277 0.58,-0.633 0.949,-0.528c0.185,0.053 0.343,0.198 0.475,0.435c2.981,4.246 7.689,11.181 12.344,14.108c1.161,0.831 2.4,1.384 3.785,1.78c5.539,1.582 10.787,-0.713 13.252,-5.5Z" style="fill-rule:nonzero;"/><path d="M943.101,99.656c1.344,-1.331 2.295,-2.711 2.853,-4.142c1.047,-2.683 1.027,-7.122 -3.868,-12.536c-4.895,-5.414 -13.548,-10.439 -22.938,-14.103c-18.602,-7.259 -40.207,-9.197 -44.255,1.177c-3.071,7.87 1.287,13.074 7.548,15.517c4.293,1.675 9.467,2.148 14.255,1.234c0.249,-0.109 0.552,-0.094 0.731,-0.024c0.268,0.105 0.576,0.637 0.401,1.084c-0.07,0.179 -0.194,0.233 -0.229,0.323c-4.91,7.565 -7.477,13.88 -9.396,18.798c-0.558,1.431 -0.992,2.807 -1.551,4.238c-2.349,6.812 -2.453,15.531 4.69,19.143c11.09,4.327 15.061,-4.531 18.924,-13.638c0.543,-1.128 1.032,-2.38 1.485,-3.542c2.268,-5.813 3.891,-12.084 4.798,-18.635c0.07,-0.179 0.015,-0.303 0.05,-0.393c0.174,-0.447 0.637,-0.576 1.084,-0.401c0.089,0.035 0.179,0.07 0.323,0.229c4.31,3.743 8.234,6.099 11.543,7.39c6.081,2.373 10.636,1.265 13.552,-1.719Z" style="fill-rule:nonzero;"/><path d="M963.367,137.768c0.765,-1.875 1.794,-4.046 3.085,-6.512c0.445,-0.85 1.154,-1.996 1.956,-3.527c1.203,-2.296 2.498,-4.977 3.883,-7.828c1.385,-2.851 2.684,-5.746 3.729,-8.776c1.045,-3.029 1.352,-5.686 1.048,-7.795c-0.531,-3.746 -2.811,-8.083 -6.213,-9.864c-10.545,-5.523 -19.397,6.205 -24.385,15.73c-0.223,0.425 -0.713,1.361 -1.559,2.977c-0.761,1.66 -1.615,3.705 -2.482,6.394c-0.866,2.689 -1.555,5.038 -1.976,6.876c-2.757,14.161 1.111,27.674 14.293,34.578c19.645,10.288 37.87,-8.993 46.673,-24.973c0.134,-0.255 0.267,-0.51 0.401,-0.765c4.053,-7.739 6.077,-19.466 -3.675,-26.091c-1.446,-0.757 -4.758,-2.709 -9.022,-2.016c-5.426,0.843 -10.212,6.464 -14.16,13.174c-4.081,6.965 -7.304,13.947 -8.596,16.413c-0.49,0.935 -1.02,1.741 -1.421,2.507c-0.178,0.34 -0.672,1.49 -1.352,1.134c-0.425,-0.223 -0.543,-0.826 -0.227,-1.636Z" style="fill-rule:nonzero;"/><path d="M1040.712,168.54c1.389,-1.032 2.566,-2.092 3.263,-3.127c0.322,-0.478 0.645,-1.302 0.996,-2.338c0.835,-2.1 -0.056,-5.246 -2.386,-7.972c-3.47,-3.957 -8.753,-7.283 -11.166,-9.371c-0.583,-0.509 -0.475,-1.014 -0.26,-1.333c0.268,-0.398 0.694,-0.343 1.251,0.032c1.831,1.233 5.597,4.579 9.18,6.992c2.309,1.555 4.487,2.79 6.032,2.557c2.051,-0.124 3.947,-1.393 4.698,-2.508c0.268,-0.398 0.403,-0.77 0.591,-1.222c2.153,-4.916 -6.303,-13.156 -9.725,-15.808c-0.424,-0.401 -0.982,-0.777 -1.459,-1.098c-2.548,-1.716 -9.616,-4.97 -14.222,-4.832c-9.906,0.274 -33.269,25.859 -39.06,34.459c-3.193,5.257 -4.078,12.415 0.939,15.794c0.956,0.643 2.044,1.261 3.614,1.508c6.996,1.47 15.476,-7.17 19.605,-13.302c0.322,-0.478 0.912,-1.354 1.69,-2.681c1.636,-2.602 3.469,-7.386 3.67,-10.607c0.028,-0.213 0.055,-0.426 0.162,-0.585c0.214,-0.319 0.614,-0.397 0.933,-0.182c0.159,0.107 0.265,0.294 0.371,0.481c1.737,4.295 6.018,11.344 11.114,14.776c3.265,2.198 6.776,2.827 10.169,0.367Z" style="fill-rule:nonzero;"/><path d="M1079.292,201.334c1.503,-0.858 2.798,-1.769 3.614,-2.713c0.377,-0.436 0.797,-1.215 1.269,-2.202c1.081,-1.984 0.574,-5.214 -1.413,-8.201c-2.97,-4.344 -7.816,-8.28 -9.961,-10.642c-0.518,-0.575 -0.35,-1.064 -0.098,-1.354c0.314,-0.363 0.73,-0.257 1.238,0.182c1.67,1.444 5.007,5.217 8.275,8.043c2.106,1.821 4.12,3.308 5.682,3.262c2.051,0.123 4.086,-0.909 4.965,-1.926c0.314,-0.363 0.492,-0.716 0.734,-1.142c2.727,-4.622 -4.679,-13.817 -7.759,-16.86c-0.373,-0.449 -0.881,-0.889 -1.317,-1.266c-2.324,-2.009 -8.95,-6.088 -13.54,-6.503c-9.867,-0.917 -36.131,21.682 -42.911,29.525c-3.8,4.836 -5.538,11.837 -0.963,15.792c0.871,0.753 1.878,1.497 3.407,1.93c6.769,2.299 16.225,-5.262 21.059,-10.854c0.377,-0.436 1.067,-1.235 1.999,-2.459c1.936,-2.387 4.33,-6.917 4.916,-10.09c0.053,-0.208 0.106,-0.416 0.231,-0.561c0.251,-0.29 0.657,-0.32 0.948,-0.069c0.145,0.126 0.228,0.324 0.31,0.522c1.21,4.472 4.614,11.984 9.262,16.002c2.978,2.574 6.388,3.62 10.052,1.584Z" style="fill-rule:nonzero;"/></g></svg>