<svg width="161" height="34" viewBox="0 0 161 34" fill="none" xmlns="http://www.w3.org/2000/svg">
<rect width="34" height="34" rx="17" fill="url(#paint0_linear_2_62)"/>
<path d="M9.15687 10.3201C9.03869 10.1538 9.05982 9.92608 9.20659 9.78434L11.0622 7.9924C11.1885 7.87044 11.3861 7.85824 11.528 7.96155C13.5563 9.43766 15.3348 11.2747 16.7361 13.3554C16.8332 13.4996 16.8129 13.6927 16.6878 13.8135L14.8166 15.6205C14.6773 15.7551 14.4608 15.7683 14.3061 15.6518C12.3668 14.1916 10.6641 12.4413 9.25798 10.4624L9.15687 10.3201Z" fill="white"/>
<path d="M12.9621 25.6376C17.12 24.6487 24.1435 22.0877 27.392 14.3788C27.7184 13.6045 27.2826 12.7367 26.4854 12.471C25.8912 12.2729 25.2349 12.4621 24.8313 12.941C17.9382 21.122 16.6187 21.1666 12.1384 22.9738C11.4535 23.25 11.1084 24.0148 11.342 24.7154C11.5684 25.3947 12.2654 25.8033 12.9621 25.6376Z" fill="white"/>
<path d="M51.64 23.32C50.2533 23.32 49.0467 23.02 48.02 22.42C46.9933 21.82 46.2067 20.9667 45.66 19.86C45.1133 18.74 44.84 17.4267 44.84 15.92C44.84 14.4 45.1133 13.08 45.66 11.96C46.2067 10.84 46.9933 9.98 48.02 9.38C49.0467 8.78 50.2533 8.48 51.64 8.48C53.0267 8.48 54.2333 8.78 55.26 9.38C56.2867 9.98 57.0733 10.84 57.62 11.96C58.1667 13.08 58.44 14.4 58.44 15.92C58.44 17.4267 58.1667 18.74 57.62 19.86C57.0733 20.9667 56.2867 21.82 55.26 22.42C54.2333 23.02 53.0267 23.32 51.64 23.32ZM51.64 20.84C52.4533 20.84 53.1467 20.6533 53.72 20.28C54.2933 19.8933 54.72 19.3333 55 18.6C55.2933 17.8667 55.44 16.9733 55.44 15.92C55.44 14.8667 55.2933 13.9733 55 13.24C54.72 12.4933 54.2933 11.9267 53.72 11.54C53.1467 11.1533 52.4533 10.96 51.64 10.96C50.8267 10.96 50.1333 11.1533 49.56 11.54C49 11.9267 48.5733 12.4933 48.28 13.24C47.9867 13.9733 47.84 14.8667 47.84 15.92C47.84 16.9733 47.9867 17.8667 48.28 18.6C48.5733 19.3333 49 19.8933 49.56 20.28C50.1333 20.6533 50.8267 20.84 51.64 20.84ZM62.0809 12.4L62.1809 15.46L61.9809 15.36C62.1143 14.36 62.4009 13.62 62.8409 13.14C63.2809 12.6467 63.9009 12.4 64.7009 12.4H65.6809V14.58H64.6809C64.1076 14.58 63.6409 14.6733 63.2809 14.86C62.9209 15.0333 62.6543 15.3067 62.4809 15.68C62.3209 16.04 62.2409 16.5 62.2409 17.06V23H59.3609V12.4H62.0809ZM65.4958 17.7C65.4958 16.5933 65.7158 15.62 66.1558 14.78C66.5958 13.94 67.2224 13.2933 68.0358 12.84C68.8491 12.3867 69.7891 12.16 70.8558 12.16C71.8291 12.16 72.7024 12.38 73.4758 12.82C74.2491 13.26 74.8558 13.9133 75.2958 14.78C75.7491 15.6333 75.9758 16.6667 75.9758 17.88L75.9958 18.46H68.4958C68.5491 19.2733 68.7824 19.9133 69.1958 20.38C69.6091 20.8333 70.1624 21.06 70.8558 21.06C71.3224 21.06 71.7424 20.94 72.1158 20.7C72.4891 20.46 72.7624 20.1267 72.9358 19.7L75.8358 19.92C75.5158 20.9333 74.9024 21.74 73.9958 22.34C73.1024 22.94 72.0558 23.24 70.8558 23.24C69.7891 23.24 68.8491 23.0133 68.0358 22.56C67.2224 22.1067 66.5958 21.46 66.1558 20.62C65.7158 19.78 65.4958 18.8067 65.4958 17.7ZM73.0558 16.66C72.9624 15.8733 72.7158 15.2933 72.3158 14.92C71.9291 14.5333 71.4424 14.34 70.8558 14.34C70.2024 14.34 69.6691 14.5467 69.2558 14.96C68.8558 15.36 68.6091 15.9267 68.5158 16.66H73.0558ZM79.6089 12.4L79.7489 15.46L79.3889 15.32C79.5356 14.2133 79.9156 13.4133 80.5289 12.92C81.1556 12.4133 81.9356 12.16 82.8689 12.16C84.0156 12.16 84.9089 12.52 85.5489 13.24C86.1889 13.96 86.5089 14.94 86.5089 16.18V23H83.6289V17.12C83.6289 16.5067 83.5756 16.0133 83.4689 15.64C83.3622 15.2533 83.1822 14.96 82.9289 14.76C82.6889 14.56 82.3622 14.46 81.9489 14.46C81.2956 14.46 80.7889 14.6867 80.4289 15.14C80.0822 15.58 79.9089 16.24 79.9089 17.12V23H77.0289V12.4H79.6089ZM92.3769 22.54C92.3769 23.6733 92.0902 24.5333 91.5169 25.12C90.9435 25.7067 90.0769 26 88.9169 26H87.1769V23.82H88.3769C88.6035 23.82 88.7969 23.7667 88.9569 23.66C89.1302 23.5533 89.2635 23.4 89.3569 23.2C89.4502 23.0133 89.4969 22.7933 89.4969 22.54V12.4H92.3769V22.54ZM92.4369 8.8V11H89.4569V8.8H92.4369ZM96.6784 12.4V23H93.7984V12.4H96.6784ZM96.7384 8.8V11H93.7584V8.8H96.7384ZM104.671 18.18C104.778 18.7133 104.964 19.1733 105.231 19.56C105.511 19.9467 105.871 20.2467 106.311 20.46C106.764 20.6733 107.291 20.78 107.891 20.78C108.371 20.78 108.784 20.72 109.131 20.6C109.478 20.4667 109.744 20.28 109.931 20.04C110.131 19.8 110.224 19.5067 110.211 19.16C110.211 18.6267 109.964 18.1867 109.471 17.84C108.978 17.4933 108.151 17.1733 106.991 16.88C105.391 16.5067 104.164 15.9867 103.311 15.32C102.458 14.64 102.031 13.7467 102.031 12.64C102.031 11.8 102.251 11.0667 102.691 10.44C103.131 9.81333 103.744 9.33333 104.531 9C105.331 8.65333 106.258 8.48 107.311 8.48C108.351 8.48 109.278 8.68 110.091 9.08C110.918 9.48 111.571 10.04 112.051 10.76C112.544 11.48 112.844 12.3133 112.951 13.26L110.051 13.4C109.984 12.8933 109.824 12.46 109.571 12.1C109.331 11.7267 109.011 11.44 108.611 11.24C108.224 11.04 107.771 10.94 107.251 10.94C106.571 10.94 106.018 11.1 105.591 11.42C105.178 11.74 104.978 12.16 104.991 12.68C105.004 13.0533 105.138 13.3667 105.391 13.62C105.644 13.8733 105.958 14.0733 106.331 14.22C106.704 14.3533 107.191 14.5 107.791 14.66L108.071 14.72C109.698 15.0933 110.958 15.6333 111.851 16.34C112.744 17.0467 113.191 17.9467 113.191 19.04C113.191 19.9067 112.951 20.66 112.471 21.3C112.004 21.94 111.358 22.4267 110.531 22.76C109.718 23.08 108.804 23.24 107.791 23.24C106.658 23.24 105.644 23.04 104.751 22.64C103.871 22.24 103.164 21.6733 102.631 20.94C102.111 20.1933 101.818 19.3267 101.751 18.34L104.671 18.18ZM118.101 10V19.6C118.101 20 118.201 20.3067 118.401 20.52C118.614 20.72 118.908 20.82 119.281 20.82H120.921V23H118.721C117.574 23 116.701 22.7133 116.101 22.14C115.514 21.5667 115.221 20.72 115.221 19.6V10H118.101ZM120.901 12.4V14.56H113.521V12.4H120.901ZM128.887 23L128.807 19.98L129.167 20.14C129.007 21.22 128.621 22.0067 128.007 22.5C127.394 22.9933 126.634 23.24 125.727 23.24C124.594 23.24 123.707 22.88 123.067 22.16C122.441 21.4267 122.127 20.4467 122.127 19.22V12.4H125.007V18.26C125.007 18.8867 125.061 19.3933 125.167 19.78C125.274 20.1533 125.441 20.44 125.667 20.64C125.907 20.84 126.234 20.94 126.647 20.94C127.287 20.94 127.781 20.7133 128.127 20.26C128.474 19.8067 128.647 19.14 128.647 18.26V12.4H131.527V23H128.887ZM140.35 8.8H143.23V23H140.47L140.41 21.48C140.116 22.0533 139.696 22.4933 139.15 22.8C138.603 23.0933 137.95 23.24 137.19 23.24C136.243 23.24 135.43 23 134.75 22.52C134.07 22.0267 133.556 21.36 133.21 20.52C132.876 19.68 132.71 18.74 132.71 17.7C132.71 16.66 132.876 15.72 133.21 14.88C133.556 14.04 134.07 13.38 134.75 12.9C135.43 12.4067 136.243 12.16 137.19 12.16C137.91 12.16 138.536 12.3067 139.07 12.6C139.603 12.88 140.03 13.2933 140.35 13.84V8.8ZM140.25 19.36C140.436 18.8533 140.53 18.3 140.53 17.7C140.53 17.0733 140.436 16.5067 140.25 16C140.076 15.4933 139.803 15.0933 139.43 14.8C139.07 14.4933 138.623 14.34 138.09 14.34C137.29 14.34 136.683 14.66 136.27 15.3C135.87 15.9267 135.67 16.7267 135.67 17.7C135.67 18.6333 135.876 19.42 136.29 20.06C136.703 20.6867 137.303 21 138.09 21C138.636 21 139.09 20.8533 139.45 20.56C139.81 20.2533 140.076 19.8533 140.25 19.36ZM147.651 12.4V23H144.771V12.4H147.651ZM147.711 8.8V11H144.731V8.8H147.711ZM154.157 23.24C153.077 23.24 152.13 23.0133 151.317 22.56C150.503 22.1067 149.877 21.46 149.437 20.62C148.997 19.78 148.777 18.8067 148.777 17.7C148.777 16.5933 148.997 15.62 149.437 14.78C149.877 13.94 150.503 13.2933 151.317 12.84C152.13 12.3867 153.077 12.16 154.157 12.16C155.223 12.16 156.163 12.3867 156.977 12.84C157.79 13.2933 158.417 13.94 158.857 14.78C159.31 15.62 159.537 16.5933 159.537 17.7C159.537 18.8067 159.31 19.78 158.857 20.62C158.417 21.46 157.79 22.1067 156.977 22.56C156.163 23.0133 155.223 23.24 154.157 23.24ZM154.157 20.98C154.93 20.98 155.523 20.6933 155.937 20.12C156.363 19.5467 156.577 18.74 156.577 17.7C156.577 16.66 156.363 15.8533 155.937 15.28C155.523 14.7067 154.93 14.42 154.157 14.42C153.383 14.42 152.783 14.7067 152.357 15.28C151.943 15.8533 151.737 16.66 151.737 17.7C151.737 18.74 151.943 19.5467 152.357 20.12C152.783 20.6933 153.383 20.98 154.157 20.98Z" fill="black"/>
<defs>
<linearGradient id="paint0_linear_2_62" x1="17" y1="0" x2="17" y2="34" gradientUnits="userSpaceOnUse">
<stop stop-color="#FF622F"/>
<stop offset="1" stop-color="#F45235"/>
</linearGradient>
</defs>
</svg>
