<?xml version="1.0" encoding="UTF-8"?>
<svg fill="none" viewBox="0 0 550 436" xmlns="http://www.w3.org/2000/svg">
<path d="m95.64 285.18c-0.5887-0.284-1.1805-0.609-1.7699-0.973 0.5894 0.364 1.1806 0.689 1.7699 0.973z" fill="url(#n)"/>
<path d="m82.009 264.63c0-7e-3 -6e-4 -0.014-0.0012-0.021 6e-4 7e-3 0.0012 0.014 0.0012 0.021z" fill="url(#i)"/>
<path d="m97.351 240.65c0.0183-0.012 0.0365-0.018 0.0603-0.024-0.0177-0.013-0.042-0.024-0.0603-0.042v0.066z" fill="url(#h)"/>
<path d="m192.23 185.3c-0.049 0.439-0.092 0.884-0.122 1.335-2.828-3.907-7.411-6.455-12.604-6.455-3.608 0-6.924 1.231-9.563 3.285-2.852-3.224-7.021-5.266-11.671-5.266-4.73 0-8.966 2.115-11.824 5.443-1.566-1.828-3.559-3.273-5.808-4.224 0.018-0.896-6e-3 -1.804-0.074-2.718 6.107-2.968 12.848-4.711 19.711-5.205 5.022 0.36 9.983 1.39 14.676 3.078 0.14 0.049 0.274 0.104 0.415 0.152 0.463 0.171 0.926 0.354 1.383 0.537 0.213 0.085 0.427 0.176 0.64 0.262 0.402 0.17 0.805 0.341 1.201 0.524 0.195 0.085 0.396 0.171 0.591 0.262 0.561 0.262 1.115 0.53 1.664 0.811 0.134 0.067 0.268 0.14 0.402 0.213 0.433 0.225 0.866 0.457 1.292 0.695 0.201 0.116 0.402 0.231 0.597 0.347 0.378 0.22 0.756 0.445 1.122 0.671 0.183 0.115 0.366 0.225 0.542 0.341 0.524 0.329 1.043 0.67 1.548 1.024 0.122 0.085 0.238 0.17 0.36 0.256 0.402 0.286 0.798 0.579 1.195 0.877 0.176 0.135 0.359 0.275 0.536 0.415 0.347 0.274 0.695 0.554 1.036 0.841 0.158 0.128 0.317 0.256 0.475 0.39 0.476 0.408 0.945 0.823 1.402 1.249 0.098 0.092 0.195 0.195 0.299 0.287 0.195 0.189 0.384 0.378 0.579 0.573z" fill="#B0FFF1"/>
<path d="m247.58-3.0518e-5c-8.094 0.091431-15.804 3.3338-21.527 8.9776-2.706-0.93857-5.491-1.6273-8.331-2.06l-0.019-0.0061h-0.024c-0.147-0.02439-0.299-0.04264-0.451-0.06092l-0.195-0.03048c-0.536-0.07373-1.024-0.1341-1.488-0.18286-0.219-0.02439-0.432-0.04267-0.651-0.06095l-0.037-0.0061c-0.5-0.04266-1.012-0.07922-1.524-0.10968l-0.164-0.01221c-0.152-0.0061-0.305-0.01828-0.463-0.02438-0.78-0.03656-1.481-0.05487-2.133-0.05487-0.64 0-1.317 0.01831-2.067 0.0488-0.158 0.01217-0.316 0.01824-0.469 0.03045l-0.177 0.00672c-0.506 0.02987-0.975 0.0664-1.42 0.10299-0.244 0.01828-0.488 0.04267-0.725 0.06705-0.433 0.04266-0.884 0.09753-1.377 0.16516l-0.183 0.02377c-0.165 0.01831-0.323 0.04267-0.488 0.06705-0.609 0.08533-1.213 0.18894-1.786 0.29254-0.17 0.03656-0.347 0.07315-0.518 0.11032l-0.195 0.03595c-0.445 0.0914-0.883 0.18286-1.322 0.28647-0.293 0.06705-0.585 0.14017-0.872 0.21329l-0.116 0.03052c-0.286 0.07312-0.566 0.14627-0.841 0.22549-0.384 0.10361-0.768 0.21332-1.146 0.3291-0.073 0.02439-0.14 0.04206-0.201 0.06095l-0.475 0.14566-0.018 0.01281c-12.428 3.986-22.386 12.811-27.914 24.111-2.377 4.8386-3.931 10.142-4.523 15.706l-0.189 1.7492 1.255 1.2372 1.067 1.0544 1.512 0.0061h1.682c-0.737 2.3404-0.908 4.8514-0.445 7.332l2.456 13.25c1.043 5.6072 0.08 11.403-2.712 16.352l-6.125 8.5022c-1.207 1.676-1.432 3.8884-0.585 5.7774 0.926 2.054 2.821 5.333 6.143 7.588-0.53 2.383-0.408 5.278 1.5 7.875 0.286 12.177 10.282 21.996 22.526 21.996 2.572 0 5.083-0.427 7.454-1.262v4.651l-1.829 0.511c-2.273 0.64-3.998 2.475-4.497 4.785l-3.974 18.418c-0.372-0.146-0.756-0.292-1.145-0.439l-0.099-0.036-0.036-0.018c-1.323-0.494-2.682-0.945-4.035-1.347l-0.049-0.013-0.037-0.012c-0.67-0.195-1.358-0.39-2.053-0.567h-6e-3l-0.025-6e-3c-5.4-1.401-11.019-2.108-16.699-2.108h-9.057c-5.101 0-10.148 0.572-15.042 1.7-1.018-1.56-2.243-2.95-3.663-4.157l-0.189-0.158-0.207-0.134-0.268-0.171c0.755-0.17 1.469-0.518 2.072-1.018 3.511-2.87 4.029-8.057 1.158-11.568l-5.028-6.149c-1.567-1.914-3.889-3.017-6.369-3.017-1.89 0-3.736 0.664-5.199 1.859l-0.018 0.018-0.122-0.085-4.175-2.962-5.089-3.608c-0.848-0.604-1.847-0.921-2.889-0.921-1.213 0-2.371 0.439-3.273 1.219-0.256-0.018-0.518-0.03-0.786-0.03-1.908 0-3.779 0.536-5.4 1.548l-6.8692 4.303c-1.7126 1.073-2.834 2.834-3.0839 4.833-0.0366 0.299-0.0488 0.597-0.0488 0.89l-7.7037 3.248c-3.4741 1.469-5.1135 5.491-3.6447 8.966l0.0792 0.195c1.0727 2.541 3.5472 4.181 6.3081 4.181 0.8167 0 1.6151-0.14 2.383-0.427l6.3325 5.34c1.2251 1.029 2.7792 1.602 4.3882 1.608-2.3458 1.725-4.1017 4.169-4.9916 7.009-1.1769 3.767-0.6765 7.862 1.3714 11.245l0.0304 0.055 0.0732 0.122c1.4018 2.297 3.1997 4.327 5.2899 6.003-1.3765 2.499-2.1871 5.29-2.3523 8.167-10.227 0.427-18.418 8.88-18.418 19.211v0.28c-5.0404 0.36-9.5505 2.676-12.769 6.186-3.1449 3.42-5.0708 7.991-5.0708 12.988 0 1.152 0.1036 2.292 0.3047 3.413-5.8394 3.401-9.581 9.728-9.581 16.633 0 6.138 2.9316 11.854 7.7891 15.457-0.0061 0.231-0.0122 0.462-0.0122 0.688 0 8.557 6.5519 15.609 14.902 16.419-0.0061 0.111-0.0061 0.214-0.0061 0.323 0 5.87 3.9433 10.806 9.4468 12.214 2.4008 3.822 6.0461 6.637 10.264 8.021-1.0118 3.01-0.9387 5.955 0.2803 8.495 0.0183 0.044 0.0366 0.08 0.0549 0.123-4.3395 1.907-7.8989 5.369-9.9101 9.691h-30.614c-2.1759 0-4.1811 0.999-5.4914 2.736-1.3043 1.737-1.7127 3.937-1.1154 6.029l18.65 65.012c0.0427 0.147 0.5303 1.431 0.579 1.572h8.0939l-2.0723-0.25c-1.4322 0-2.6938-0.95-3.09-2.328l-18.644-65.013c-0.5906-2.054 0.9508-4.101 3.0901-4.101h33.132c1.6816-5.687 6.4721-10.032 12.402-11.074-0.555-1.342-1.1399-2.671-1.7676-3.974-1.3287-2.768-0.451-6.321 1.9506-9.624-5.9-0.177-10.971-3.633-13.458-8.612-4.5589-0.421-8.1244-4.248-8.1244-8.917 0-0.938 0.1463-1.84 0.4145-2.687-0.6034-0.372-1.1641-0.787-1.6944-1.25-0.2559 0.012-0.5119 0.036-0.7679 0.036-7.0943 0-12.848-5.753-12.848-12.841 0-0.865 0.0914-1.707 0.2499-2.524-4.7844-2.656-8.0268-7.758-8.0268-13.621 0-6.729 4.2657-12.458 10.245-14.634-0.6277-1.688-0.9691-3.504-0.9691-5.412 0-8.599 6.9724-15.565 15.572-15.565 0.969 0 1.9137 0.091 2.8273 0.255-0.298-1.097-0.487-2.243-0.5418-3.431-0.0122-0.238-0.0183-0.476-0.0183-0.713 0-8.599 6.9724-15.572 15.572-15.572 1.0546 0 2.0846 0.103 3.0776 0.304-0.164-0.92-0.262-1.871-0.262-2.84 0-3.919 1.451-7.502 3.84-10.239-2.907-1.591-5.449-3.937-7.2901-6.942l-0.0604-0.116c-3.2424-5.29-0.9995-12.122 4.5345-14.566 0.165-1.207 0.249-2.438 0.249-3.688 0-1.109-0.072-2.194-0.2-3.266l-2.865 1.207c-0.396 0.165-0.8164 0.249-1.237 0.249-0.7375 0-1.4633-0.256-2.0478-0.749l-6.5525-5.523c-0.5845-0.493-1.3098-0.749-2.0472-0.749-0.4206 0-0.8411 0.085-1.2373 0.25-0.4083 0.17-0.8228 0.25-1.2372 0.25-1.2433 0-2.4257-0.731-2.9377-1.944l-0.0792-0.195c-0.6826-1.622 0.0731-3.493 1.6943-4.175l10.8-4.553c-1.3348-1.396-1.0849-3.657 0.5546-4.687l6.869-4.303c1.06-0.664 2.261-0.993 3.462-0.993 0.822 0 1.639 0.152 2.413 0.457 0.025-0.22 0.092-0.432 0.232-0.628l0.323-0.451c0.262-0.372 0.67-0.567 1.091-0.567 0.268 0 0.542 0.079 0.774 0.244l5.089 3.608 8.35 5.924c0.603 0.427 0.749 1.261 0.317 1.871l-0.317 0.451c-0.104 0.147-0.232 0.262-0.372 0.348 0.439 0.336 0.829 0.713 1.164 1.139l1.871-1.846-2.468-3.023c-0.494-0.604-0.403-1.487 0.201-1.981 0.847-0.694 1.871-1.036 2.883-1.036 1.322 0 2.639 0.573 3.541 1.676l5.028 6.15c1.597 1.95 1.31 4.827-0.646 6.423-0.262 0.214-0.573 0.317-0.89 0.317-0.408 0-0.811-0.176-1.092-0.518l-2.473-3.016-4.432 2.992-0.091-0.116v2.639l7.521 4.803c1.92 1.627 3.26 3.547 4.193 5.607 5.455-1.524 11.166-2.286 16.877-2.286h9.057c5.333 0 10.666 0.665 15.791 1.993 6e-3 0 0.012 0 0.025 7e-3 0.657 0.17 1.315 0.353 1.974 0.549h6e-3c1.293 0.384 2.572 0.81 3.827 1.279 0.044 0.012 0.086 0.03 0.129 0.043 0.615 0.231 1.231 0.475 1.841 0.725 0.012 6e-3 0.018 0.012 0.03 0.018 0.622 0.256 1.231 0.524 1.835 0.799 0.012 6e-3 0.018 6e-3 0.024 0.012 0.457 0.206 0.902 0.426 1.347 0.646 0.012-0.11 0.03-0.226 0.055-0.341l4.851-22.484c0.207-0.981 0.945-1.761 1.908-2.036l4.498-1.267v-13.427c-3.115 2.273-6.96 3.614-11.111 3.614-10.428 0-18.875-8.447-18.875-18.876 0-0.274 6e-3 -0.536 0.018-0.805-3.669-3.571-0.561-8.294-0.561-8.294-4.272-1.426-6.521-5.345-7.417-7.332-0.311-0.701-0.232-1.511 0.219-2.133l6.241-8.6608c3.291-5.7474 4.437-12.482 3.224-18.997l-2.456-13.25c-0.737-3.9616 0.634-7.7465 3.236-10.325h-8.069l-6e-3 -0.0061c0.615-5.7778 2.359-11.22 5.016-16.09 5.363-9.8553 14.438-17.401 25.348-20.771 0 0 6e-3 -0.0061 0.012-0.0061 0.055-0.0177 0.116-0.0366 0.177-0.0549 0.353-0.1036 0.707-0.2072 1.06-0.3047 0.256-0.0732 0.519-0.1402 0.774-0.2072 0.305-0.0731 0.604-0.1524 0.909-0.2255 0.408-0.0915 0.81-0.1768 1.219-0.2615 0.219-0.0439 0.438-0.092 0.664-0.1347 0.542-0.1036 1.091-0.1889 1.639-0.2743 0.208-0.0304 0.415-0.0548 0.622-0.0792 0.42-0.0548 0.842-0.1097 1.268-0.1524 0.225-0.0237 0.445-0.0426 0.67-0.0609 0.433-0.0427 0.872-0.0731 1.311-0.0975 0.201-0.0122 0.396-0.0244 0.597-0.0299 0.634-0.031 1.268-0.0487 1.908-0.0487 0.658 0 1.316 0.0237 1.968 0.0487 0.195 0.0116 0.384 0.0232 0.579 0.036 0.469 0.0244 0.939 0.0609 1.408 0.1036 0.213 0.0183 0.421 0.036 0.634 0.0609 0.457 0.0488 0.914 0.1036 1.371 0.1707 0.201 0.0244 0.402 0.0487 0.597 0.0786h0.013c3.449 0.5248 6.771 1.4573 9.904 2.7427 4.985-5.8077 12.335-9.5194 20.57-9.6109h0.298c11.58 0 21.515 7.4356 25.568 17.717 5.515 2.2794 10.123 6.2898 13.146 11.361 2.462 4.1139 3.87 8.9288 3.87 14.073 0 10.708-6.125 19.985-15.06 24.525v1.2433c0 36.49-27.798 44.602-27.798 44.602l-5.266 12.274c-0.311 0.738-0.988 1.104-1.664 1.104-0.682 0-1.365-0.372-1.676-1.115l-1.152-2.743-2.09 11.379 4.199-1.182c0.299-0.08 0.597-0.122 0.89-0.122 1.505 0 2.877 1.048 3.218 2.596l2.968 13.701c0.36 1.658-0.597 3.322-2.212 3.84l-1.14 0.445c3.389 1.718 6.472 3.949 9.136 6.612 1.792 1.792 3.389 3.785 4.766 5.925 0.652-1.603 1.402-2.518 2.194-2.518h2.907v-6.161c0-1.024 0.835-1.859 1.865-1.859h6.241c1.03 0 1.865 0.835 1.865 1.859v6.161h2.908c2.096 0 3.864 6.327 4.479 15.067l29.225-8.618 5.485-11.111c-1.048-2.499-1.621-5.028-1.621-7.515 0 0-2.213-9.855 3.888-20.795-1.012 0.304-2.078 0.469-3.175 0.469-7.088 0-12.83-6.759-12.83-15.097 0-8.343 5.742-15.103 12.83-15.103 0.823 0 1.627 0.097 2.413 0.275-0.591-0.476-1.213-0.927-1.87-1.347-8.936-5.6378-16.14-16.767-10.185-33.217 3.693-10.221 7.576-15.846 13.591-18.754 4.351-11.184 14.494-14.445 24.849-14.445 14.498 0.0061 29.413 6.3995 29.413 6.3995 2.682 0.8228 5.271 1.7736 7.765 2.8219l8.812-4.7783c0.324-0.1761 0.671-0.256 1.006-0.256 0.896 0 1.75 0.573 2.03 1.5116l1.785 5.9911 4.505 0.3474c1.341 0.0975 2.243 1.4073 1.871 2.6939l-1.646 5.6438c10.087 8.6917 15.481 19.467 13.519 29.742-1.39 7.2833-8.344 11.044-17.072 11.044-0.896 0-1.81-0.0426-2.743-0.1219 0.281 1.7918 0.53 3.6208 0.738 5.4918 1.005 0.664 1.883 1.475 2.541 2.456 0.403 0.597 0.238 1.402-0.353 1.804-0.226 0.146-0.476 0.213-0.719 0.213-0.104 0-0.208-0.012-0.312-0.036l-0.066-0.013c-0.232-0.061-0.463-0.122-0.683-0.176 0.287 3.626 0.439 7.375 0.439 11.208 0 6.552-0.446 12.848-1.256 18.723 6.448 5.333 10.386 12.885 10.386 22.404 0 15.018-8.636 24.447-21.277 28.774l20.394 7.496c6.831 2.511 13.987 3.761 21.124 3.761 9.026 0 18.028-1.993 26.341-5.955l0.756-0.365c1.017-0.482 2.078-0.707 3.114-0.707 3.475 0 6.68 2.529 7.192 6.271 1.469 10.763-3.035 20.485-10.538 26.543-2.596 2.103-5.552 3.76-8.746 4.876l-0.39 7.191c-0.115 2.201-0.494 4.34-1.097 6.388 0.853 0.573 1.731 1.408 2.53 2.633 1.091 1.651 1.902 3.815 2.419 6.418 0.896 4.46 0.89 10.044-0.018 15.724-1.054 6.601-3.236 12.701-5.979 16.73-0.506 0.744-1.249 1.256-2.084 1.475l1.053 4.602c0.543 2.358-1.023 4.687-3.412 5.064l-9.112 1.457v9.045c0 10.592-8.191 19.259-18.589 20.027-0.75 7.588-1.92 14.902-3.328 21.777 8.113 5.381 19.51 10.964 33.028 12.214 0.414-0.994 1.347-1.707 2.468-1.804l9.612-0.793c0.085-6e-3 0.164-0.013 0.249-0.013 1.494 0 2.768 1.135 2.92 2.647l0.11 1.035c5.174-11.738 16.913-19.82 30.37-19.82 0.537 0 1.079 0.012 1.621 0.037 0.707 0.036 1.401 0.091 2.097 0.17 1.712 0.189 3.389 0.506 5.016 0.95 2.2 0.806 4.364 1.708 6.485 2.688 0 0.019 6e-3 0.038 6e-3 0.055 0.688 0.324 1.371 0.653 2.048 0.994 4.163 2.085 8.148 4.51 11.915 7.277 1.493 1.091 1.243 3.48-0.165 5.071-0.336 0.378-0.73 0.713-1.188 0.975-2.054 1.189-4.145 1.842-6.034 1.842-1.292 0-2.487-0.306-3.517-0.958-1.291-0.823-2.614-1.597-3.961-2.34-7e-3 0.024-0.012 0.042-0.018 0.061-0.098 0.292-0.202 0.585-0.312 0.872-0.036 0.096-0.066 0.194-0.104 0.292-0.097 0.25-0.201 0.493-0.304 0.743-0.055 0.122-0.109 0.25-0.164 0.372-0.098 0.226-0.202 0.445-0.311 0.664-0.067 0.134-0.128 0.275-0.195 0.409-0.116 0.225-0.238 0.451-0.354 0.67-0.066 0.121-0.134 0.25-0.201 0.366-0.183 0.329-0.378 0.652-0.573 0.969-0.012 0.012-0.018 0.024-0.024 0.036-0.829 1.317-1.786 2.567-2.865 3.712-0.036 0.042-0.078 0.086-0.122 0.128l1.609 1.323c2.384 1.932 1.786 5.692-1.06 6.838-1.341 0.543-2.767 0.817-4.205 0.817-2.067 0-4.15-0.573-5.992-1.743-3.047 1.651-6.405 2.998-10.007 3.949-3.889 1.03-7.759 1.512-11.489 1.512-2.127 0-4.211-0.158-6.222-0.464-0.135 1.006-0.768 1.877-1.695 2.298 1.847 0.024 3.309 1.579 3.213 3.425l-0.227 4.23c2.932-2.145 6.54-3.407 10.447-3.407h11.032c3.4 0 6.49 1.323 8.8 3.468l0.031-0.853c0.024-0.866 0.653-1.597 1.505-1.75l5.193-0.944c0.109-0.018 0.219-0.024 0.329-0.024 0.731 0 1.414 0.438 1.701 1.139l1.304 3.194 1.158-0.207 0.104-3.449c0.03-0.872 0.658-1.604 1.511-1.756l5.193-0.939c0.109-0.018 0.219-0.03 0.329-0.03 0.731 0 1.414 0.445 1.7 1.139l1.323 3.231 1.139-0.201 0.105-3.493c0.03-0.865 0.658-1.597 1.511-1.749l5.192-0.939c0.109-0.024 0.219-0.03 0.33-0.03 0.731 0 1.407 0.439 1.694 1.14l1.341 3.26 3.187-0.566 0.378-0.067 0.031-0.951 0.079-2.585c0.024-0.762 0.512-1.42 1.206-1.669 0.293-1.262 0.513-2.548 0.647-3.865l-1 0.184c-1.7 0.31-3.114 1.407-3.888 2.871-0.988-0.89-2.286-1.409-3.675-1.409-0.33 0-0.659 0.031-0.982 0.086l-5.192 0.938c-1.116 0.201-2.103 0.744-2.872 1.499-0.694-0.31-1.462-0.481-2.254-0.481-0.329 0-0.658 0.03-0.981 0.091l-5.193 0.939c-1.109 0.201-2.103 0.737-2.871 1.493-0.695-0.31-1.457-0.475-2.255-0.475-0.329 0-0.658 0.024-0.982 0.085l-5.192 0.939c-0.786 0.145-1.517 0.457-2.145 0.896-2.316-1.189-4.895-1.817-7.539-1.817h-5.736c0.537-0.128 1.074-0.256 1.609-0.403 3.145-0.828 6.18-1.955 9.051-3.358 1.889 0.836 3.931 1.275 6.016 1.275 1.919 0 3.797-0.366 5.57-1.079 2.56-1.03 4.334-3.273 4.749-5.997 0.322-2.164-0.269-4.285-1.605-5.937 0.355-0.493 0.702-0.999 1.025-1.517l0.031-0.049 0.018-0.031c0.225-0.359 0.439-0.718 0.634-1.066 0.061-0.104 0.115-0.213 0.176-0.316l0.055-0.111 0.025-0.036c0.091-0.176 0.182-0.348 0.273-0.518 0.086 0.048 0.172 0.104 0.251 0.158 1.609 1.012 3.449 1.524 5.479 1.524 2.505 0 5.224-0.805 7.863-2.328 0.779-0.451 1.48-1.031 2.09-1.712 1.523-1.733 2.291-4.005 2.06-6.108-0.189-1.78-1.067-3.328-2.469-4.346-3.87-2.846-8.051-5.4-12.427-7.594-0.116-0.06-0.238-0.115-0.354-0.176l-0.012-0.085-1.791-0.835c-2.213-1.025-4.492-1.969-6.772-2.81l-0.146-0.055-0.158-0.037c-1.823-0.493-3.701-0.853-5.571-1.054-0.75-0.086-1.536-0.153-2.316-0.189-0.597-0.031-1.206-0.043-1.798-0.043-12.543 0-24.081 6.381-30.815 16.663-0.798-0.335-1.67-0.524-2.585-0.524-0.182 0-0.365 7e-3 -0.548 0.025l-9.617 0.792c-1.427 0.122-2.743 0.689-3.779 1.597-9.27-1.171-18.449-4.559-27.335-10.093 1.091-5.662 1.962-11.306 2.584-16.821 4.784-0.994 9.154-3.438 12.531-7.059 4.114-4.406 6.381-10.16 6.381-16.193v-5.924l6.028-0.963c2.139-0.342 4.052-1.567 5.266-3.359 1.206-1.792 1.621-4.028 1.139-6.137l-0.475-2.06c0.359-0.348 0.683-0.731 0.962-1.145 3.036-4.462 5.431-11.099 6.565-18.212 0.975-6.095 0.975-12.141-6e-3 -17.023-0.61-3.072-1.603-5.674-2.95-7.71-0.451-0.688-0.951-1.328-1.486-1.901 0.346-1.615 0.566-3.261 0.658-4.907l0.261-4.845c5.077-2.219 9.551-5.723 12.933-10.123 0.591-0.757 1.14-1.536 1.658-2.347 4.199-6.57 5.857-14.17 4.784-21.984-0.731-5.381-5.381-9.434-10.812-9.434-1.627 0-3.205 0.359-4.687 1.066l-0.762 0.36c-7.685 3.663-16.248 5.601-24.762 5.601-6.796 0-13.483-1.188-19.863-3.535l-12.141-4.467c10.014-6.107 15.42-15.926 15.42-28.372 0-9.459-3.505-17.668-10.166-23.867 0.688-5.582 1.036-11.378 1.036-17.26 0-2.737-0.079-5.485-0.231-8.198 1.072-0.737 1.797-1.84 2.053-3.114 0.256-1.298-7e-3 -2.615-0.743-3.718-0.525-0.786-1.158-1.517-1.89-2.182 10.203-0.518 17.407-5.7714 18.973-13.969 2.024-10.605-2.682-22.026-12.957-31.614l1.005-3.4375c0.487-1.6761 0.195-3.4618-0.798-4.9002-0.994-1.4323-2.56-2.3343-4.304-2.4684l-1.997-0.1523-1.068-3.5838c-0.736-2.4623-2.962-4.12-5.534-4.12-0.951 0-1.901 0.2438-2.742 0.7009l-7.296 3.9494c-2.085-0.8289-4.193-1.5725-6.295-2.2246-1.891-0.7923-16.311-6.6067-30.663-6.6128-13.641 0-23.191 5.3457-27.713 15.475-6.108 3.4198-10.277 9.3859-14.171 20.131-3.047 8.423-3.199 16.249-0.451 23.245 1.701 4.3462 4.267 7.6983 6.894 10.227-5.79 2.914-9.844 9.508-9.844 17.169 0 9.338 6.028 17.102 13.89 18.522-3.023 8.448-2.09 15.469-1.768 17.273 0.044 2.267 0.476 4.601 1.287 6.954l-4.071 8.246-23.441 6.912c-0.347-2.719-0.817-5.12-1.383-7.076-0.47-1.597-1.835-6.272-5.559-6.833v-2.559c0-3.042-2.474-5.516-5.522-5.516h-6.241c-3.041 0-5.522 2.474-5.522 5.516v2.566c-0.365 0.054-0.749 0.165-1.145 0.334-0.787-0.95-1.615-1.865-2.481-2.73-1.652-1.657-3.45-3.157-5.369-4.485 0.688-1.378 0.926-2.987 0.573-4.602l-2.969-13.701c-0.512-2.347-2.206-4.224-4.37-5.034 1.067-0.579 1.939-1.506 2.438-2.664l4.632-10.818c2.706-1.067 8.21-3.675 13.683-8.868 6.759-6.405 14.792-18.12 15.036-37.72 9.349-5.6315 15.066-15.657 15.066-26.683 0-5.0099-1.188-9.8065-3.346-14.073-3.066-6.0887-8.118-11.099-14.524-14.116-2.334-5.1928-5.997-9.6419-10.647-12.945-5.242-3.7117-11.373-5.6742-17.724-5.6742h-0.335z" fill="url(#g)"/>
<path d="m433.77 254.99-0.232 6.003c1.628 0.463 2.773 1.951 2.773 3.663 0 0.153-0.012 0.312-0.03 0.469l-0.689 5.657c-0.17 1.413-1.098 2.553-2.323 3.059l-0.2-0.89v0.128l2.474 10.788c2.323-3.474 4.297-8.88 5.296-15.103 0.872-5.455 0.824-10.544 0.043-14.426-0.42-2.115-1.06-3.87-1.889-5.132-0.255-0.397-0.536-0.731-0.829-1.03-1.127 2.487-2.608 4.779-4.394 6.814zm3.51 3.937 0.097-2.548c0.044-0.048 0.08-0.104 0.123-0.153 0.152 1.001 0.25 2.061 0.292 3.176-0.164-0.164-0.335-0.323-0.512-0.475z" fill="url(#f)"/>
<path d="m119.49 328.61c-0.061-0.085-0.128-0.171-0.189-0.25-0.603-2.139-1.28-4.242-2.017-6.272-1.152-3.163-2.474-6.259-3.949-9.245 4.284 2.59 9.081 4.266 14.115 4.894l2.182 0.274c-3.041 2.877-6.777 6.625-10.142 10.599zm18.62-13.305c-1.207-0.098-2.414-0.213-3.614-0.366l-6.589-0.829c-6.424-0.803-12.171-3.455-16.785-7.344 0.201 0.171 0.402 0.348 0.61 0.512-1.244 1.048-2.658 1.902-4.187 2.524 0.073 0.097 0.14 0.194 0.201 0.305 2.407 4.235 4.443 8.666 6.101 13.232 0.804 2.205 1.511 4.443 2.127 6.709 1.273 1.536 2.261 3.322 2.876 5.272 7.113-9.831 19.254-20.009 19.254-20.009" fill="#C1FFF4"/>
<path d="m99.922 286.47c-0.994-0.1-2.0399-0.364-3.1071-0.776 1.0672 0.412 2.1131 0.677 3.1071 0.776z" fill="url(#e)"/>
<path d="m515.6 320.7-6.767-3.003-3.003-6.767c-0.398-0.896-1.67-0.896-2.067 0l-3.003 6.767-6.768 3.003c-0.896 0.398-0.896 1.669 0 2.067l6.768 3.003 3.003 6.768c0.397 0.895 1.669 0.895 2.067 0l3.003-6.768 6.767-3.003c0.896-0.398 0.896-1.669 0-2.067z" fill="#fff"/>
<path d="m528.85 298.85 4.119 1.828 1.827 4.118c0.242 0.545 1.015 0.545 1.257 0l1.828-4.118 4.118-1.828c0.546-0.241 0.546-1.016 0-1.257l-4.118-1.828-1.828-4.118c-0.242-0.545-1.015-0.545-1.257 0l-1.827 4.118-4.119 1.828c-0.545 0.241-0.545 1.016 0 1.257z" fill="#78D7FF"/>
<path d="m531.92 348.47 5.421 2.405 2.405 5.42c0.318 0.718 1.336 0.718 1.655 0l2.405-5.42 5.42-2.405c0.717-0.318 0.717-1.337 0-1.655l-5.42-2.405-2.405-5.421c-0.319-0.717-1.337-0.717-1.655 0l-2.405 5.421-5.421 2.405c-0.717 0.318-0.717 1.337 0 1.655z" fill="#78D7FF"/>
<path d="m73.213 108.69 3.0029-6.768 6.7676-3.0028c0.896-0.3974 0.896-1.6688 0-2.0661l-6.7676-3.0035-3.0029-6.7677c-0.3974-0.8953-1.6687-0.8953-2.0667 0l-3.0023 6.7677-6.7676 3.0035c-0.8966 0.3973-0.8966 1.6687 0 2.0661l6.7676 3.0028 3.0023 6.768c0.398 0.896 1.6693 0.896 2.0667 0z" fill="#fff"/>
<path d="m99.684 120.08 1.8279-4.118 4.118-1.828c0.545-0.241 0.545-1.015 0-1.257l-4.118-1.827-1.8279-4.119c-0.242-0.545-1.016-0.545-1.2574 0l-1.8278 4.119-4.1183 1.827c-0.5454 0.242-0.5454 1.016 0 1.257l4.1183 1.828 1.8278 4.118c0.2414 0.546 1.0154 0.546 1.2574 0z" fill="#B0FFF1"/>
<path d="m59.718 124.77-2.405 5.42-5.42 2.405c-0.718 0.318-0.718 1.337 0 1.655l5.42 2.405 2.405 5.42c0.3182 0.717 1.3366 0.717 1.6548 0l2.4056-5.42 5.42-2.405c0.7174-0.318 0.7174-1.337 0-1.655l-5.42-2.405-2.4056-5.42c-0.3182-0.718-1.3366-0.718-1.6548 0z" fill="#fff"/>
<path d="m52.748 326.48 2.3952-5.398 5.3988-2.396c0.7143-0.317 0.7143-1.331 0-1.648l-5.3988-2.396-2.3952-5.398c-0.3176-0.715-1.3317-0.715-1.6487 0l-2.3952 5.398-5.3981 2.396c-0.715 0.317-0.715 1.331 0 1.648l5.3981 2.396 2.3952 5.398c0.317 0.715 1.3311 0.715 1.6487 0z" fill="#fff"/>
<path d="m22.522 362.86 1.8278-4.119 4.1182-1.827c0.5449-0.241 0.5449-1.015 0-1.257l-4.1182-1.827-1.8278-4.119c-0.242-0.546-1.016-0.546-1.2574 0l-1.8278 4.119-4.1182 1.827c-0.5455 0.242-0.5455 1.016 0 1.257l4.1182 1.827 1.8278 4.119c0.2414 0.546 1.0154 0.546 1.2574 0z" fill="#78D7FF"/>
<path d="m6.5587 321.46-1.8863 4.251-4.2505 1.886c-0.56255 0.25-0.56255 1.048 0 1.298l4.2505 1.886 1.8863 4.251c0.24988 0.562 1.0483 0.562 1.2982 0l1.8863-4.251 4.2504-1.886c0.5626-0.25 0.5626-1.048 0-1.298l-4.2504-1.886-1.8863-4.251c-0.24988-0.562-1.0483-0.562-1.2982 0z" fill="#78D7FF"/>
<path d="m446.07 137.02 3.009 6.783 6.783 3.01c0.899 0.399 0.899 1.673 0 2.071l-6.783 3.01-3.009 6.784c-0.399 0.897-1.673 0.897-2.071 0l-3.01-6.784-6.784-3.01c-0.898-0.398-0.898-1.672 0-2.071l6.784-3.01 3.01-6.783c0.398-0.899 1.672-0.899 2.071 0z" fill="#fff"/>
<path d="m436.54 91.167 1.827 4.1182 4.119 1.8278c0.545 0.242 0.545 1.0154 0 1.2574l-4.119 1.8273-1.827 4.119c-0.242 0.545-1.016 0.545-1.258 0l-1.827-4.119-4.119-1.8273c-0.545-0.242-0.545-1.0154 0-1.2574l4.119-1.8278 1.827-4.1182c0.242-0.5455 1.016-0.5455 1.258 0z" fill="#fff"/>
<path d="m419.32 132.57-1.886-4.251-4.25-1.885c-0.563-0.25-0.563-1.049 0-1.299l4.25-1.885 1.886-4.251c0.25-0.563 1.049-0.563 1.299 0l1.886 4.251 4.25 1.885c0.563 0.25 0.563 1.049 0 1.299l-4.25 1.885-1.886 4.251c-0.25 0.563-1.049 0.563-1.299 0z" fill="#B0FFF1"/>
<path d="m257.78 87.41-19.403 36.609-2.901 15.777-32.538 10.871v-16.778c-3.116 2.27-6.962 3.613-11.114 3.613-10.425 0-18.876-8.449-18.876-18.875 0-0.272 6e-3 -0.538 0.018-0.805-3.667-3.573-0.556-8.293-0.556-8.293-4.274-1.425-6.523-5.347-7.417-7.332-0.316-0.701-0.233-1.513 0.216-2.137l6.239-8.6597c3.296-5.7449 4.437-12.481 3.226-18.997l-2.455-13.251c-1.321-7.1004 4.129-13.651 11.346-13.651h37.843l36.372 41.909z" fill="#FFCF8E"/>
<path d="m247.62 3.658c-8.233 0.09081-15.587 3.8007-20.569 9.6065-5.085-2.085-10.645-3.2375-16.478-3.2375-22.425 0-40.877 16.993-43.194 38.799l6e-3 6e-3h33.927c8.954 0 16.212 7.2577 16.212 16.211v26.648c2.699 0 5.264-0.562 7.593-1.5694 1.164-0.5041 2.264-1.1178 3.295-1.8358 3.058-2.1258 5.473-5.1263 6.863-8.6417 0.017-0.0293 0.029-0.0634 0.041-0.0927l-0.017 0.0927c0.173-0.0057 0.347-0.0117 0.526-0.0117 5.919 0 10.715 4.7954 10.715 10.715 0 5.9137-4.796 10.715-10.715 10.715-1.459 0-2.849-0.29-4.117-0.822-0.942 5.385-0.32 10.928 1.79 15.97l5.539 13.23c0.618 1.478 2.71 1.487 3.341 0.014l5.263-12.279s27.8-8.109 27.8-44.596v-40.973c0-15.301-12.521-28.116-27.821-27.947" fill="#488BD4"/>
<path d="m272.94 20.07c-5.357-4.2298-11.958-7.4783-19.388-9.2153-8.63-2.0173-17.15-1.7187-24.647 0.451 4.87-4.6686 11.446-7.5696 18.711-7.6489 11.208-0.12799 20.93 6.7225 25.324 16.413z" fill="#78D7FF"/>
<path d="m197.51 45.501c0 1.1239 0.047 2.2301 0.133 3.3302h-18.869c-0.098-1.1001-0.151-2.2063-0.151-3.3302 0-13.813 7.548-26.045 19.137-33.546 4.054-1.2567 8.357-1.9284 12.816-1.9284 2.236 0 4.431 0.1677 6.574 0.498-11.803 7.3149-19.64 20.247-19.64 34.976z" fill="#B0FFF1"/>
<path d="m290.5 46.802c0 2.0905-0.232 4.1322-0.683 6.0886-2.767 12.263-13.725 21.423-26.823 21.423-15.194 0-27.512-12.318-27.512-27.512 0-8.8923 4.224-16.803 10.776-21.825 4.639-3.5654 10.44-5.6803 16.736-5.6803 15.188 0 27.506 12.318 27.506 27.506z" fill="#78D7FF"/>
<path d="m290.5 46.802c0 2.0905-0.232 4.1322-0.683 6.0886-4.229 2.3709-9.111 3.7239-14.304 3.7239-16.206 0-29.346-13.134-29.346-29.34 0-0.774 0.031-1.5359 0.091-2.2977 4.639-3.5654 10.44-5.6803 16.736-5.6803 15.188 0 27.506 12.318 27.506 27.506z" fill="#B0FFF1"/>
<path d="m185.52 91.592c-2.495 0-4.518-2.0228-4.518-4.518v-6.7372c0-2.4952 2.023-4.518 4.518-4.518s4.518 2.0228 4.518 4.518v6.7372c0 2.4952-2.023 4.518-4.518 4.518z" fill="#0E0F2C"/>
<path d="m192.32 60.75-4.642-1.4189c-3.832-1.1714-7.877 1.0489-8.945 4.9112-0.539 1.9448 0.833 3.8964 2.846 4.0475l10.711 0.8045c1.525 0.1146 2.919-0.8648 3.326-2.3385 0.71-2.5647-0.752-5.2281-3.296-6.0058z" fill="#488BD4"/>
<path d="m192.38 112.2c-0.765 1.167-1.722 2.231-2.833 3.139-1.107 0.913-2.381 1.655-3.743 2.176-1.366 0.509-2.81 0.797-4.245 0.845-1.434 0.055-2.855-0.107-4.201-0.472-0.533-0.144-0.849-0.692-0.704-1.225 0.122-0.453 0.537-0.749 0.986-0.738h0.017c1.265 0.028 2.499 6e-3 3.7-0.144 1.199-0.156 2.364-0.423 3.469-0.849 1.11-0.417 2.159-0.987 3.159-1.665 0.999-0.682 1.939-1.482 2.871-2.34l0.011-0.011c0.407-0.374 1.039-0.348 1.413 0.059 0.316 0.344 0.346 0.851 0.1 1.225" fill="#F5A15D"/>
<path d="m231.59 101.19c0 2.2 1.783 3.984 3.983 3.984s3.984-1.784 3.984-3.984c0-2.2005-1.784-3.9838-3.984-3.9838s-3.983 1.7833-3.983 3.9838z" fill="#78D7FF"/>
<path d="m127.24 156.72-3.463-4.233 5.541-5.454 4.366 5.337-6.444 4.35z" fill="#0E0F2C"/>
<path d="m136.77 150.53-5.029-6.149c-1.597-1.952-4.472-2.24-6.424-0.643-0.603 0.493-0.692 1.381-0.199 1.984l9.025 11.032c0.494 0.604 1.382 0.692 1.984 0.199 1.952-1.596 2.24-4.472 0.643-6.423z" fill="#0E0F2C"/>
<path d="m96.883 147.7-11.916 5.026c-1.6199 0.683-2.3793 2.551-1.6961 4.171l0.0829 0.196c0.6832 1.62 2.55 2.379 4.1706 1.696 1.1032-0.465 2.3739-0.272 3.2894 0.5l6.5476 5.52c0.9154 0.772 2.1862 0.965 3.2897 0.5l6.937-2.926c2.041-0.861 2.602-3.488 1.091-5.107l-8.231-8.814c-0.9115-0.977-2.3346-1.28-3.5646-0.762z" fill="#0E0F2C"/>
<path d="m137.91 192.93-35.429-14.731-0.433-1.462c1.079-2.92 1.67-6.077 1.67-9.368 0-7.456-3.015-14.214-7.9129-19.161-1.3762-1.39-1.1361-3.687 0.5211-4.725l6.8678-4.302c2.243-1.402 5.113-1.317 7.271 0.219l13.939 9.922c1.724 1.225 2.748 3.212 2.748 5.333v4.59l7.521 4.802c11.184 9.478 3.237 28.883 3.237 28.883z" fill="#5B537D"/>
<path d="m104.41 170.69 10.18-3.358c-1.124-3.7-1.723-7.425-1.808-11.056-0.065-2.844 3.04-4.619 5.502-3.193 3.995 2.315 7.483 5.621 10.276 9.644 2.612 4.61 4.527 9.547 5.774 14.798 1.37 5.774-1.48 11.719-6.888 14.163l-3.687 1.667c-8.998 4.069-19.611 0.802-24.764-7.616l-0.0639-0.114c-3.4174-5.581-0.7375-12.884 5.4785-14.935z" fill="#FFCF8E"/>
<path d="m123.05 149.42-5.089-3.608c-0.604-0.429-0.746-1.265-0.318-1.869l0.322-0.454c0.428-0.604 1.265-0.747 1.87-0.319l5.088 3.609c0.604 0.428 0.746 1.265 0.318 1.869l-0.322 0.454c-0.428 0.604-1.265 0.746-1.869 0.318z" fill="#F5A15D"/>
<path d="m114.7 143.5-5.089-3.608c-0.604-0.429-0.746-1.266-0.318-1.87l0.322-0.454c0.428-0.604 1.265-0.746 1.869-0.318l5.089 3.608c0.604 0.429 0.746 1.266 0.318 1.87l-0.322 0.454c-0.428 0.604-1.265 0.746-1.869 0.318z" fill="#FF417D"/>
<path d="m118.88 146.46-5.089-3.608c-0.604-0.429-0.747-1.266-0.318-1.869l0.322-0.454c0.428-0.604 1.265-0.747 1.869-0.319l5.088 3.609c0.604 0.428 0.747 1.265 0.319 1.869l-0.322 0.454c-0.429 0.604-1.265 0.746-1.869 0.318z" fill="#488BD4"/>
<path d="m270.83 159.35h-6.245c-1.028 0-1.861 0.834-1.861 1.862v10.151c0 4.76 0.833 8.617 1.861 8.617h6.245c1.028 0 1.862-3.857 1.862-8.617v-10.151c0-1.028-0.834-1.862-1.862-1.862z" fill="#132243"/>
<path d="m275.6 219.53h-15.787c-2.599 0-4.706-2.107-4.706-4.706v-25.665c0-12.032 2.107-21.785 4.706-21.785h15.787c2.6 0 4.707 9.753 4.707 21.785v25.665c0 2.599-2.107 4.706-4.707 4.706z" fill="#132243"/>
<path d="m263.29 189.17v49.617h-71.284v-49.617c0-17.224 12.22-31.602 28.469-34.917 2.316-0.476 4.717-0.726 7.173-0.726 9.843 0 18.754 3.993 25.202 10.441 6.448 6.454 10.44 15.365 10.44 25.202z" fill="#144491"/>
<path d="m222.03 165.6c0 19.053-12.653 35.149-30.017 40.342v-16.773c0-17.224 12.22-31.602 28.469-34.917 1.011 3.608 1.548 7.417 1.548 11.348z" fill="#488BD4"/>
<path d="m244.86 156.91-49.557 19.287c-2.007 0.781-4.076-0.988-3.621-3.096l4.851-22.483c0.211-0.981 0.947-1.764 1.911-2.035l41.55-11.688c1.825-0.514 3.705 0.619 4.107 2.475l2.972 13.699c0.36 1.659-0.598 3.322-2.213 3.841z" fill="#B0FFF1"/>
<path d="m243.43 220-11.382 1.574c-1.954 0.27-3.758-1.095-4.028-3.05l-3.713-26.848c-0.27-1.954 1.095-3.758 3.05-4.028l11.382-1.574c1.954-0.27 3.758 1.095 4.028 3.049l3.712 26.849c0.271 1.955-1.094 3.758-3.049 4.028z" fill="#488BD4"/>
<g opacity=".25" style="mix-blend-mode:overlay">
<g opacity=".25" style="mix-blend-mode:overlay">
<g opacity=".25" style="mix-blend-mode:overlay">
<g opacity=".25" style="mix-blend-mode:overlay">
<g opacity=".25" style="mix-blend-mode:overlay">
<path d="m239.04 129.44c0.619 1.478 2.71 1.487 3.342 0.014l5.262-12.279s27.801-8.109 27.801-44.596v-1.2445c8.934-4.5449 15.058-13.818 15.058-24.529 0-11.475-7.028-21.305-17.012-25.432-4.09-10.37-14.161-17.844-25.867-17.714-8.232 0.09082-15.587 3.8007-20.569 9.6066-3.136-1.286-6.455-2.2143-9.904-2.739v-6e-4c-4e-3 -6e-4 -8e-3 -0.0013-0.013-0.0013-0.198-0.0304-0.4-0.053-0.599-0.081-0.456-0.0634-0.913-0.1213-1.373-0.1701-0.21-0.0219-0.421-0.0408-0.632-0.0597-0.467-0.0427-0.937-0.0774-1.409-0.1048-0.191-0.011-0.383-0.0238-0.575-0.0323-0.654-0.0293-1.311-0.0488-1.973-0.0488-0.64 0-1.275 0.0177-1.908 0.0451-0.199 0.0086-0.397 0.022-0.595 0.0336-0.439 0.0249-0.877 0.0554-1.312 0.0932-0.223 0.0195-0.446 0.0402-0.668 0.0634-0.425 0.0432-0.847 0.0945-1.268 0.1505-0.207 0.0274-0.415 0.0518-0.621 0.0823-0.551 0.0811-1.099 0.1719-1.644 0.2736-0.22 0.0415-0.439 0.0891-0.658 0.1336-0.409 0.0828-0.816 0.1675-1.22 0.2626-0.305 0.0707-0.608 0.1493-0.911 0.2267-0.258 0.0671-0.516 0.1341-0.774 0.2054-0.355 0.0975-0.708 0.2-1.06 0.3072-0.059 0.0177-0.119 0.0329-0.177 0.0512-5e-3 0.0031-0.01 0.0061-0.014 0.0086-16.303 5.0355-28.509 19.4-30.365 36.862l7e-3 0.0061h8.074c-2.605 2.5769-3.975 6.3623-3.238 10.321l2.455 13.251c1.211 6.5154 0.07 13.251-3.226 18.997l-6.239 8.6603c-0.449 0.623-0.532 1.435-0.216 2.136 0.894 1.984 3.143 5.907 7.417 7.331 0 0-3.111 4.721 0.556 8.294-0.012 0.266-0.018 0.533-0.018 0.805 0 10.425 8.451 18.876 18.876 18.876 4.152 0 7.998-1.344 11.114-3.614v13.429l-4.498 1.265c-0.965 0.271-1.7 1.054-1.912 2.035l-4.851 22.483c-0.385 1.785 1.04 3.32 2.703 3.277-1.528 3.972-2.372 8.281-2.372 12.789v49.619h71.284v-19.254h12.307c2.6 0 4.707-2.107 4.707-4.706v-25.665c0-12.032-2.107-21.785-4.707-21.785h-2.909v-6.162c0-1.028-0.834-1.862-1.862-1.862h-6.244c-1.028 0-1.862 0.834-1.862 1.862v6.162h-2.91c-0.792 0-1.539 0.911-2.195 2.513-1.379-2.14-2.973-4.129-4.765-5.923-2.661-2.661-5.746-4.895-9.139-6.611l1.143-0.445c1.615-0.519 2.573-2.182 2.213-3.841l-2.972-13.699c-0.402-1.856-2.282-2.989-4.107-2.475l-4.198 1.181 2.093-11.382 1.149 2.745z" fill="url(#d)" opacity=".25" style="mix-blend-mode:overlay"/>
<path d="m134.67 164.05-7.521-4.802v-2.637l0.092 0.112 4.433-2.991 2.471 3.019c0.493 0.603 1.381 0.692 1.984 0.199 1.952-1.596 2.239-4.472 0.643-6.424l-5.03-6.148c-1.596-1.952-4.472-2.239-6.423-0.643-0.603 0.492-0.692 1.381-0.199 1.984l2.47 3.02-1.874 1.845c-0.336-0.422-0.724-0.803-1.161-1.135 0.139-0.09 0.265-0.206 0.367-0.349l0.322-0.454c0.428-0.604 0.286-1.441-0.318-1.869l-4.175-2.96-4.174-2.961-5.089-3.608c-0.605-0.428-1.441-0.286-1.869 0.318l-0.323 0.454c-0.136 0.192-0.208 0.409-0.232 0.628-1.905-0.751-4.088-0.58-5.873 0.536l-6.868 4.302c-1.6426 1.03-1.8912 3.293-0.5546 4.687l-10.801 4.555c-1.6206 0.684-2.38 2.551-1.6967 4.171l0.0828 0.196c0.6833 1.62 2.5507 2.38 4.1707 1.696 1.1031-0.465 2.3739-0.272 3.2893 0.5l6.5477 5.52c0.9154 0.772 2.1861 0.965 3.2894 0.5l2.86-1.207c0.129 1.073 0.204 2.161 0.204 3.268 0 1.25-0.086 2.48-0.251 3.685-5.5332 2.447-7.7737 9.279-4.5349 14.568l0.064 0.114c5.1529 8.418 15.766 11.685 24.764 7.616l3.686-1.667c1.091-0.493 2.073-1.134 2.942-1.882l7.521 3.128s7.948-19.406-3.236-28.884z" fill="url(#c)" opacity=".25" style="mix-blend-mode:overlay"/>
</g>
</g>
</g>
</g>
</g>
<path d="m391.03 407.06h-223.96v-179.89h223.96v179.89z" fill="#0E0F2C"/>
<path d="m309.3 173.82-59.781 17.63s-33.713 25.457-33.254 66.28v46.763c0 53.717 43.547 97.264 97.263 97.264h72.45s35.319-71.555 14.907-135.08l-5.275-72.244-13.042-4.635-21.193 0.945-52.075-16.921z" fill="#153C4A"/>
<path d="m399.42 246.56c-19.613 3.023-40.713 3.06-62.313-0.408-22.057-3.541-42.475-10.38-60.43-19.68 0.049-1.183 0.073-2.371 0.073-3.56 0-12.975-2.833-25.451-8.075-37.105l40.628-11.982 52.073 16.919 21.192-0.944 13.043 4.638 3.809 52.122z" fill="#2C645E"/>
<path d="m358.62 171.95-38.752-19.529-10.563 21.397s-9.057 45.233 18.63 52.41c27.686 7.178 34.593-29.116 34.593-29.116l-3.908-25.162z" fill="#D46453"/>
<path d="m368.54 144.74-38.752-19.529-10.563 21.397s-9.057 45.233 18.63 52.411c27.686 7.177 34.593-29.117 34.593-29.117l-3.908-25.162z" fill="#9C3247"/>
<path d="m370.13 61.384c-5.084 0-9.788 4.0122-13.624 10.822h-32.604v74.553h25.679c3.963 17.987 11.679 30.195 20.549 30.195 12.913 0 23.381-25.872 23.381-57.785 0-31.914-10.468-57.785-23.381-57.785z" fill="#D46453"/>
<path d="m301.05 119.77c0 8.338 5.743 15.097 12.827 15.097 7.083 0 12.825-6.759 12.825-15.097s-5.742-15.097-12.825-15.097c-7.084 0-12.827 6.759-12.827 15.097z" fill="#D46453"/>
<path d="m398.22 57.56 1.643-5.6461c0.376-1.2872-0.529-2.5933-1.866-2.6957l-4.509-0.3432-1.786-5.9954c-0.382-1.2848-1.851-1.8924-3.029-1.2537l-8.815 4.7789c-2.492-1.0489-5.081-1.9991-7.767-2.8231 0 0-43.814-18.793-54.26 8.0457-6.014 2.9084-9.896 8.5315-13.594 18.751-5.955 16.454 1.254 27.58 10.186 33.222 8.932 5.641 11.596 16.924 3.918 28.677-7.679 11.753-5.172 22.921-5.172 22.921 0 17.43 28.129 36.661 49.953 36.661s39.516-10.063 39.516-31.559c0-20.188-17.692-31.56-39.516-31.56l-16.006 0.407c-9.2 0-16.659-7.459-16.659-16.659v-27.756l9.952 3.769c8.066 3.0553 17.034 0.6107 22.467-5.7699 3.334 3.9171 7.618 7.4819 12.649 10.288 15.8 8.8134 33.874 6.5324 36.212-5.7175 1.962-10.276-3.431-21.053-13.517-29.742z" fill="#691749"/>
<path d="m384.28 125.54-9.684-15.895c-1.075-1.765-3.477-2.092-5.021-0.719-6.476 5.758-8.275 15.446-3.813 23.276 3.113 5.462 10.065 7.367 15.528 4.254 3.84-2.189 5.179-7.076 2.99-10.916z" fill="#D46453"/>
<path d="m357.7 120.78c-2.029 0-3.673-1.645-3.673-3.673v-5.478c0-2.029 1.644-3.674 3.673-3.674s3.674 1.645 3.674 3.674v5.478c0 2.028-1.645 3.673-3.674 3.673z" fill="#0E0F2C"/>
<path d="m387.36 122.31c-2.029 0-3.674-1.645-3.674-3.673v-5.478c0-2.029 1.645-3.674 3.674-3.674s3.673 1.645 3.673 3.674v5.478c0 2.028-1.644 3.673-3.673 3.673z" fill="#0E0F2C"/>
<path d="m315.36 127.1c1.144-0.869 2.004-1.998 2.613-3.255 0.604-1.258 0.935-2.66 0.929-4.069-6e-3 -1.408-0.335-2.808-0.939-4.066-0.612-1.256-1.469-2.383-2.603-3.257-0.593-0.456-1.488-0.397-1.999 0.132-0.27 0.279-0.379 0.632-0.335 0.971l9e-3 0.067c0.157 1.184 0.373 2.229 0.503 3.24 0.139 1.006 0.212 1.961 0.211 2.913-8e-3 0.953-0.082 1.906-0.221 2.912-0.132 1.008-0.344 2.053-0.493 3.242l-8e-3 0.063c-0.088 0.697 0.474 1.323 1.254 1.401 0.404 0.04 0.791-0.077 1.079-0.294" fill="#9C3247"/>
<path d="m350.5 102.2c0.974-1.144 2.238-2.004 3.646-2.6133 1.411-0.604 2.982-0.9343 4.56-0.9289 1.578 0.0034 3.147 0.3353 4.556 0.9392 1.408 0.611 2.671 1.468 3.65 2.603 0.512 0.593 0.445 1.488-0.147 1.999-0.313 0.27-0.71 0.379-1.089 0.335l-0.075-9e-3c-1.326-0.158-2.498-0.373-3.63-0.503-1.127-0.14-2.197-0.212-3.265-0.212-1.067 9e-3 -2.136 0.083-3.263 0.222-1.13 0.132-2.3 0.345-3.633 0.493l-0.07 8e-3c-0.781 0.087-1.483-0.474-1.571-1.254-0.045-0.404 0.088-0.791 0.331-1.079" fill="#691749"/>
<path d="m380.29 104.33c1.013-0.93 2.258-1.57 3.606-1.966 1.349-0.391 2.813-0.515 4.246-0.333 1.433 0.181 2.822 0.658 4.034 1.364 1.21 0.713 2.263 1.633 3.025 2.774 0.398 0.596 0.237 1.402-0.359 1.8-0.314 0.209-0.685 0.264-1.026 0.182l-0.067-0.016c-1.187-0.293-2.228-0.62-3.241-0.865-1.009-0.253-1.973-0.439-2.943-0.558-0.97-0.111-1.95-0.164-2.988-0.164-1.042-7e-3 -2.13 0.055-3.356 0.041l-0.066-1e-3c-0.718-8e-3 -1.293-0.597-1.285-1.315 6e-3 -0.372 0.168-0.709 0.42-0.943" fill="#691749"/>
<path d="m364.12 141.12c-0.237-0.576-0.786-0.944-1.403-0.944-0.025 0-0.05 1e-3 -0.076 2e-3 -0.783 0.05-1.799 0.107-2.809 0.107-0.481 0-0.923-0.012-1.353-0.037-1.44-0.086-2.703-0.294-3.86-0.637-1.143-0.313-2.324-0.798-3.625-1.486-1.249-0.682-2.451-1.503-3.461-2.216-0.273-0.189-0.585-0.289-0.904-0.289-0.487 0-0.946 0.235-1.227 0.63-0.372 0.536-0.363 1.239 0.017 1.757 0.947 1.305 2.126 2.458 3.503 3.425 1.355 0.956 2.933 1.709 4.561 2.177 1.314 0.367 2.728 0.561 4.092 0.561 0.311 0 0.623-0.01 0.927-0.029 1.686-0.1 3.297-0.459 4.787-1.068 0.366-0.146 0.658-0.434 0.818-0.807 0.159-0.359 0.164-0.768 0.013-1.147" fill="#9C3247"/>
<path d="m411.9 79.774c-9.983 0.3901-21.179-1.1824-32.509-4.955-23.002-7.6551-40.165-22.24-45.358-36.739 16.481-3.7544 38.056 5.5036 38.056 5.5036 2.688 0.8227 5.278 1.7735 7.771 2.8218l8.813-4.7783c1.182-0.6399 2.645-0.0304 3.029 1.2495l1.786 5.9972 4.51 0.3413c1.335 0.1036 2.243 1.4079 1.865 2.7l-1.639 5.6438c7.636 6.5823 12.585 14.365 13.676 22.215z" fill="#9C3247"/>
<path d="m367.2 315.6c0 35.134-32.075 63.617-71.642 63.617-39.566 0-71.641-28.483-71.641-63.617s32.075-63.617 71.641-63.617c39.567 0 71.642 28.483 71.642 63.617z" fill="#052137"/>
<g opacity=".25" style="mix-blend-mode:overlay">
<g opacity=".25" style="mix-blend-mode:overlay">
<g opacity=".25" style="mix-blend-mode:overlay">
<g opacity=".25" style="mix-blend-mode:overlay">
<g opacity=".25" style="mix-blend-mode:overlay">
<path d="m398.22 57.56 1.644-5.6462c0.374-1.2872-0.53-2.5933-1.867-2.6951l-4.509-0.3437-1.786-5.9954c-0.383-1.2848-1.851-1.8925-3.029-1.2532l-8.815 4.779c-2.492-1.0495-5.081-1.9991-7.767-2.8231 0 0-43.814-18.793-54.26 8.0451-6.014 2.9084-9.895 8.5314-13.594 18.752-5.955 16.454 1.253 27.58 10.186 33.221 0.66 0.416 1.28 0.867 1.87 1.343-0.782-0.175-1.589-0.27-2.413-0.27-7.084 0-12.827 6.759-12.827 15.097s5.743 15.098 12.827 15.098c1.097 0 2.162-0.163 3.179-0.468-6.102 10.939-3.89 20.798-3.89 20.798 0 2.487 0.575 5.011 1.62 7.51l-5.486 11.113-59.781 17.63s-17.423 13.157-27.049 35.72h-55.403v179.89h223.96v-17.089c8.945-22.9 25.255-75.377 9.859-123.3l-1.469-20.119c1e-3 0 0 0 0 0l-2.37-32.43-1.438-19.693-5.923-2.105-7.121-2.532-4.192 0.186c14.249-3.814 24.261-13.513 24.261-29.682 0-9.52-3.937-17.077-10.384-22.408 0.813-5.872 1.255-12.17 1.255-18.723 0-3.836-0.153-7.584-0.441-11.21 0.225 0.06 0.451 0.119 0.686 0.177l0.067 0.017c0.341 0.082 0.713 0.027 1.027-0.182 0.595-0.398 0.756-1.204 0.357-1.8-0.657-0.985-1.539-1.795-2.543-2.459-0.21-1.87-0.456-3.701-0.737-5.4888 9.983 0.8545 18.279-2.8907 19.812-10.921 1.962-10.277-3.431-21.054-13.517-29.743" fill="url(#b)" opacity=".25" style="mix-blend-mode:overlay"/>
</g>
</g>
</g>
</g>
</g>
<path d="m441.3 225.33-0.693 12.847c-0.66 12.223-9.235 22.577-21.12 25.503l-8.21-42.54s26.572 0.862 28.175 1.231c1.601 0.37 1.848 2.959 1.848 2.959z" fill="#BD4035"/>
<path d="m497.28 353.26c0 0.032-7e-3 0.064-7e-3 0.096-0.313 6.163-2.97 12.017-7.376 16.336-4.842 4.745-11.389 8.525-19.025 10.541-7.761 2.046-15.436 1.952-22.059 0.131-0.236-1.881-0.314-3.797-0.22-5.75 0.88-18.322 16.447-32.466 34.776-31.585 0.705 0.034 1.403 0.091 2.095 0.171 1.716 0.187 3.389 0.507 5.017 0.949 2.199 0.807 4.365 1.706 6.486 2.69 0.309 2.09 0.417 4.234 0.311 6.421" fill="#FFCF8E"/>
<path d="m496.07 359.75c-1.001 3.061-2.605 5.912-4.722 8.376-0.458 0.54-0.945 1.06-1.455 1.561-1.343 1.315-2.817 2.56-4.409 3.704-6.931-8.054-3.354-19.478-3.354-19.478 4.852 1.449 9.527 3.404 13.94 5.837z" fill="#F5A15D"/>
<path d="m392.98 341.77c7.953 7.193 29.434 23.531 56.974 19.645l2.209 18.651s-21.788 21.659-68.959-10.054l-19.805-37.181 21.105 4.577c3.16 0.685 6.077 2.193 8.476 4.362z" fill="#77B02A"/>
<path d="m435.79 362.63-1.714 21.285c-0.162 2.002 1.686 3.573 3.635 3.093l13.236-3.256c1.424-0.351 2.373-1.695 2.225-3.154l-1.905-18.823c-0.161-1.595-1.571-2.768-3.17-2.636l-9.616 0.795c-1.436 0.119-2.575 1.26-2.691 2.696z" fill="#C6D831"/>
<path d="m459.04 358.1-3.908 10.968 12.216 6.41c3.838 2.01 8.276 1.57 11.581-0.709 2.525-1.743 2.278-5.545-0.471-6.906l-19.418-9.763z" fill="#FFCF8E"/>
<path d="m475.33 356.58-6.22 9.843 10.511 8.936c3.304 2.803 7.73 3.348 11.454 1.849 2.846-1.145 3.44-4.909 1.057-6.841l-16.802-13.787z" fill="#FFCF8E"/>
<path d="m510.77 360.23c-0.34 0.381-0.736 0.712-1.193 0.977-3.463 2.002-7.022 2.48-9.546 0.885-5.552-3.534-11.574-6.29-17.901-8.178 1.072-3.578 2.138-7.151 3.21-10.723 1.715 0.188 3.389 0.508 5.016 0.949 2.958 1.083 5.85 2.332 8.663 3.741 4.161 2.088 8.147 4.513 11.913 7.277 1.497 1.095 1.241 3.479-0.162 5.072z" fill="#FFCF8E"/>
<path d="m443.21 376.82c-0.072 1.484-1.333 2.629-2.816 2.558-1.484-0.072-2.629-1.332-2.558-2.816 0.072-1.484 1.332-2.629 2.816-2.557 1.484 0.071 2.629 1.331 2.558 2.815z" fill="#77B02A"/>
<path d="m379.9 338.45 3.46 3.613c5.442 5.685 8.48 13.25 8.48 21.119v44.147h-34.552l-5.04-63.495 27.652-5.384z" fill="#77B02A"/>
<path d="m531.32 385.94-10.352 1.873 0.123-3.958c0.027-0.867 0.655-1.597 1.509-1.751l5.191-0.94c0.854-0.154 1.699 0.309 2.028 1.112l1.501 3.664z" fill="#5B537D"/>
<path d="m517.58 388.43-10.352 1.873 0.122-3.958c0.028-0.867 0.656-1.597 1.51-1.751l5.191-0.939c0.853-0.155 1.699 0.309 2.028 1.111l1.501 3.664z" fill="#5B537D"/>
<path d="m506.28 390.48-10.352 1.873 0.122-3.958c0.027-0.866 0.657-1.596 1.51-1.751l5.191-0.94c0.853-0.154 1.699 0.309 2.028 1.112l1.501 3.664z" fill="#5B537D"/>
<path d="m494.99 392.52-10.353 1.873 0.123-3.958c0.027-0.868 0.656-1.597 1.509-1.752l5.191-0.939c0.854-0.154 1.699 0.309 2.028 1.112l1.502 3.664z" fill="#5B537D"/>
<path d="m534.42 385-57.387 10.2c-0.821 0.146-1.446 0.816-1.534 1.646l-0.896 8.41c-0.117 1.107 0.75 2.071 1.863 2.071h59.152c1.069 0 1.921-0.893 1.871-1.96l-0.871-18.611c-0.052-1.128-1.085-1.954-2.198-1.756z" fill="#928FB8"/>
<path d="m358.3 273.53-22.109 62.369c-1.584 17.105 42.013 21.142 43.598 4.037l4.028-51.931-25.517-14.475z" fill="#FFCF8E"/>
<path d="m355.31 319.99c0 10.69-2.968 20.588-8.015 28.683-6.728-2.444-11.665-6.815-11.111-12.775l13.958-39.366c3.297 6.985 5.168 14.974 5.168 23.458z" fill="#F5A15D"/>
<path d="m381.22 321.56-0.799 10.257c-12.884-8.764-21.124-23.513-21.149-39.859 2.438 9.733 7.784 18.211 15.018 24.55 2.152 1.883 4.474 3.577 6.93 5.052z" fill="#F5A15D"/>
<path d="m482.31 407.33h-33.34c-0.992 0-1.796-0.804-1.796-1.796 0-9.785 7.932-17.718 17.717-17.718h11.031c7.153 0 12.951 5.799 12.951 12.951 0 3.625-2.939 6.563-6.563 6.563z" fill="#FFCF8E"/>
<path d="m324.97 336.37s23.351-4.832 43.643 16.265c20.292 21.098 33.981 34.464 67.156 34.464v20.236h-141.24v-62.752l30.438-8.213z" fill="#C6D831"/>
<path d="m450.51 407.33h-20.016c-2.104 0-3.656-1.965-3.167-4.011l4.111-17.25c0.349-1.466 1.66-2.5 3.166-2.5h16.82c1.865 0 3.349 1.564 3.251 3.427l-0.914 17.25c-0.091 1.729-1.52 3.084-3.251 3.084z" fill="#77B02A"/>
<path d="m440.48 400.38c0 1.55-1.258 2.807-2.808 2.807-1.551 0-2.809-1.257-2.809-2.807 0-1.552 1.258-2.808 2.809-2.808 1.55 0 2.808 1.256 2.808 2.808z" fill="#C6D831"/>
<path d="m437.43 292.15-4.373-19.071 1.642-42.082 0.447-17.161-72.524 12.833-2.813 30.454c-2.73 6.022-4.281 12.848-4.281 20.091 0 24.255 17.287 43.916 38.612 43.916 14.364 0 24.977-5.394 30.766-22.458l9.108-1.458c2.389-0.382 3.957-2.706 3.416-5.064z" fill="#FFCF8E"/>
<path d="m424.91 295.38v12.341c0 11.095-8.994 20.089-20.089 20.089-24.21 0-44.678-17.928-47.868-41.927l-0.037-0.282 17.313-11.21 50.681 20.989z" fill="#FFCF8E"/>
<path d="m350.62 254.64-5.885-52.536c-1.422-12.699 11.018-22.455 23.011-18.045l34.015 12.505c15.471 5.688 32.581 4.897 47.461-2.196l0.757-0.361c4.434-2.113 9.642 0.698 10.308 5.564 2.821 20.624-16.313 37.442-36.404 31.998l-14.061-3.81c-17.377-4.709-34.855 7.203-36.826 25.098l-0.77 6.984c-0.401 3.639-3.475 6.393-7.136 6.393h-7.291c-3.965 0-7.179-3.214-7.179-7.18v-4.414z" fill="#ED7B39"/>
<path d="m460.56 203.63c0 1.03-0.054 2.048-0.158 3.047-7.314 1.585-15.396 2.463-23.903 2.463-26.775 0-49.417-8.716-56.847-20.692l22.1 8.124c15.474 5.687 32.582 4.894 47.46-2.2l0.762-0.359c4.431-2.109 9.635 0.7 10.306 5.564 0.189 1.371 0.28 2.718 0.28 4.053z" fill="#FFB84A"/>
<path d="m398.25 300.13c0.29 1.411 0.955 2.718 1.858 3.881 0.905 1.159 2.074 2.162 3.403 2.886 1.327 0.725 2.799 1.172 4.263 1.315 1.465 0.136 2.922 0 4.269-0.502 0.703-0.262 1.062-1.044 0.799-1.749-0.138-0.37-0.42-0.645-0.76-0.784l-0.066-0.027c-1.188-0.48-2.273-0.839-3.284-1.253-1.012-0.403-1.945-0.836-2.842-1.33-0.893-0.501-1.757-1.056-2.639-1.693-0.889-0.632-1.775-1.352-2.826-2.093l-0.056-0.039c-0.615-0.433-1.465-0.286-1.899 0.33-0.224 0.318-0.292 0.704-0.22 1.058" fill="#F5A15D"/>
<path d="m416.65 270.86c-2.095-0.256-3.586-2.161-3.33-4.256l0.69-5.658c0.256-2.095 2.162-3.586 4.257-3.33 2.095 0.255 3.586 2.161 3.33 4.256l-0.69 5.658c-0.256 2.095-2.162 3.586-4.257 3.33z" fill="#0E0F2C"/>
<path d="m436.31 264.66c0 0.153-0.013 0.311-0.031 0.47l-0.689 5.656c-0.17 1.414-1.096 2.553-2.322 3.059l-2.779-12.433c0.707-0.446 1.567-0.652 2.462-0.543 1.939 0.238 3.359 1.884 3.359 3.791" fill="#0E0F2C"/>
<path d="m425.96 264.34c-0.77 5.275-2.736 10.026-5.538 13.378-2.592 3.103-5.555 4.593-8.354 4.179-2.795-0.407-5.215-2.677-6.814-6.39-1.727-4.013-2.255-9.129-1.485-14.404s2.736-10.027 5.538-13.379c2.311-2.766 4.919-4.246 7.438-4.246 0.307 0 0.613 0.023 0.916 0.067 6.015 0.877 9.815 10.399 8.299 20.795zm18.5-10.722c-0.517-2.601-1.328-4.766-2.419-6.417-1.755-2.688-3.895-3.529-5.382-3.767-0.348-0.055-0.713-0.085-1.085-0.085-1.627 0-3.224 0.56-4.741 1.657-1.081 0.778-2.119 1.844-3.107 3.162-2.045-4.548-5.378-7.635-9.537-8.242-4.095-0.597-8.25 1.339-11.689 5.453-2.839 3.398-4.925 7.98-5.975 13.073l-52.17-3.64c-0.929-0.065-1.736 0.635-1.8 1.565l-0.055 0.79c-0.065 0.93 0.635 1.735 1.564 1.8l51.852 3.617c-0.471 5.228 0.214 10.266 1.98 14.368 2.119 4.925 5.544 7.967 9.643 8.564 0.489 0.071 0.976 0.107 1.464 0.107 3.613 0 7.196-1.935 10.225-5.559 3.229-3.865 5.485-9.261 6.35-15.197 0.644-4.412 0.468-8.607-0.376-12.257 1.172-2.098 2.459-3.702 3.776-4.641 0.865-0.622 1.736-0.963 2.596-0.963 0.176 0 0.348 0.012 0.518 0.042 1.122 0.177 2.096 0.939 2.895 2.158 0.829 1.261 1.468 3.017 1.89 5.132 0.78 3.882 0.828 8.972-0.044 14.426-0.999 6.223-2.974 11.629-5.295 15.103l0.841 3.681c0.835-0.219 1.578-0.731 2.084-1.475 2.743-4.029 4.925-10.129 5.978-16.73 0.909-5.68 0.915-11.263 0.019-15.725" fill="#52294B"/>
<path d="m339.68 268.52c0 8.388 5.63 15.187 12.574 15.187s12.574-6.799 12.574-15.187c0-8.387-5.63-15.186-12.574-15.186s-12.574 6.799-12.574 15.186z" fill="#FFCF8E"/>
<path d="m353.32 276.38c1.266-0.543 2.328-1.392 3.187-2.42 0.855-1.03 1.489-2.258 1.81-3.57 0.324-1.311 0.341-2.691 0.072-4.001-0.277-1.31-0.812-2.559-1.665-3.635-0.446-0.562-1.292-0.715-1.891-0.342-0.315 0.196-0.499 0.499-0.537 0.825l-7e-3 0.064c-0.128 1.139-0.17 2.162-0.285 3.132-0.104 0.968-0.258 1.873-0.48 2.76-0.23 0.883-0.52 1.754-0.883 2.656-0.357 0.908-0.798 1.831-1.213 2.902l-0.022 0.057c-0.243 0.627 0.134 1.342 0.841 1.595 0.367 0.132 0.755 0.112 1.073-0.023" fill="#F5A15D"/>
<path d="m351.49 340.36c-6.826 17.249-22.051 29.249-39.738 29.249-6.119 0-11.939-1.438-17.217-4.028v-21.003l30.437-8.216s12.135-2.511 26.518 3.998z" fill="#77B02A"/>
<g opacity=".25" style="mix-blend-mode:overlay">
<g opacity=".25" style="mix-blend-mode:overlay">
<g opacity=".25" style="mix-blend-mode:overlay">
<g opacity=".25" style="mix-blend-mode:overlay">
<g opacity=".25" style="mix-blend-mode:overlay">
<path d="m536.62 386.76c-0.053-1.128-1.085-1.954-2.199-1.756l-3.246 0.577-1.352-3.301c-0.33-0.802-1.174-1.266-2.028-1.111l-5.191 0.939c-0.854 0.155-1.483 0.884-1.51 1.751l-0.109 3.534-3.566 0.633-1.335-3.26c-0.33-0.802-1.175-1.266-2.029-1.111l-5.191 0.939c-0.853 0.154-1.482 0.884-1.509 1.752l-0.108 3.488-1.14 0.203-1.323-3.226c-0.329-0.804-1.174-1.267-2.028-1.113l-5.19 0.939c-0.854 0.155-1.483 0.885-1.51 1.752l-0.107 3.453-1.155 0.205-1.308-3.192c-0.33-0.803-1.174-1.266-2.028-1.112l-5.191 0.939c-0.854 0.155-1.483 0.885-1.51 1.752l-0.027 0.856c-2.311-2.148-5.4-3.473-8.804-3.473h-11.032c-3.905 0-7.513 1.267-10.442 3.407l0.224-4.227c0.099-1.849-1.364-3.403-3.21-3.426 0.926-0.419 1.56-1.294 1.691-2.296 5.537 0.843 11.598 0.565 17.715-1.047 3.601-0.951 6.955-2.298 10.008-3.949 3.117 1.979 6.926 2.24 10.196 0.924 2.845-1.145 3.439-4.91 1.057-6.841l-1.608-1.32c0.04-0.042 0.083-0.084 0.123-0.127 1.075-1.15 2.033-2.394 2.864-3.715 8e-3 -0.011 0.015-0.024 0.022-0.036 0.2-0.318 0.392-0.639 0.576-0.965 0.069-0.121 0.131-0.246 0.198-0.369 0.12-0.221 0.241-0.442 0.355-0.667 0.068-0.136 0.131-0.274 0.197-0.411 0.106-0.22 0.212-0.44 0.311-0.663 0.056-0.124 0.107-0.251 0.161-0.375 0.104-0.247 0.207-0.493 0.304-0.742 0.037-0.096 0.072-0.193 0.108-0.29 0.108-0.29 0.212-0.581 0.309-0.875 7e-3 -0.019 0.015-0.038 0.021-0.057 1.344 0.738 2.666 1.516 3.962 2.34 2.524 1.595 6.083 1.117 9.546-0.885 0.457-0.265 0.853-0.596 1.193-0.977 1.403-1.593 1.657-3.977 0.162-5.072-3.766-2.764-7.753-5.189-11.913-7.276-0.678-0.34-1.362-0.67-2.05-0.991 0-0.019-6e-3 -0.037-7e-3 -0.055-2.12-0.985-4.287-1.884-6.486-2.69-1.628-0.442-3.301-0.762-5.017-0.949-0.692-0.08-1.39-0.138-2.095-0.171-14.128-0.68-26.607 7.574-31.992 19.782l-0.105-1.033c-0.162-1.596-1.571-2.769-3.17-2.636l-9.616 0.795c-1.12 0.093-2.052 0.811-2.466 1.802-20.742-1.915-36.485-14.04-43.037-19.967-2.399-2.168-5.316-3.677-8.476-4.362l-4.449-0.965 0.359-4.622 0.793-10.184c7.012 3.937 15.077 6.173 23.611 6.173 11.096 0 20.09-8.994 20.09-20.089v-9.044l9.107-1.458c2.39-0.382 3.957-2.706 3.417-5.064l-4.373-19.071 6e-3 -0.129 0.198 0.887c1.226-0.506 2.152-1.645 2.322-3.059l0.689-5.657c0.018-0.158 0.03-0.316 0.03-0.469 0-1.709-1.142-3.198-2.773-3.663l0.234-6c1.783-2.036 3.266-4.33 4.395-6.812 0.292 0.293 0.57 0.633 0.826 1.025 0.829 1.262 1.469 3.016 1.89 5.131 0.78 3.883 0.828 8.972-0.043 14.427-1 6.222-2.974 11.628-5.296 15.102l0.841 3.682c0.835-0.22 1.578-0.732 2.084-1.475 2.743-4.029 4.925-10.13 5.979-16.73 0.908-5.68 0.914-11.263 0.018-15.725-0.518-2.602-1.328-4.766-2.419-6.418-0.798-1.22-1.674-2.057-2.533-2.633 0.605-2.047 0.985-4.185 1.103-6.386l0.388-7.187c12.408-4.334 21.265-16.932 19.283-31.419-0.666-4.866-5.874-7.677-10.307-5.564l-0.757 0.361c-14.88 7.093-31.99 7.884-47.461 2.196l-34.015-12.505c-11.993-4.409-24.434 5.346-23.011 18.045l5.755 51.382c-6.109 1.035-10.811 7.369-10.811 15.034 0 8.388 5.629 15.186 12.574 15.186 0.875 0 1.727-0.107 2.551-0.312l-18.613 52.501c-8e-3 0.092-8e-3 0.181-0.014 0.272-6.733-0.729-11.206 0.197-11.206 0.197l-30.438 8.213v62.751h241.09c1.069 0 1.921-0.892 1.871-1.959l-0.871-18.611z" fill="url(#a)" opacity=".25" style="mix-blend-mode:overlay"/>
</g>
</g>
</g>
</g>
</g>
<path d="m218.87 218.5h-13.488c-0.183-29.663-22.038-45.333-45.107-46.997-23.075 1.664-44.931 17.327-45.114 46.997h-13.487c0-34.088 27.036-51.123 54.066-51.123h9.057c27.036 0 54.073 17.035 54.073 51.123z" fill="#C7D4E1"/>
<path d="m160.27 171.5c-23.075 1.664-44.931 17.328-45.114 46.997-6e-3 0.128-6e-3 0.256-6e-3 0.384h-8.258c0-0.128 0-0.256 6e-3 -0.384 0.207-33.198 27.548-48.868 53.372-46.997z" fill="#C7D4E1"/>
<path d="m205.6 302.19c0 8.656-7.016 15.672-15.67 15.672-8.656 0-15.672-7.016-15.672-15.672 0-8.654 7.016-15.67 15.672-15.67 8.654 0 15.67 7.016 15.67 15.67z" fill="#0E0F2C"/>
<path d="m138.1 315.31s-22.531 18.878-24.177 30.045c-1.647 11.166 35.146-4.653 35.146-4.653l-10.969-25.392z" fill="#F5A15D"/>
<path d="m183.37 297.72c-0.488 2.621-1.152 5.132-1.975 7.515-5.345 15.638-17.199 25.701-28.688 23.281-5.644-1.188-10.288-5.205-13.469-10.952-4.279-7.728-5.918-18.589-3.797-29.943 3.699-19.797 17.431-33.589 30.662-30.798 13.238 2.786 20.966 21.101 17.267 40.897z" fill="#9C3247"/>
<path d="m183.37 297.72c-0.488 2.621-1.152 5.132-1.975 7.515-1.109 3.236-2.493 6.235-4.09 8.929-11.775 4.455-24.391 6.253-36.922 5.29-0.402-0.603-0.786-1.237-1.145-1.889-4.279-7.729-5.919-18.589-3.798-29.944 3.7-19.796 17.432-33.588 30.663-30.797 13.238 2.786 20.966 21.101 17.267 40.896z" fill="#691749"/>
<path d="m210.24 395.42h-49.984l-21.027-77.861c3.182 5.748 7.826 9.765 13.47 10.953 11.488 2.419 23.343-7.643 28.688-23.282 0.475 0.323 0.951 0.652 1.426 0.987 17.053 11.915 35.24 29.335 37.324 41.511 3.34 19.504-9.897 47.692-9.897 47.692z" fill="#FFCF8E"/>
<path d="m114.45 263.27c0 12.842-6.107 23.251-13.646 23.251-0.287 0-0.585-0.018-0.8838-0.048-7.4966-0.75-17.961-10.855-17.961-23.203 0-10.983 8.2767-20.192 15.389-22.618 0.0183-0.012 0.0365-0.018 0.061-0.024 1.8406 1.42 4.0038 2.432 6.3628 2.913 1.006 0.207 2.048 0.317 3.121 0.317 0.463 0 0.92-0.018 1.371-0.061 3.724 4.151 6.186 11.324 6.186 19.473z" fill="#F5A15D"/>
<path d="m91.019 263.27c0 5.205-1.8345 10.014-4.5284 13.903-2.6939-3.896-4.5284-8.698-4.5284-13.903 0-5.199 1.8345-10.008 4.5284-13.902 2.6939 3.894 4.5284 8.703 4.5284 13.902z" fill="#FAFFFF"/>
<path d="m222.68 231.96h-26.816v-26.5h-87.277l-2.993 22.026-5.7592 50.953c-1.9869 17.571 10.532 33.473 28.078 35.672l6.589 0.829c14.554 1.823 29.34-0.109 42.937-5.625l18.425-9.788v-11.046h26.816v-56.521z" fill="#9C3247"/>
<path d="m257.13 259.42c0 7.68-5.553 14.055-12.86 15.335-0.244 7.838-6.266 14.212-13.945 15.005 0.012 0.268 0.018 0.536 0.018 0.805 0 4.565-1.962 8.666-5.089 11.519 1.42 1.87 2.273 4.199 2.273 6.734 0 6.174-4.997 11.172-11.171 11.172-3.84 0-7.229-1.939-9.24-4.894-1.633 2.194-4.236 3.62-7.18 3.62-4.949 0-8.959-4.01-8.959-8.953 0-2.499 1.018-4.748 2.663-6.375-0.889-0.348-1.724-0.805-2.486-1.366-2.786-2.023-4.602-5.308-4.602-9.026 0-6.167 4.998-11.171 11.166-11.171 0.762 0 1.505 0.079 2.218 0.231 0.524 0.109 1.03 0.25 1.524 0.427 2.468-4.054 6.735-6.894 11.696-7.406-0.012-0.267-0.018-0.535-0.018-0.804 0-7.674 5.552-14.049 12.86-15.328 0.048-1.518 0.31-2.98 0.761-4.364-0.317-0.202-0.621-0.42-0.92-0.646-2.852 3.358-7.106 5.485-11.86 5.485-6.187 0-11.532-3.608-14.043-8.837-0.719-1.499-1.206-3.139-1.414-4.858-2.236 1.243-4.808 1.95-7.545 1.95-7.448 0-13.677-5.235-15.206-12.225-1 0.201-2.036 0.31-3.09 0.31-7.777 0-14.214-5.698-15.384-13.146-2.371 1.457-5.156 2.304-8.142 2.304-4.096 0-7.82-1.585-10.599-4.175-2.731 4.516-7.68 7.539-13.342 7.539-0.938 0-1.858-0.091-2.754-0.25 0 0.086 6e-3 0.165 6e-3 0.25 0 8.137-6.241 14.817-14.201 15.511-0.451 0.043-0.908 0.061-1.371 0.061-1.073 0-2.115-0.11-3.121-0.317-2.359-0.482-4.5223-1.493-6.3629-2.913-0.0183-0.012-0.0427-0.024-0.061-0.043v0.067c-7.1125 2.426-15.389 11.635-15.389 22.618 0 12.348 10.465 22.453 17.961 23.203 1.1339 8.288 5.4489 15.706 11.812 20.807-2.718 2.298-6.229 3.687-10.063 3.687-6.1066 0-11.385-3.516-13.938-8.629-4.5589-0.421-8.1243-4.249-8.1243-8.918 0-0.938 0.1463-1.84 0.4144-2.687-0.6034-0.372-1.1641-0.786-1.6943-1.25-0.256 0.013-0.512 0.037-0.768 0.037-7.0943 0-12.848-5.754-12.848-12.841 0-0.866 0.0914-1.707 0.2499-2.524-4.7844-2.657-8.0268-7.759-8.0268-13.622 0-6.729 4.2663-12.457 10.245-14.633-0.6278-1.688-0.9691-3.504-0.9691-5.412 0-8.6 6.9724-15.566 15.572-15.566 0.9691 0 1.9138 0.091 2.828 0.256-0.3596-1.317-0.5607-2.706-0.5607-4.145 0-8.599 6.9724-15.572 15.572-15.572 1.0545 0 2.0845 0.104 3.0775 0.304-0.164-0.919-0.262-1.87-0.262-2.839 0-8.6 6.973-15.572 15.572-15.572 0.799 0 1.579 0.061 2.347 0.176 2.407-5.491 7.887-9.325 14.262-9.325 4.735 0 8.971 2.115 11.824 5.443 2.858-3.328 7.094-5.443 11.823-5.443 4.651 0 8.82 2.042 11.672 5.266 2.639-2.054 5.954-3.285 9.563-3.285 7.228 0 13.304 4.931 15.06 11.605 0.128 0 0.262-0.013 0.396-0.013 8.6 0 15.572 6.973 15.572 15.573 0 0.829-0.067 1.639-0.189 2.431 2.414-1.535 5.272-2.431 8.35-2.431 8.6 0 15.572 6.972 15.572 15.571 0 1.073-0.11 2.122-0.317 3.133 0.445-0.037 0.896-0.061 1.347-0.061 8.6 0 15.572 6.973 15.572 15.572 0 1.689-0.274 3.316-0.768 4.84 4.236 2.779 7.034 7.575 7.034 13.018" fill="#0E0F2C"/>
<path d="m230.81 253.97c-4.723 0.847-9.483 2.505-14.036 5.016-0.677 0.372-1.353 0.768-2.017 1.176-5.614 3.462-10.203 7.863-13.61 12.75-1.499 2.146-2.761 4.383-3.785 6.674-2.401-4.229-3.87-9.977-3.87-16.315 0-12.983 6.18-23.502 13.799-23.502h6.442c3.309 0 7.338 1.987 10.842 5.297 0.061 0.054 0.122 0.115 0.183 0.176 0.085 0.085 0.177 0.171 0.262 0.256 0.134 0.134 0.268 0.268 0.396 0.403 0.141 0.145 0.275 0.286 0.415 0.438 0.134 0.147 0.268 0.292 0.402 0.445 0.134 0.152 0.268 0.305 0.396 0.464 0.134 0.152 0.262 0.31 0.39 0.468 0.134 0.166 0.256 0.324 0.384 0.488 0.378 0.488 0.744 0.993 1.091 1.518l0.348 0.53c0.341 0.531 0.664 1.079 0.963 1.64 0.201 0.377 0.396 0.755 0.585 1.146 0.146 0.304 0.286 0.609 0.414 0.919 0 0 6e-3 6e-3 6e-3 0.013" fill="#FAFFFF"/>
<path d="m230.81 253.97c-4.723 0.847-9.483 2.505-14.036 5.016-0.677 0.372-1.353 0.768-2.017 1.176-5.614 3.462-10.203 7.863-13.61 12.75-0.78-2.944-1.213-6.204-1.213-9.641 0-12.983 6.18-23.502 13.799-23.502 3.309 0 7.338 1.987 10.842 5.297 0.061 0.054 0.122 0.115 0.183 0.177 0.085 0.084 0.177 0.17 0.262 0.256 0.134 0.133 0.268 0.267 0.396 0.402 0.14 0.146 0.275 0.286 0.415 0.438 0.134 0.147 0.268 0.293 0.402 0.445s0.268 0.305 0.396 0.464c0.134 0.152 0.262 0.31 0.39 0.468 0.134 0.166 0.256 0.324 0.384 0.488 0.378 0.488 0.744 0.994 1.091 1.518l0.348 0.53c0.341 0.531 0.664 1.079 0.963 1.64 0.201 0.377 0.396 0.755 0.585 1.146 0.146 0.305 0.286 0.609 0.414 0.92 0 0 6e-3 6e-3 6e-3 0.012" fill="#F5A15D"/>
<path d="m230.81 253.97c-4.723 0.847-9.483 2.505-14.036 5.016 1.079-5.583 4.15-10.471 7.801-13.92 0.061 0.054 0.122 0.115 0.183 0.177 0.085 0.084 0.177 0.17 0.262 0.256 0.134 0.133 0.268 0.267 0.396 0.402 0.14 0.145 0.275 0.286 0.415 0.438 0.134 0.147 0.268 0.293 0.402 0.445s0.268 0.305 0.396 0.464c0.134 0.152 0.262 0.31 0.39 0.468 0.134 0.166 0.256 0.324 0.384 0.488 0.378 0.488 0.744 0.993 1.091 1.518l0.348 0.53c0.335 0.531 0.658 1.079 0.963 1.64 0.201 0.377 0.396 0.755 0.585 1.146 0.146 0.304 0.286 0.609 0.414 0.919 0 0 6e-3 7e-3 6e-3 0.013" fill="#FAFFFF"/>
<path d="m232.78 263.27c0 0.231-6e-3 0.457-0.013 0.688-6e-3 0.226-0.018 0.451-0.03 0.683-0.012 0.159-0.024 0.322-0.036 0.494-0.012 0.14-0.025 0.274-0.037 0.414-0.128 1.225-0.354 2.426-0.664 3.596-0.049 0.188-0.104 0.372-0.159 0.561-0.164 0.56-0.347 1.121-0.548 1.67-0.067 0.17-0.134 0.34-0.202 0.512-0.121 0.304-0.243 0.609-0.377 0.902-0.287 0.646-0.597 1.274-0.927 1.889-0.097 0.177-0.195 0.354-0.298 0.53-0.104 0.183-0.213 0.365-0.323 0.548-1.097 1.823-2.383 3.474-3.779 4.913-0.244 0.25-0.494 0.5-0.744 0.738l-0.073 0.073h-6e-3c-4.559-4.315-8.209-10.873-8.209-18.211 0-1.463 0.146-2.895 0.413-4.285 4.554-2.511 9.314-4.169 14.037-5.016 0.025 0.048 0.049 0.097 0.067 0.152 0.08 0.177 0.147 0.353 0.219 0.53 0.098 0.251 0.196 0.512 0.293 0.775 0.073 0.201 0.147 0.408 0.214 0.615 0.054 0.171 0.109 0.341 0.158 0.512 0.524 1.713 0.866 3.504 0.981 5.352 0.013 0.225 0.025 0.451 0.03 0.682 7e-3 0.226 0.013 0.451 0.013 0.683" fill="#C7D4E1"/>
<path d="m224.57 281.48c-3.504 3.309-7.527 5.296-10.836 5.296-5.601 0-10.428-5.692-12.586-13.866 3.407-4.887 7.996-9.288 13.61-12.75 0.664-0.408 1.34-0.804 2.017-1.176-0.268 1.39-0.414 2.822-0.414 4.285 0 7.338 3.651 13.896 8.209 18.211z" fill="#D46453"/>
<path d="m213.73 286.78h-6.442c-3.9 0-7.423-2.755-9.928-7.192 1.024-2.292 2.285-4.528 3.785-6.674 2.157 8.173 6.984 13.866 12.585 13.866z" fill="#C7D4E1"/>
<path d="m220.54 358.5c-8.922-2.719-21.148-1.494-28.243-0.39l2.493-6.382c-8.405-7.697-13.78-19.43-13.78-32.57 0-4.516 0.634-8.862 1.81-12.939 17.053 11.916 35.24 29.334 37.324 41.511 0.579 3.389 0.659 7.046 0.396 10.77z" fill="#F5A15D"/>
<path d="m220.54 358.5c-0.061 0.841-0.134 1.682-0.232 2.529-1.865 16.937-10.062 34.393-10.062 34.393h-32.534l14.054-35.966 0.53-1.347c7.095-1.103 19.321-2.328 28.244 0.391z" fill="#9C3247"/>
<path d="m194.76 402.04-15.462 3.234-7.424-14.555c-2.327-4.574-1.231-9.559 2.26-13.058 2.668-2.673 7.85-1.977 9.41 1.289l11.216 23.09z" fill="#9C3247"/>
<path d="m200.36 391.11c0 5.345-4.332 9.677-9.676 9.677-5.345 0-9.678-4.332-9.678-9.677s4.333-9.677 9.678-9.677c5.344 0 9.676 4.332 9.676 9.677z" fill="#D46453"/>
<path d="m119.6 340.12c0 8.739-7.085 15.824-15.824 15.824-8.7395 0-15.824-7.085-15.824-15.824 0-8.74 7.0846-15.824 15.824-15.824 8.739 0 15.824 7.084 15.824 15.824z" fill="#9C3247"/>
<path d="m102.47 309.66c-0.436 0.306-0.828 0.676-1.157 1.118-2.4954 3.348-3.4217 6.981-2.0742 9.791 2.9922 6.186 5.1212 12.764 6.3132 19.552 3.84-0.678 7.674-1.35 11.507-2.03 0.013-1.801-0.116-3.575-0.376-5.316-0.765-3.198-1.711-6.347-2.831-9.436-1.662-4.567-3.693-8.994-6.104-13.234-0.954-1.683-3.457-1.708-5.278-0.445z" fill="#9C3247"/>
<path d="m215.1 407.06h-89.803v-11.401h89.803c2.784 0 5.042 2.257 5.042 5.042v1.316c0 2.786-2.258 5.043-5.042 5.043z" fill="#5B537D"/>
<path d="m55.473 335.62h99.578c1.434 0 2.694 0.95 3.09 2.328l18.647 65.014c0.588 2.054-0.954 4.1-3.09 4.1h-99.578c-1.4341 0-2.6945-0.95-3.0895-2.328l-18.647-65.013c-0.5894-2.055 0.9526-4.101 3.0895-4.101z" fill="#928FB8"/>
<path d="m151.53 339.72 0.463 1.615h-99.143l-0.4632-1.615c-0.5912-2.054 0.9508-4.096 3.0901-4.096h99.143c-2.133 0-3.675 2.042-3.09 4.096z" fill="#C7D4E1"/>
<path d="m173.7 407.06h-0.426c-1.439 0-2.694-0.95-3.091-2.328l-18.186-63.404h7.118l17.675 61.631c0.591 2.054-0.951 4.101-3.09 4.101z" fill="#5B537D"/>
<path d="m95.695 371.34c1.7132 8.061 9.6369 14.594 17.696 14.594 8.06 0 13.205-6.533 11.492-14.594-1.713-8.06-9.636-14.594-17.696-14.594s-13.205 6.534-11.492 14.594z" fill="#5B537D"/>
<path d="m109.31 372.72 0.312 1.472c0.086 0.402 0.504 0.73 0.932 0.73 0.429 0 0.708-0.328 0.622-0.73l-0.313-1.472c-0.085-0.401-0.503-0.728-0.931-0.728-0.429 0-0.708 0.327-0.622 0.728z" fill="#928FB8"/>
<path d="m113.64 371.67c-0.777 0-1.274 0.632-1.109 1.409 0.165 0.776 0.931 1.408 1.707 1.408 0.777 0 1.275-0.632 1.11-1.408-0.165-0.777-0.932-1.409-1.708-1.409z" fill="#928FB8"/>
<path d="m104.98 373.08c0.165 0.777 0.931 1.41 1.708 1.41s1.275-0.633 1.11-1.41c-0.166-0.776-0.932-1.409-1.709-1.409-0.776 0-1.274 0.633-1.109 1.409z" fill="#928FB8"/>
<path d="m112.84 364.62-0.48 0.148-3.717 1.15-4.206-1.15-2.018-0.551 5.501-1.702 6.224 1.702-1.304 0.403zm-0.044 2.889c-0.028 0.043-0.184 0.226-0.868 0.4-0.695 0.177-1.712 0.28-2.789 0.281h-0.013c-1.076 0-2.137-0.102-2.913-0.279-0.765-0.174-1.002-0.36-1.048-0.404l-0.344-1.62 3.839 1.051 9e-3 2e-3c0.066 0.016 0.133 0.024 0.196 0.024 0.064 0 0.127-8e-3 0.185-0.024l3.401-1.053 0.345 1.622zm-6.932 9.024 0.269 0.955c0.078 0.272 0.342 0.49 0.615 0.507l2.869 0.202c0.01 1e-3 0.023 2e-3 0.04 2e-3 0.269 0 0.458-0.202 0.441-0.468l-0.057-0.874h1.854l0.316 0.874c0.096 0.266 0.371 0.468 0.64 0.468 0.015 0 0.029-1e-3 0.04-2e-3l2.781-0.202c0.266-0.017 0.437-0.235 0.4-0.506l-0.137-0.956 1.836-0.183 6e-3 0.026c9e-3 0.043 0.018 0.084 0.024 0.119 0.011 0.052 0.02 0.094 0.025 0.123l8e-3 0.038c0.542 2.55-2.829 3.471-6.164 3.482h-8e-3c-3.34-0.011-7.104-0.932-7.646-3.482-5e-3 -0.022-0.017-0.081-0.034-0.158-0.01-0.043-0.021-0.093-0.033-0.148l1.915 0.183zm12.847-7.489-1.956-2.236c-0.011-0.014-0.023-0.027-0.037-0.04l-0.563-2.646h-7e-3c-0.09-0.251-0.318-0.459-0.593-0.534l-7.65-2.091c-0.069-0.019-0.14-0.029-0.208-0.029s-0.133 0.01-0.194 0.029l-6.764 2.091c-0.271 0.084-0.414 0.336-0.352 0.629 0.062 0.291 0.312 0.544 0.621 0.628l2.716 0.743 0.412 1.947c0.013 0.061 0.032 0.122 0.056 0.181-0.051 0.041-0.099 0.085-0.145 0.13l-0.033 0.029-0.021 0.018c-0.012 0.013-0.026 0.023-0.037 0.035-1e-3 1e-3 -6e-3 5e-3 -0.012 0.011-0.055 0.049-0.11 0.099-0.166 0.151-0.345-0.184-0.689-0.357-1.021-0.511-0.152-0.069-0.31-0.105-0.458-0.105-0.265 0-0.498 0.112-0.638 0.309-0.457 0.653-0.798 1.273-1.042 1.9-0.121 0.307-0.037 0.689 0.22 0.997 0.38 0.451 0.736 0.848 1.087 1.211l0.738 3.473c0.031 0.145 0.097 0.289 0.19 0.421-0.041 0.138-0.045 0.288-0.01 0.442l2e-3 0.017 0.017 0.073c0.016 0.067 0.03 0.13 0.042 0.183l3e-3 0.015c0.016 0.071 0.027 0.121 0.031 0.141 0.238 1.121 1.056 2.669 3.598 3.666 1.362 0.534 3.141 0.849 5.011 0.889h0.688c1.857-0.04 3.502-0.355 4.635-0.889 2.118-0.997 2.277-2.545 2.039-3.666l-5e-3 -0.025c-5e-3 -0.027-0.014-0.071-0.026-0.126-7e-3 -0.041-0.018-0.089-0.029-0.142-9e-3 -0.043-0.018-0.088-0.027-0.133-0.03-0.156-0.098-0.307-0.197-0.444 0.038-0.133 0.04-0.277 9e-3 -0.422l-0.056-0.266c-2e-3 -0.017-6e-3 -0.035-0.01-0.051l-0.671-3.159 0.406-0.863c0.053-0.114 0.03-0.261-0.06-0.383s-0.233-0.198-0.371-0.198h-0.381c-0.123 0-0.226 0.061-0.273 0.164-0.125 0.274-0.256 0.529-0.398 0.779l-0.019 0.032 8e-3 0.041 0.673 3.535-1e-3 1e-3 9e-3 0.052 0.044 0.203-2.39 0.237c-0.259 0.024-0.423 0.236-0.385 0.505l0.134 0.945-1.816 0.132-0.302-0.84c-0.096-0.268-0.372-0.469-0.642-0.469h-2.799c-0.268 0-0.458 0.201-0.443 0.467l0.057 0.842-1.874-0.132-0.267-0.945c-0.077-0.269-0.33-0.481-0.601-0.505l-2.491-0.237-0.885-3.789-0.01-0.043-0.032-0.032c-0.365-0.368-0.727-0.766-1.104-1.214 0.208-0.52 0.495-1.043 0.876-1.592 0.47 0.221 0.943 0.47 1.409 0.739l0.105 0.061 0.095 0.057 0.057-0.07 0.063-0.08c0.144-0.18 0.312-0.334 0.491-0.495 0.021-0.019 0.043-0.039 0.064-0.058l0.043-0.04c0.055-0.051 0.113-0.102 0.178-0.153 1.242 0.614 3.398 0.682 4.281 0.682h0.013c1.171-1e-3 2.246-0.111 3.025-0.309 0.395-0.1 0.714-0.226 0.949-0.373 0.091 0.052 0.169 0.103 0.243 0.152 0.049 0.033 0.098 0.065 0.148 0.096l0.067 0.046c0.075 0.049 0.159 0.076 0.242 0.076 0.126 0 0.231-0.064 0.277-0.172l7e-3 -0.019 0.116-0.256c0.072-0.162-0.011-0.381-0.189-0.499l-0.014-8e-3 -0.015-0.011-4e-3 -2e-3 -2e-3 -2e-3 -0.021-0.011-5e-3 -5e-3 -0.01-6e-3c-0.037-0.023-0.072-0.046-0.106-0.069-0.068-0.046-0.136-0.092-0.211-0.137-2e-3 -0.06-9e-3 -0.12-0.022-0.18l-0.413-1.947 2.091-0.647 0.388 1.827c-8e-3 0.013-0.015 0.026-0.021 0.04l-1.005 2.237c-0.073 0.16-0.038 0.366 0.089 0.538 0.127 0.17 0.327 0.276 0.521 0.276h2.961c0.193 0 0.348-0.106 0.403-0.276 0.056-0.172 2e-3 -0.378-0.139-0.539" fill="#928FB8"/>
<path d="m209.67 403.79h-6.191c-1.372 0-2.485-1.112-2.485-2.485 0-1.372 1.113-2.485 2.485-2.485h6.191c1.372 0 2.485 1.113 2.485 2.485 0 1.373-1.113 2.485-2.485 2.485z" fill="#392946"/>
<path d="m193.78 403.79h-6.191c-1.373 0-2.485-1.112-2.485-2.485 0-1.372 1.112-2.485 2.485-2.485h6.191c1.372 0 2.485 1.113 2.485 2.485 0 1.373-1.113 2.485-2.485 2.485z" fill="#392946"/>
<path d="m122.4 268.83c-2.626 0-4.754-2.129-4.754-4.755v-7.09c0-2.625 2.128-4.754 4.754-4.754s4.755 2.129 4.755 4.754v7.09c0 2.626-2.129 4.755-4.755 4.755z" fill="#0E0F2C"/>
<path d="m178.79 276.48c4.721 9.472 0.871 20.977-8.6 25.698s-20.976 0.871-25.697-8.6c-4.722-9.471-0.872-20.976 8.599-25.697 9.471-4.722 20.976-0.871 25.698 8.599z" fill="#9C3247"/>
<path d="m149.34 291.16c-1.198 0.596-1.571 2.123-0.796 3.212 1.804 2.536 4.259 4.425 7.018 5.547 4.134 1.684 8.943 1.651 13.251-0.497 4.307-2.147 7.229-5.967 8.371-10.282 0.77-2.898 0.734-6.018-0.224-9.004-0.401-1.25-1.849-1.823-3.023-1.238l-24.597 12.262z" fill="#0E0F2C"/>
<path d="m177.18 289.14c-1.143 4.315-4.064 8.136-8.372 10.282-4.307 2.148-9.116 2.181-13.25 0.497 1.138-4.316 4.062-8.139 8.37-10.286 4.307-2.147 9.12-2.182 13.252-0.493z" fill="#FF417D"/>
<path d="m162.31 268.83c-2.626 0-4.755-2.129-4.755-4.755v-7.09c0-2.625 2.129-4.754 4.755-4.754 2.625 0 4.754 2.129 4.754 4.754v7.09c0 2.626-2.129 4.755-4.754 4.755z" fill="#0E0F2C"/>
<path d="m215.61 218.5h-7.137c-1.679 0-3.093-1.298-3.188-2.974-1.22-21.502-14.212-35.158-30.373-40.959-1.26-0.452-2.105-1.639-2.105-2.979 0-1.983 1.803-3.483 3.753-3.117 21.712 4.085 40.763 19.638 42.216 46.68 0.097 1.817-1.346 3.349-3.166 3.349z" fill="#FAFFFF"/>
<path d="m153.55 244.03c1.453-1.031 3.106-1.826 4.875-2.35 1.767-0.533 3.657-0.763 5.538-0.682 1.879 0.104 3.737 0.513 5.444 1.214 1.71 0.691 3.28 1.637 4.631 2.799 0.706 0.607 0.786 1.673 0.179 2.379-0.484 0.563-1.26 0.728-1.912 0.463l-0.043-0.018c-1.45-0.59-2.856-1.127-4.271-1.513-1.415-0.379-2.827-0.633-4.25-0.69-1.422-0.074-2.852 0.043-4.296 0.286-1.445 0.251-2.895 0.649-4.398 1.093l-0.042 0.013c-0.893 0.264-1.832-0.246-2.096-1.139-0.21-0.71 0.07-1.449 0.641-1.854" fill="#0E0F2C"/>
<path d="m174.42 247.08 1.325-2.449c0.553-1.022-0.381-2.212-1.506-1.92l-3.527 0.919 3.708 3.45z" fill="#0E0F2C"/>
<path d="m130.67 244.99c-1.472-0.854-3.113-1.465-4.842-1.809-1.727-0.354-3.544-0.407-5.326-0.165-1.777 0.262-3.509 0.813-5.071 1.629-1.566 0.806-2.977 1.844-4.16 3.066-0.619 0.64-0.602 1.659 0.037 2.277 0.51 0.494 1.261 0.583 1.859 0.274l0.039-0.02c1.328-0.688 2.617-1.322 3.93-1.812 1.312-0.484 2.634-0.848 3.982-1.027 1.346-0.194 2.716-0.207 4.11-0.103 1.396 0.113 2.811 0.365 4.278 0.656l0.041 8e-3c0.873 0.174 1.721-0.394 1.895-1.266 0.137-0.693-0.194-1.371-0.772-1.707" fill="#0E0F2C"/>
<path d="m111.08 249.71-1.473-2.213c-0.615-0.925 0.168-2.138 1.264-1.958l3.435 0.566-3.226 3.605z" fill="#0E0F2C"/>
<path d="m131.72 276.6c0.721 1.097 1.656 1.922 2.697 2.507 1.043 0.579 2.205 0.896 3.373 0.89 1.167-3e-3 2.327-0.321 3.369-0.9 1.041-0.587 1.976-1.408 2.7-2.497 0.378-0.568 0.329-1.426-0.11-1.917-0.231-0.258-0.523-0.363-0.804-0.321l-0.056 9e-3c-0.981 0.151-1.848 0.358-2.685 0.483-0.833 0.134-1.625 0.203-2.414 0.203-0.79-9e-3 -1.58-0.08-2.413-0.214-0.836-0.126-1.702-0.329-2.687-0.472l-0.053-8e-3c-0.576-0.084-1.096 0.455-1.16 1.203-0.034 0.387 0.064 0.758 0.243 1.034" fill="#691749"/>
<path d="m198.37 192.16c-1.097-0.25-2.237-0.378-3.407-0.378-0.134 0-0.268 0.012-0.396 0.012-1.756-6.674-7.832-11.604-15.061-11.604-3.608 0-6.923 1.231-9.562 3.285-2.853-3.224-7.021-5.266-11.672-5.266-4.729 0-8.965 2.115-11.824 5.443-2.852-3.328-7.088-5.443-11.823-5.443-6.375 0-11.855 3.834-14.262 9.325-0.768-0.116-1.548-0.177-2.347-0.177-8.599 0-15.572 6.973-15.572 15.572 0 0.969 0.098 1.92 0.262 2.84-0.993-0.201-2.023-0.304-3.0775-0.304-8.5997 0-15.572 6.972-15.572 15.572 0 1.438 0.2011 2.828 0.5607 4.144-0.9142-0.164-1.8589-0.256-2.828-0.256-8.5997 0-15.572 6.967-15.572 15.566 0 1.908 0.3413 3.724 0.969 5.413-5.9789 2.175-10.245 7.904-10.245 14.633 0 1.694 0.2682 3.328 0.7741 4.852l0.2633-0.444c1.375-2.314 2.3251-4.841 3.0151-7.443 0.9836-3.709 3.7318-6.81 7.4423-8.161l3.4618-1.262-1.286-3.45c-0.4876-1.322-0.7375-2.711-0.7375-4.138 0-6.57 5.3451-11.909 11.915-11.909 0.7131 0 1.4505 0.067 2.1758 0.195l5.7047 1.03-1.5237-5.589c-0.2864-1.049-0.4327-2.121-0.4327-3.181 0-6.57 5.3451-11.915 11.915-11.915 0.7985 0 1.5905 0.079 2.3525 0.231l5.272 1.067-0.951-5.297c-0.134-0.761-0.201-1.499-0.201-2.194 0-6.57 5.345-11.915 11.915-11.915 0.598 0 1.201 0.043 1.798 0.134l2.773 0.421 1.122-2.566c2.113-4.823 7.17-7.741 12.509-7.032 2.973 0.396 5.664 1.972 7.616 4.25l2.608 3.044 2.78-3.23c2.273-2.652 5.57-4.169 9.05-4.169 3.407 0 6.662 1.469 8.929 4.028l2.28 2.572 2.706-2.108c2.115-1.646 4.644-2.511 7.319-2.511 5.407 0 10.148 3.65 11.52 8.874l0.719 2.73h2.822c0.115 0 0.237-6e-3 0.359-0.012h0.037c1.548 0 4.112 0.298 5.471 0.841-0.286-1.39-1.699-2.761-2.064-4.12" fill="#691749"/>
<g opacity=".25" style="mix-blend-mode:overlay">
<g opacity=".25" style="mix-blend-mode:overlay">
<g opacity=".25" style="mix-blend-mode:overlay">
<g opacity=".25" style="mix-blend-mode:overlay">
<g opacity=".25" style="mix-blend-mode:overlay">
<path d="m86.52 277.13c3.7233 5.332 9.0592 8.91 13.402 9.345-4.3432-0.435-9.6791-4.013-13.402-9.345zm-4.2834-10.397c-0.0073-0.042-0.0128-0.085-0.0195-0.128 0.0067 0.043 0.0122 0.086 0.0195 0.128zm-0.1359-1.023c-0.0098-0.086-0.0195-0.172-0.0281-0.258 0.0086 0.086 0.0183 0.172 0.0281 0.258zm-0.0921-1.074c-0.0061-0.095-0.0134-0.189-0.0183-0.284 0.0049 0.095 0.0122 0.189 0.0183 0.284zm15.342-24.048c0.0183 0.018 0.0427 0.03 0.061 0.042-0.0244 6e-3 -0.0427 0.012-0.061 0.024v-0.066zm77.598-66.008c0.139 0.049 0.275 0.104 0.412 0.155 0.465 0.172 0.928 0.35 1.387 0.534 0.215 0.086 0.428 0.176 0.642 0.265 0.402 0.168 0.801 0.341 1.197 0.52 0.198 0.088 0.397 0.175 0.594 0.267 0.56 0.26 1.116 0.528 1.665 0.808 0.134 0.069 0.265 0.142 0.398 0.212 0.435 0.227 0.865 0.459 1.291 0.698 0.203 0.113 0.403 0.23 0.603 0.345 0.376 0.22 0.75 0.444 1.121 0.673 0.181 0.112 0.363 0.222 0.542 0.336 0.522 0.332 1.037 0.672 1.545 1.025 0.122 0.085 0.241 0.174 0.362 0.26 0.402 0.285 0.8 0.575 1.192 0.873 0.18 0.137 0.359 0.276 0.537 0.416 0.35 0.274 0.697 0.554 1.04 0.84 0.156 0.131 0.315 0.259 0.471 0.393 0.475 0.406 0.943 0.821 1.402 1.249 0.1 0.094 0.198 0.192 0.298 0.287 0.368 0.35 0.732 0.707 1.089 1.071 0.153 0.156 0.303 0.313 0.453 0.471 0.322 0.337 0.637 0.681 0.948 1.03 0.128 0.144 0.257 0.285 0.383 0.43 0.42 0.484 0.832 0.977 1.232 1.482 0.076 0.098 0.149 0.199 0.225 0.296 0.329 0.423 0.65 0.854 0.964 1.291 0.122 0.17 0.242 0.342 0.361 0.513 0.165 0.236 0.322 0.48 0.483 0.721-0.918-0.168-1.861-0.26-2.827-0.26-0.134 0-0.268 0.012-0.396 0.012-1.755-6.675-7.832-11.605-15.06-11.605-3.608 0-6.924 1.232-9.563 3.285-2.852-3.224-7.021-5.265-11.671-5.265-4.73 0-8.966 2.114-11.824 5.442-2.3-2.683-5.5-4.576-9.136-5.21 6.916-4.036 14.863-6.353 22.965-6.937 5.019 0.362 9.981 1.389 14.675 3.077zm-65.014 131.14c0.257 0.24 0.515 0.478 0.78 0.709-0.265-0.231-0.523-0.469-0.78-0.709zm-1.136-1.11c0.26 0.267 0.521 0.532 0.791 0.791-0.27-0.259-0.531-0.524-0.791-0.791zm2.936 2.677c-0.207-0.166-0.406-0.341-0.609-0.511 4.612 3.889 10.359 6.537 16.784 7.343l6.589 0.83c1.203 0.15 2.409 0.265 3.614 0.365 0.353 0.775 0.722 1.533 1.122 2.255l0.265 0.982-1.395-3.229s-12.141 10.178-19.249 20.008c-0.62-1.948-1.605-3.734-2.878-5.274-0.62-2.264-1.327-4.502-2.127-6.708-1.661-4.567-3.693-8.994-6.104-13.234-0.061-0.107-0.128-0.207-0.201-0.301 1.53-0.625 2.946-1.475 4.189-2.526zm-3.221-2.967c-0.271-0.286-0.533-0.578-0.794-0.873 0.261 0.295 0.523 0.587 0.794 0.873zm-7.138-11.746c-0.106-0.306-0.2-0.617-0.296-0.927 0.096 0.31 0.19 0.621 0.296 0.927zm0.542 1.458c-0.135-0.338-0.259-0.683-0.383-1.026 0.124 0.343 0.248 0.688 0.383 1.026zm-1.744-6.002c-0.011-0.061-0.019-0.123-0.029-0.183 0.01 0.06 0.018 0.122 0.029 0.183zm0.328 1.54c-0.044-0.182-0.078-0.367-0.118-0.549 0.041 0.182 0.074 0.367 0.118 0.549zm0.401 1.515c-0.075-0.256-0.138-0.517-0.206-0.776 0.068 0.259 0.131 0.52 0.206 0.776zm4.854 9.91c0.248 0.343 0.501 0.683 0.762 1.016-0.261-0.333-0.514-0.673-0.762-1.016zm0.95 1.247c0.256 0.32 0.515 0.638 0.784 0.949-0.269-0.311-0.528-0.629-0.784-0.949zm-1.83-2.528c0.235 0.362 0.475 0.72 0.726 1.072-0.251-0.352-0.491-0.71-0.726-1.072zm-0.812-1.308c0.22 0.374 0.444 0.746 0.679 1.11-0.235-0.364-0.459-0.736-0.679-1.11zm-0.741-1.333c0.2 0.38 0.404 0.759 0.619 1.13-0.215-0.371-0.419-0.75-0.619-1.13zm-0.669-1.351c0.177 0.379 0.357 0.757 0.549 1.128-0.191-0.371-0.372-0.749-0.549-1.128zm-0.594-1.353c0.151 0.366 0.303 0.731 0.467 1.09-0.164-0.359-0.316-0.724-0.467-1.09zm148.04-47.956c0.494-1.524 0.768-3.151 0.768-4.84 0-8.599-6.972-15.572-15.572-15.572-0.451 0-0.902 0.024-1.347 0.062 0.207-1.012 0.317-2.06 0.317-3.134 0-8.599-6.972-15.572-15.572-15.572-0.291 0-0.578 0.016-0.865 0.032-0.105-0.535-0.217-1.064-0.336-1.589-0.03-0.132-0.059-0.265-0.09-0.396-0.153-0.648-0.317-1.288-0.492-1.92-0.038-0.135-0.077-0.269-0.116-0.404-0.179-0.625-0.366-1.245-0.567-1.854-9e-3 -0.029-0.018-0.059-0.027-0.088-0.208-0.626-0.431-1.241-0.66-1.849-0.051-0.134-0.1-0.267-0.152-0.399-0.227-0.587-0.464-1.167-0.712-1.737-0.051-0.117-0.104-0.232-0.155-0.348-0.238-0.534-0.483-1.063-0.737-1.584-0.034-0.069-0.066-0.139-0.1-0.208-0.276-0.558-0.565-1.104-0.861-1.644-0.068-0.125-0.137-0.251-0.207-0.376-0.297-0.531-0.601-1.054-0.916-1.568-0.056-0.091-0.113-0.18-0.17-0.27-0.293-0.472-0.595-0.939-0.905-1.397-0.056-0.084-0.112-0.17-0.169-0.254-0.338-0.494-0.687-0.98-1.042-1.458-0.083-0.11-0.165-0.22-0.249-0.33-0.362-0.478-0.731-0.951-1.109-1.412-0.048-0.057-0.097-0.113-0.145-0.171-0.357-0.431-0.722-0.853-1.094-1.27-0.073-0.083-0.147-0.166-0.221-0.248-0.397-0.439-0.803-0.869-1.216-1.291-0.086-0.089-0.174-0.176-0.262-0.265-0.428-0.431-0.861-0.856-1.305-1.269-0.013-0.013-0.027-0.024-0.04-0.036-0.44-0.41-0.89-0.808-1.344-1.2-0.082-0.07-0.163-0.141-0.245-0.211-0.456-0.387-0.918-0.766-1.388-1.136-0.078-0.062-0.157-0.123-0.236-0.184-0.485-0.377-0.974-0.748-1.472-1.107-4e-3 -2e-3 -7e-3 -4e-3 -0.01-7e-3 -0.506-0.364-1.021-0.717-1.54-1.063-0.08-0.053-0.16-0.106-0.241-0.16-0.513-0.338-1.033-0.667-1.558-0.986-0.054-0.033-0.109-0.064-0.163-0.097-0.536-0.323-1.078-0.638-1.626-0.942-0.013-7e-3 -0.027-0.014-0.04-0.022-0.558-0.309-1.124-0.607-1.693-0.896-0.066-0.033-0.133-0.067-0.198-0.1-0.574-0.289-1.152-0.568-1.737-0.836-8e-3 -4e-3 -0.016-8e-3 -0.025-0.011-0.606-0.278-1.217-0.545-1.834-0.802-0.012-5e-3 -0.023-0.01-0.036-0.015-0.607-0.252-1.221-0.494-1.838-0.725-0.042-0.016-0.084-0.031-0.126-0.047-1.259-0.469-2.537-0.896-3.83-1.278-2e-3 -1e-3 -4e-3 -2e-3 -6e-3 -2e-3 -0.655-0.194-1.313-0.376-1.975-0.548l-0.025-6e-3c-5.125-1.325-10.457-1.991-15.79-1.991h-9.057c-17.798 0-35.598 7.387-45.681 22.164-4.56 2.716-7.618 7.694-7.618 13.387 0 0.969 0.098 1.92 0.263 2.84-0.994-0.201-2.024-0.305-3.0783-0.305-8.5998 0-15.572 6.973-15.572 15.573 0 1.437 0.2012 2.827 0.5607 4.143-0.9142-0.164-1.8589-0.255-2.8279-0.255-8.5998 0-15.572 6.966-15.572 15.566 0 1.907 0.3413 3.724 0.9691 5.412-5.979 2.176-10.245 7.905-10.245 14.633 0 5.863 3.2424 10.965 8.0268 13.623-0.1584 0.816-0.2499 1.657-0.2499 2.522 0 7.088 5.7535 12.842 12.848 12.842 0.256 0 0.512-0.024 0.7679-0.037 0.5303 0.464 1.091 0.879 1.6944 1.25-0.2682 0.847-0.4145 1.749-0.4145 2.687 0 4.669 3.5655 8.497 8.1244 8.918 2.486 4.977 7.5562 8.432 13.456 8.612-2.4003 3.301-3.2768 6.859-1.9518 9.621 0.6321 1.307 1.2168 2.635 1.7708 3.975-5.9298 1.045-10.719 5.391-12.404 11.074h-33.132c-2.1362 0-3.6782 2.047-3.0894 4.101l18.647 65.014c0.3956 1.378 1.656 2.327 3.0895 2.327h140.98c2.785 0 5.043-2.257 5.043-5.043v-1.315c0-2.786-2.258-5.043-5.043-5.043h-15.874c0.042-0.078 0.075-0.16 0.115-0.238h10.906s7e-3 -0.016 0.017-0.038c4e-3 -8e-3 6e-3 -0.012 0.011-0.024 0.015-0.032 0.034-0.073 0.06-0.129 4e-3 -9e-3 9e-3 -0.019 0.013-0.028 0.024-0.053 0.053-0.117 0.086-0.189 9e-3 -0.02 0.016-0.037 0.026-0.058 0.039-0.086 0.083-0.183 0.131-0.292 0.01-0.021 0.02-0.043 0.029-0.065 0.048-0.108 0.1-0.225 0.156-0.352 7e-3 -0.016 0.013-0.03 0.021-0.046 0.06-0.139 0.126-0.289 0.195-0.448 0.016-0.037 0.032-0.075 0.049-0.112 0.072-0.169 0.147-0.343 0.228-0.531l0.011-0.025c0.077-0.181 0.158-0.374 0.242-0.574 0.02-0.048 0.041-0.095 0.061-0.144 0.087-0.209 0.177-0.424 0.271-0.652 0.016-0.04 0.033-0.081 0.05-0.122 0.083-0.2 0.167-0.408 0.254-0.621 0.024-0.059 0.047-0.117 0.071-0.176 0.099-0.245 0.2-0.498 0.304-0.759 0.025-0.063 0.05-0.127 0.075-0.191 0.094-0.236 0.189-0.477 0.286-0.725 0.02-0.051 0.039-0.101 0.059-0.153 0.109-0.28 0.22-0.57 0.333-0.864 0.031-0.082 0.062-0.164 0.093-0.246 0.116-0.305 0.232-0.615 0.351-0.936 0.011-0.03 0.023-0.061 0.034-0.092 0.11-0.296 0.22-0.598 0.332-0.905 0.032-0.091 0.066-0.182 0.099-0.275 0.119-0.329 0.239-0.664 0.359-1.005 0.027-0.075 0.053-0.151 0.08-0.227 0.103-0.293 0.206-0.59 0.309-0.891 0.033-0.095 0.065-0.188 0.098-0.283 0.12-0.353 0.24-0.71 0.361-1.073 0.033-0.099 0.066-0.201 0.099-0.301 0.108-0.326 0.215-0.656 0.323-0.991 0.022-0.068 0.044-0.136 0.066-0.205 0.122-0.378 0.242-0.763 0.362-1.15 0.036-0.114 0.071-0.228 0.106-0.343 0.121-0.393 0.242-0.791 0.361-1.193 0.018-0.058 0.035-0.118 0.053-0.177 0.106-0.362 0.212-0.728 0.318-1.097 0.033-0.115 0.066-0.23 0.099-0.346 0.115-0.408 0.229-0.818 0.342-1.234 0.026-0.096 0.051-0.194 0.078-0.291 0.096-0.358 0.191-0.718 0.285-1.08 0.027-0.105 0.055-0.21 0.081-0.316 0.108-0.423 0.214-0.849 0.318-1.276 0.028-0.114 0.055-0.229 0.083-0.343 0.094-0.392 0.186-0.786 0.276-1.182 0.015-0.066 0.031-0.132 0.046-0.198 0.1-0.443 0.196-0.888 0.29-1.334 0.025-0.116 0.049-0.232 0.074-0.349 0.093-0.452 0.185-0.906 0.273-1.361 9e-3 -0.048 0.017-0.096 0.026-0.145 0.082-0.426 0.159-0.853 0.234-1.281 0.019-0.104 0.037-0.208 0.055-0.312 0.079-0.461 0.155-0.921 0.226-1.383 0.013-0.078 0.024-0.155 0.035-0.232 0.065-0.427 0.126-0.855 0.184-1.282 9e-3 -0.073 0.02-0.145 0.029-0.218 0.063-0.473 0.12-0.944 0.172-1.416 4e-3 -0.036 9e-3 -0.071 0.013-0.106 9e-3 -0.08 0.016-0.161 0.025-0.241 0.023-0.221 0.046-0.442 0.068-0.664 0.021-0.213 0.041-0.427 0.06-0.639 0.013-0.159 0.025-0.318 0.038-0.477 0.013-0.169 0.029-0.339 0.041-0.509 2e-3 -0.033 3e-3 -0.067 6e-3 -0.101 0.027-0.397 0.05-0.792 0.069-1.187 5e-3 -0.097 9e-3 -0.193 0.013-0.29 0.016-0.353 0.028-0.707 0.037-1.058 2e-3 -0.074 4e-3 -0.148 6e-3 -0.221 0.018-0.866 0.014-1.725-0.012-2.575-2e-3 -0.055-5e-3 -0.112-6e-3 -0.168-0.015-0.407-0.033-0.811-0.058-1.213-2e-3 -0.019-3e-3 -0.037-3e-3 -0.055-0.028-0.425-0.061-0.848-0.102-1.266-5e-3 -0.051-0.011-0.102-0.015-0.153-0.035-0.349-0.075-0.697-0.119-1.041-0.012-0.091-0.023-0.181-0.036-0.272-0.053-0.393-0.111-0.783-0.176-1.168-1.437-8.395-10.525-19.278-21.619-29.134 0.462 0.074 0.932 0.122 1.414 0.122 2.944 0 5.547-1.426 7.18-3.62 2.011 2.956 5.4 4.894 9.24 4.894 6.174 0 11.171-4.997 11.171-11.171 0-2.536-0.853-4.865-2.273-6.735 3.127-2.853 5.089-6.954 5.089-11.52 0-0.267-6e-3 -0.536-0.018-0.804 7.679-0.793 13.701-7.168 13.945-15.005 7.307-1.281 12.86-7.656 12.86-15.335 0-5.443-2.798-10.239-7.034-13.018z" fill="url(#m)" opacity=".25" style="mix-blend-mode:overlay"/>
</g>
</g>
</g>
</g>
</g>
<path d="m222.9 336.4c0 9.746 10.035 17.648 22.414 17.648h68.426c12.379 0 22.414-7.902 22.414-17.648h-113.25z" fill="#D46453"/>
<path d="m337.01 412.96c-9.728 8.679-15.81-2.633-15.81-2.633l-25.629-4.218v1.2h-31.997v-1.2l-25.629 4.218s-6.083 11.312-15.81 2.633c-8.843-7.887 4.608-51.263 41.439-59.132v-7.496h31.997v7.496c36.83 7.869 50.282 51.245 41.439 59.132z" fill="#488BD4"/>
<path d="m335.91 388.62c-7.984-11.166-20.856-21.509-38.714-24.971v-7.497h-35.252v7.497c-17.857 3.462-30.729 13.805-38.713 24.971 6.027-14.378 19.411-30.316 40.341-34.789v-7.497h31.997v7.497c20.929 4.473 34.313 20.411 40.341 34.789z" fill="#78D7FF"/>
<path d="m323.84 414.92h-88.554l23.742-62.308h41.07l23.742 62.308z" fill="#488BD4"/>
<path d="m304.95 365.34c-5.101 7.479-14.561 12.494-25.384 12.494-10.825 0-20.284-5.015-25.385-12.494l4.851-12.719h41.067l4.851 12.719z" fill="#144491"/>
<path d="m327.12 313.18c-5.966 0-10.8 5.62-10.8 12.562 0 0.227 0.02 0.449 0.03 0.673h-73.561c0.01-0.225 0.03-0.448 0.03-0.676 0-6.936-4.836-12.56-10.803-12.56-5.965 0-10.801 5.624-10.801 12.56 0 6.937 4.836 12.562 10.801 12.562 0.018 0 0.034-3e-3 0.052-4e-3h95.052c5.968 0 10.806-5.62 10.806-12.555 0-6.942-4.838-12.562-10.806-12.562" fill="#F5A15D"/>
<path d="m297.98 347.03h-36.819c-19.284 0-34.916-15.632-34.916-34.915v-12.733h106.65v12.733c0 19.283-15.631 34.915-34.915 34.915z" fill="#D46453"/>
<path d="m286.83 368.11h-14.523c-21.044 0-38.104-17.06-38.104-38.104v-28.599h90.731v28.599c0 21.044-17.06 38.104-38.104 38.104z" fill="#F5A15D"/>
<path d="m298.18 340.26c2.308 10.328-4.193 20.572-14.52 22.88-10.328 2.308-20.572-4.192-22.88-14.52-2.309-10.328 4.193-20.571 14.52-22.88 10.328-2.308 20.572 4.193 22.88 14.52z" fill="#F5A15D"/>
<path d="m267.51 347.12c-2.145 0.479-3.282 2.867-2.26 4.813 1.16 2.208 2.803 4.078 4.763 5.505 3.608 2.627 8.285 3.75 12.982 2.7s8.451-4.057 10.597-7.971c1.175-2.14 1.867-4.553 1.969-7.065 0.087-2.173-1.971-3.811-4.093-3.337l-23.958 5.355z" fill="#0E0F2C"/>
<path d="m293.59 352.17c-2.146 3.914-5.9 6.921-10.597 7.971s-9.373-0.072-12.982-2.7c2.143-3.917 5.899-6.925 10.596-7.975s9.377 0.072 12.983 2.704z" fill="#FF417D"/>
<path d="m318.64 427.18s-0.823 8.819-8.411 8.819-15.097-5.401-19.016-18.955c-7.466 2.591-15.255 2.407-23.294 0-3.919 13.554-11.434 18.955-19.021 18.955-7.588 0-8.411-8.819-8.411-8.819-1.542-9.191-0.396-17.827 1.486-24.819 1.604-5.954 3.749-10.708 5.224-13.591 0.962-1.883 2.895-3.066 5.004-3.066h8.917c2.706 0 5.028 1.926 5.527 4.59l0.945 5.047c7.984-1.28 15.968-1.28 23.946 0l0.951-5.047c0.499-2.664 2.822-4.59 5.528-4.59h8.91c2.116 0 4.048 1.183 5.011 3.066 1.475 2.877 3.614 7.637 5.222 13.591 1.884 6.992 3.023 15.628 1.482 24.819z" fill="#392946"/>
<path d="m297.43 395.57c0.677-2.461 2.914-4.164 5.466-4.164h0.743c2.29 0 4.355 1.376 5.237 3.489l2.845 6.813c0.258 0.617 0.396 1.248 0.431 1.872 1.698-0.379 3.371-0.785 5.007-1.221-1.609-5.955-3.747-10.715-5.222-13.592-0.963-1.883-2.895-3.065-5.011-3.065h-8.91c-2.706 0-5.028 1.926-5.528 4.589l-0.951 5.047c-7.978-1.28-15.962-1.28-23.946 0l-0.945-5.047c-0.5-2.663-2.822-4.589-5.528-4.589h-8.916c-2.109 0-4.041 1.182-5.004 3.065-1.475 2.883-3.62 7.637-5.224 13.592 1.638 0.436 3.31 0.842 5.008 1.221 0.036-0.624 0.174-1.255 0.431-1.872l2.845-6.813c0.882-2.113 2.947-3.489 5.237-3.489h0.744c2.551 0 4.788 1.703 5.465 4.164 0.249 0.902 0.524 1.903 0.813 2.954 1.32 4.805 5.598 8.204 10.578 8.404 2.136 0.086 4.294 0.13 6.472 0.13s4.336-0.044 6.472-0.13c4.979-0.2 9.258-3.599 10.579-8.404 0.288-1.051 0.563-2.052 0.812-2.954z" fill="#5B537D"/>
<path d="m263.7 416.08-0.067 0.098c-5.32 7.143-15.127 9.21-22.88 4.815l-3.175-1.804c-4.662-2.639-6.735-8.216-5.028-13.293 0.036-0.11 0.073-0.219 0.116-0.329 3.614 4.772 8.441 8.051 14.103 9.069 6.528 1.177 13.073-0.853 18.668-5.181 0.293 2.249-0.244 4.62-1.737 6.625z" fill="#F5A15D"/>
<path d="m265.44 409.46c-5.595 4.328-12.14 6.358-18.668 5.181-5.662-1.018-10.489-4.297-14.103-9.069 1.536-4.492 3.626-8.661 6.284-12.494 2.352-2.809 5.095-5.132 8.112-6.844 3.108-1.762 6.917 0.871 6.302 4.394-0.451 2.584-1.201 5.181-2.237 7.734l8.874 3.852c3.127 1.359 5.046 4.187 5.436 7.246z" fill="#FFCF8E"/>
<path d="m321.56 419.19-3.176 1.804c-7.752 4.395-17.559 2.328-22.879-4.815l-0.067-0.098c-1.494-2.005-2.029-4.375-1.737-6.625 5.595 4.328 12.14 6.358 18.668 5.181 5.662-1.018 10.489-4.297 14.104-9.069 0.042 0.109 0.078 0.22 0.115 0.329 1.707 5.077-0.366 10.654-5.028 13.293z" fill="#F5A15D"/>
<path d="m326.47 405.57c-3.615 4.772-8.442 8.051-14.104 9.069-6.528 1.177-13.073-0.853-18.668-5.18 0.39-3.06 2.31-5.888 5.436-7.247l8.875-3.852c-1.036-2.554-1.786-5.15-2.237-7.734-0.616-3.523 3.194-6.156 6.302-4.394 3.017 1.712 5.759 4.035 8.111 6.844 2.658 3.833 4.748 8.002 6.285 12.494z" fill="#FFCF8E"/>
<path d="m309.17 272.21c6.265 19.739-9.495 42.354-35.199 50.513-25.705 8.159-51.622-1.229-57.887-20.966-6.265-19.739 9.494-42.354 35.199-50.513s51.622 1.228 57.887 20.966z" fill="#D46453"/>
<path d="m301.91 289.95c-2.567 12.49 2.672 24.119 11.701 25.975 9.03 1.857 18.431-6.764 20.998-19.254s-2.671-24.12-11.7-25.976c-9.03-1.856-18.431 6.765-20.999 19.255z" fill="#D46453"/>
<path d="m257.88 333.58c-2.626 0-4.754-2.129-4.754-4.755v-7.09c0-2.625 2.128-4.753 4.754-4.753s4.754 2.128 4.754 4.753v7.09c0 2.626-2.128 4.755-4.754 4.755z" fill="#0E0F2C"/>
<path d="m297.8 333.58c-2.625 0-4.754-2.129-4.754-4.755v-7.09c0-2.625 2.129-4.753 4.754-4.753 2.627 0 4.755 2.128 4.755 4.753v7.09c0 2.626-2.128 4.755-4.755 4.755z" fill="#0E0F2C"/>
<path d="m318.06 257.98-2.946 8.162c-0.634 1.756 1.548 3.158 2.882 1.851l7.258-7.113c0.985-0.965 0.525-2.636-0.814-2.963l-4.312-1.048c-0.872-0.213-1.764 0.267-2.068 1.111z" fill="#D46453"/>
<path d="m313.8 254.02-0.183 8.675c-0.039 1.868-2.579 2.391-3.355 0.692l-4.218-9.245c-0.572-1.254 0.457-2.649 1.824-2.471l4.401 0.569c0.89 0.116 1.55 0.882 1.531 1.78z" fill="#D46453"/>
<path d="m335.24 291.29c-3.962-6.332-10.209-11.166-17.918-13.085-3.249-0.811-6.51-1.043-9.679-0.756 4.145-5.138 9.776-7.881 15.261-6.753 7.716 1.591 12.659 10.306 12.336 20.594z" fill="#F5A15D"/>
<path d="m309.16 272.2c-10.166-3.875-22.788-6.174-36.471-6.174-26.451 0-48.959 8.588-57.346 20.583 3.03-15.043 16.694-29.25 35.942-35.363 25.695-8.154 51.61 1.225 57.875 20.954z" fill="#F5A15D"/>
<g opacity=".25" style="mix-blend-mode:overlay">
<g opacity=".25" style="mix-blend-mode:overlay">
<g opacity=".25" style="mix-blend-mode:overlay">
<g opacity=".25" style="mix-blend-mode:overlay">
<g opacity=".25" style="mix-blend-mode:overlay">
<path d="m310.76 359.65c2.109-1.705 4.031-3.629 5.733-5.74 11.076-1.072 19.655-8.5 19.655-17.51h-3.333c3.062-2.216 5.106-6.151 5.106-10.652 0-4.533-2.07-8.489-5.164-10.698 0.081-0.967 0.131-1.941 0.131-2.928v-9.8c0.727-1.766 1.31-3.654 1.719-5.643 2.567-12.489-2.672-24.119-11.702-25.975-4.55-0.936-9.193 0.791-13.01 4.331-0.199-0.944-0.43-1.885-0.726-2.819-6.265-19.738-32.182-29.125-57.887-20.966-25.705 8.16-41.464 30.774-35.199 50.513 1.751 5.517 5.041 10.224 9.43 13.967-2.61 2.292-4.305 5.92-4.305 10.016 0 4.5 2.043 8.436 5.101 10.654h-3.415c0 9.035 8.626 16.48 19.747 17.519 1.701 2.107 3.62 4.029 5.726 5.731-25.209 14.442-33.738 46.63-26.241 53.316 4.718 4.209 8.575 3.713 11.3 2.089 0.959 1.682 2.362 3.129 4.149 4.142l2.234 1.267c0.082 2.195 0.294 4.44 0.678 6.72 0 0 0.822 8.82 8.411 8.82 7.588 0 15.102-5.401 19.021-18.956 8.039 2.41 15.824 2.594 23.294 0 3.919 13.555 11.428 18.956 19.016 18.956s8.41-8.82 8.41-8.82c0.384-2.28 0.597-4.525 0.679-6.72l2.233-1.267c1.788-1.013 3.191-2.46 4.15-4.142 2.725 1.624 6.581 2.12 11.299-2.089 7.498-6.686-1.031-38.874-26.24-53.316z" fill="url(#l)" opacity=".25" style="mix-blend-mode:overlay"/>
<path d="m317.99 268 7.257-7.114c0.985-0.965 0.526-2.636-0.814-2.961l-4.313-1.05c-0.871-0.211-1.763 0.268-2.068 1.112l-2.945 8.161c-0.634 1.758 1.548 3.159 2.883 1.852z" fill="url(#k)" opacity=".25" style="mix-blend-mode:overlay"/>
<path d="m310.26 263.39c0.775 1.699 3.315 1.175 3.354-0.693l0.183-8.675c0.019-0.897-0.641-1.665-1.53-1.78l-4.401-0.57c-1.368-0.177-2.397 1.217-1.825 2.472l4.219 9.246z" fill="url(#j)" opacity=".25" style="mix-blend-mode:overlay"/>
</g>
</g>
</g>
</g>
</g>
<defs>
<linearGradient id="n" x1="94.755" x2="94.755" y1="285.18" y2="284.21" gradientUnits="userSpaceOnUse">
<stop stop-color="#B0FFF1" offset="0"/>
<stop stop-color="#fff" offset="1"/>
</linearGradient>
<linearGradient id="i" x1="82.008" x2="82.008" y1="264.63" y2="264.61" gradientUnits="userSpaceOnUse">
<stop stop-color="#B0FFF1" offset="0"/>
<stop stop-color="#fff" offset="1"/>
</linearGradient>
<linearGradient id="h" x1="97.382" x2="97.382" y1="240.65" y2="240.58" gradientUnits="userSpaceOnUse">
<stop stop-color="#B0FFF1" offset="0"/>
<stop stop-color="#fff" offset="1"/>
</linearGradient>
<linearGradient id="g" x1="285.78" x2="285.78" y1="407.31" y2="-4.8701e-5" gradientUnits="userSpaceOnUse">
<stop stop-color="#B0FFF1" offset="0"/>
<stop stop-color="#fff" offset="1"/>
</linearGradient>
<linearGradient id="f" x1="437.27" x2="437.27" y1="283.87" y2="248.18" gradientUnits="userSpaceOnUse">
<stop stop-color="#B0FFF1" offset="0"/>
<stop stop-color="#fff" offset="1"/>
</linearGradient>
<linearGradient id="e" x1="98.369" x2="98.369" y1="286.47" y2="285.7" gradientUnits="userSpaceOnUse">
<stop stop-color="#B0FFF1" offset="0"/>
<stop stop-color="#fff" offset="1"/>
</linearGradient>
<linearGradient id="d" x1="227.65" x2="227.65" y1="238.78" y2="3.6561" gradientUnits="userSpaceOnUse">
<stop stop-color="#1D1D1B" offset="0"/>
<stop stop-color="#fff" offset="1"/>
</linearGradient>
<linearGradient id="c" x1="111.83" x2="111.83" y1="195.1" y2="137" gradientUnits="userSpaceOnUse">
<stop stop-color="#1D1D1B" offset="0"/>
<stop stop-color="#fff" offset="1"/>
</linearGradient>
<linearGradient id="b" x1="289.6" x2="289.6" y1="407.06" y2="37.185" gradientUnits="userSpaceOnUse">
<stop stop-color="#1D1D1B" offset="0"/>
<stop stop-color="#fff" offset="1"/>
</linearGradient>
<linearGradient id="a" x1="416.01" x2="416.01" y1="407.33" y2="182.99" gradientUnits="userSpaceOnUse">
<stop stop-color="#1D1D1B" offset="0"/>
<stop stop-color="#fff" offset="1"/>
</linearGradient>
<linearGradient id="m" x1="154.69" x2="154.69" y1="407.06" y2="167.37" gradientUnits="userSpaceOnUse">
<stop stop-color="#1D1D1B" offset="0"/>
<stop stop-color="#fff" offset="1"/>
</linearGradient>
<linearGradient id="l" x1="277.17" x2="277.17" y1="245.74" y2="442.09" gradientUnits="userSpaceOnUse">
<stop stop-color="#fff" offset="0"/>
<stop stop-color="#1D1D1B" offset="1"/>
</linearGradient>
<linearGradient id="k" x1="320.39" x2="320.39" y1="245.74" y2="442.09" gradientUnits="userSpaceOnUse">
<stop stop-color="#fff" offset="0"/>
<stop stop-color="#1D1D1B" offset="1"/>
</linearGradient>
<linearGradient id="j" x1="309.84" x2="309.84" y1="245.74" y2="442.09" gradientUnits="userSpaceOnUse">
<stop stop-color="#fff" offset="0"/>
<stop stop-color="#1D1D1B" offset="1"/>
</linearGradient>
</defs>
</svg>
