<svg width="200" viewBox="0 0 200 200" fill="none" xmlns="http://www.w3.org/2000/svg" class="    "><g clip-path="url(#rainbow-heart_svg__clip0_4306_852)"><path d="M101.363 187.797C96.6565 187.797 92.0383 186.146 88.3858 183.161C2.93867 113.307 -2.2591 66.7206 8.45252 39.9591C14.1244 25.7706 26.1706 16.1477 40.6752 14.2512C43.2916 13.9 45.9256 13.7244 48.4894 13.7244C69.8775 13.7244 84.8738 25.595 93.6889 35.534C95.1991 37.2549 97.3063 38.1856 99.6066 38.1856C101.96 38.1856 104.172 37.1671 105.665 35.3759C114.48 24.8751 129.634 12.3723 151.777 12.3723C153.85 12.3723 155.974 12.4777 158.099 12.706C172.639 14.2337 184.931 23.5229 190.971 37.571C202.368 64.0515 198.382 110.761 114.778 182.81C111.038 186.041 106.279 187.797 101.363 187.797Z" fill="#F0504E"></path><path d="M151.761 16.78C153.657 16.78 155.606 16.8854 157.626 17.0961C170.058 18.3955 181.367 26.4205 186.933 39.3271C196.837 62.3483 195.608 107.372 111.899 179.509C108.879 182.108 105.121 183.425 101.381 183.425C97.7636 183.425 94.1638 182.213 91.1786 179.772C5.62611 109.831 3.23795 64.8594 12.5272 41.5748C17.7425 28.5277 28.858 20.2218 41.2379 18.5887C43.7314 18.2551 46.1371 18.1146 48.4726 18.1146C68.1223 18.1146 82.0298 29.0194 90.3708 38.4491C92.8117 41.206 96.2007 42.5933 99.5898 42.5933C103.084 42.5933 106.561 41.1358 109.02 38.2208C117.308 28.3345 131.373 16.78 151.761 16.78ZM151.761 8C127.932 8 111.706 21.3632 102.294 32.5665C101.381 33.6552 100.204 33.8132 99.5898 33.8132C98.9928 33.8132 97.8514 33.6552 96.9558 32.6367C87.5436 22.0129 71.5113 9.33457 48.4726 9.33457C45.7157 9.33457 42.9061 9.52773 40.0964 9.89649C23.9939 12.0037 10.6483 22.6451 4.37935 38.3262C-6.85907 66.4573 -1.90714 115.028 85.612 186.568C90.0547 190.203 95.6388 192.187 101.363 192.187C107.316 192.187 113.093 190.045 117.624 186.146C203.264 112.342 206.969 63.6828 194.993 35.8502C188.321 20.3271 174.694 10.0545 158.539 8.3512C156.274 8.12292 153.991 8 151.761 8Z" fill="#010101"></path><path d="M39.2006 129.182H161.278C169.496 118.716 175.695 109.075 180.225 100.243H19.6914C24.3273 109.093 30.684 118.733 39.2006 129.182Z" fill="#61D961"></path><path d="M91.161 179.772C97.2192 184.724 105.947 184.618 111.882 179.508C120.486 172.098 128.195 164.986 135.131 158.138H66.4365C73.7766 165.057 81.9947 172.274 91.161 179.772Z" fill="#FF8CBD"></path><path d="M66.4368 158.138H135.149C145.562 147.866 154.184 138.225 161.279 129.199H39.2012C46.5588 138.225 55.5496 147.866 66.4368 158.138Z" fill="#59ABFF"></path><path d="M186.914 39.3269C181.365 26.4203 170.039 18.3953 157.607 17.0959C134.023 14.6199 118.061 27.4388 109 38.2206C107.086 40.5034 104.523 41.8907 101.818 42.3823H188.108C187.74 41.3112 187.336 40.2927 186.914 39.3269Z" fill="#FF3333"></path><path d="M90.3707 38.4489C81.0287 27.8954 64.7506 15.498 41.2377 18.5886C28.8403 20.2216 17.7424 28.5275 12.527 41.5746C12.4217 41.838 12.3163 42.1014 12.2285 42.3648H97.3069C94.7255 41.8907 92.2671 40.5913 90.3707 38.4489Z" fill="#FF2943"></path><path d="M9.62891 71.3037C10.9459 79.7852 14.0365 89.4257 19.7084 100.243H180.225C185.774 89.4257 188.864 79.8028 190.251 71.3037H9.62891Z" fill="#FFE359"></path><path d="M188.11 42.3647H101.82C100.327 42.6457 98.7817 42.6457 97.2891 42.3647H12.2283C9.38357 49.8278 7.7856 59.4506 9.62941 71.3037H190.252C192.166 59.5209 190.796 49.9156 188.11 42.3647Z" fill="#FF7040"></path><g opacity="0.83"><path d="M13.7212 53.2696C13.0012 58.8713 13.0539 74.2187 20.2886 72.1291C23.309 71.2511 24.4504 66.6855 24.6786 63.9637C24.942 60.8204 24.4679 57.6596 24.6435 54.4988C25.0825 46.4037 30.0696 38.7124 37.2692 35.0072C39.113 34.059 41.1324 33.339 42.6426 31.8991C44.1527 30.4767 44.9956 28.0359 43.8718 26.2974C42.8182 24.6643 40.5705 24.3131 38.6389 24.4185C30.772 24.8751 23.7831 30.2133 19.6214 36.9037C16.7415 41.5395 15.0382 46.79 13.9143 52.1107C13.8441 52.4267 13.7739 52.8131 13.7212 53.2696Z" fill="white"></path></g><g opacity="0.83"><path d="M23.869 88.0922C25.6599 87.8761 26.8875 85.8432 26.611 83.5517C26.3345 81.2602 24.6585 79.5777 22.8677 79.7938C21.0768 80.0099 19.8492 82.0427 20.1257 84.3343C20.4022 86.6258 22.0781 88.3083 23.869 88.0922Z" fill="white"></path></g><path d="M64.0842 96.0982C69.2242 96.0982 73.391 91.9314 73.391 86.7914C73.391 81.6514 69.2242 77.4846 64.0842 77.4846C58.9441 77.4846 54.7773 81.6514 54.7773 86.7914C54.7773 91.9314 58.9441 96.0982 64.0842 96.0982Z" fill="#010101"></path><path d="M135.886 96.0982C141.026 96.0982 145.193 91.9314 145.193 86.7914C145.193 81.6514 141.026 77.4846 135.886 77.4846C130.746 77.4846 126.579 81.6514 126.579 86.7914C126.579 91.9314 130.746 96.0982 135.886 96.0982Z" fill="#010101"></path><path d="M100.942 114.484C100.872 114.484 100.802 114.484 100.732 114.484C92.5312 114.396 85.7179 109.444 83.8038 102.174C83.277 100.155 84.4887 98.0825 86.5081 97.5381C88.5275 97.0113 90.5996 98.223 91.1439 100.242C92.338 104.79 96.8685 106.863 100.82 106.898C104.507 106.933 108.932 105.194 110.372 100.155C110.952 98.1352 113.041 96.9762 115.061 97.5557C117.08 98.1352 118.239 100.225 117.66 102.244C115.517 109.707 108.967 114.484 100.942 114.484Z" fill="#010101"></path></g><defs><clipPath id="rainbow-heart_svg__clip0_4306_852"><rect width="200" height="200" fill="white"></rect></clipPath></defs></svg>